solid OpenSCAD_Model
  facet normal 0.866025 0.5 0
    outer loop
      vertex 6 0 7
      vertex 3 5.19615 0
      vertex 3 5.19615 7
    endloop
  endfacet
  facet normal 0.866025 0.5 0
    outer loop
      vertex 3 5.19615 0
      vertex 6 0 7
      vertex 6 0 0
    endloop
  endfacet
  facet normal -0.866025 0.5 0
    outer loop
      vertex -6 0 0
      vertex -3 5.19615 7
      vertex -3 5.19615 0
    endloop
  endfacet
  facet normal -0.866025 0.5 0
    outer loop
      vertex -3 5.19615 7
      vertex -6 0 0
      vertex -6 0 7
    endloop
  endfacet
  facet normal 0 1 -0
    outer loop
      vertex 3 5.19615 0
      vertex -3 5.19615 7
      vertex 3 5.19615 7
    endloop
  endfacet
  facet normal 0 1 0
    outer loop
      vertex -3 5.19615 7
      vertex 3 5.19615 0
      vertex -3 5.19615 0
    endloop
  endfacet
  facet normal -0.866025 -0.5 0
    outer loop
      vertex -3 -5.19615 0
      vertex -6 0 7
      vertex -6 0 0
    endloop
  endfacet
  facet normal -0.866025 -0.5 0
    outer loop
      vertex -6 0 7
      vertex -3 -5.19615 0
      vertex -3 -5.19615 7
    endloop
  endfacet
  facet normal -0 0 1
    outer loop
      vertex 1.98209 1.44007 7
      vertex 6 0 7
      vertex 3 5.19615 7
    endloop
  endfacet
  facet normal 0 0 1
    outer loop
      vertex 2.33009 -0.757092 7
      vertex 6 0 7
      vertex 2.45 0 7
    endloop
  endfacet
  facet normal 0 0 1
    outer loop
      vertex 6 0 7
      vertex 2.33009 0.757092 7
      vertex 2.45 0 7
    endloop
  endfacet
  facet normal 0 0 1
    outer loop
      vertex 6 0 7
      vertex 1.98209 1.44007 7
      vertex 2.33009 0.757092 7
    endloop
  endfacet
  facet normal 0 0 1
    outer loop
      vertex 3 5.19615 7
      vertex 1.44007 1.98209 7
      vertex 1.98209 1.44007 7
    endloop
  endfacet
  facet normal 0 0 1
    outer loop
      vertex 3 5.19615 7
      vertex 0.757092 2.33009 7
      vertex 1.44007 1.98209 7
    endloop
  endfacet
  facet normal 0 0 1
    outer loop
      vertex 3 5.19615 7
      vertex 0 2.45 7
      vertex 0.757092 2.33009 7
    endloop
  endfacet
  facet normal -0 0 1
    outer loop
      vertex -3 5.19615 7
      vertex 0 2.45 7
      vertex 3 5.19615 7
    endloop
  endfacet
  facet normal 0 0 1
    outer loop
      vertex 0 2.45 7
      vertex -3 5.19615 7
      vertex -0.757092 2.33009 7
    endloop
  endfacet
  facet normal 0 0 1
    outer loop
      vertex -1.98209 1.44007 7
      vertex -6 0 7
      vertex -2.33009 0.757092 7
    endloop
  endfacet
  facet normal 0 0 1
    outer loop
      vertex -6 0 7
      vertex -1.98209 1.44007 7
      vertex -3 5.19615 7
    endloop
  endfacet
  facet normal 0 0 1
    outer loop
      vertex -1.44007 1.98209 7
      vertex -3 5.19615 7
      vertex -1.98209 1.44007 7
    endloop
  endfacet
  facet normal 0 0 1
    outer loop
      vertex -0.757092 2.33009 7
      vertex -3 5.19615 7
      vertex -1.44007 1.98209 7
    endloop
  endfacet
  facet normal 0 0 1
    outer loop
      vertex 1.98209 -1.44007 7
      vertex 6 0 7
      vertex 2.33009 -0.757092 7
    endloop
  endfacet
  facet normal 0 0 1
    outer loop
      vertex 6 0 7
      vertex 1.98209 -1.44007 7
      vertex 3 -5.19615 7
    endloop
  endfacet
  facet normal -0 0 1
    outer loop
      vertex 1.44007 -1.98209 7
      vertex 3 -5.19615 7
      vertex 1.98209 -1.44007 7
    endloop
  endfacet
  facet normal -0 0 1
    outer loop
      vertex 0.757092 -2.33009 7
      vertex 3 -5.19615 7
      vertex 1.44007 -1.98209 7
    endloop
  endfacet
  facet normal -0 0 1
    outer loop
      vertex 0 -2.45 7
      vertex 3 -5.19615 7
      vertex 0.757092 -2.33009 7
    endloop
  endfacet
  facet normal 0 0 1
    outer loop
      vertex -3 -5.19615 7
      vertex 0 -2.45 7
      vertex -0.757092 -2.33009 7
    endloop
  endfacet
  facet normal 0 0 1
    outer loop
      vertex -3 -5.19615 7
      vertex -0.757092 -2.33009 7
      vertex -1.44007 -1.98209 7
    endloop
  endfacet
  facet normal 0 0 1
    outer loop
      vertex 0 -2.45 7
      vertex -3 -5.19615 7
      vertex 3 -5.19615 7
    endloop
  endfacet
  facet normal 0 0 1
    outer loop
      vertex -1.98209 -1.44007 7
      vertex -3 -5.19615 7
      vertex -1.44007 -1.98209 7
    endloop
  endfacet
  facet normal 0 0 1
    outer loop
      vertex -6 0 7
      vertex -1.98209 -1.44007 7
      vertex -2.33009 -0.757092 7
    endloop
  endfacet
  facet normal -0 0 1
    outer loop
      vertex -6 0 7
      vertex -2.33009 -0.757092 7
      vertex -2.45 0 7
    endloop
  endfacet
  facet normal 0 0 1
    outer loop
      vertex -2.33009 0.757092 7
      vertex -6 0 7
      vertex -2.45 0 7
    endloop
  endfacet
  facet normal 0 0 1
    outer loop
      vertex -1.98209 -1.44007 7
      vertex -6 0 7
      vertex -3 -5.19615 7
    endloop
  endfacet
  facet normal 0 0 -1
    outer loop
      vertex 1.98209 -1.44007 0
      vertex 6 0 0
      vertex 3 -5.19615 0
    endloop
  endfacet
  facet normal 0 0 -1
    outer loop
      vertex 2.33009 0.757092 0
      vertex 6 0 0
      vertex 2.45 0 0
    endloop
  endfacet
  facet normal -0 0 -1
    outer loop
      vertex 6 0 0
      vertex 2.33009 -0.757092 0
      vertex 2.45 0 0
    endloop
  endfacet
  facet normal 0 0 -1
    outer loop
      vertex 6 0 0
      vertex 1.98209 -1.44007 0
      vertex 2.33009 -0.757092 0
    endloop
  endfacet
  facet normal 0 0 -1
    outer loop
      vertex 3 -5.19615 0
      vertex 1.44007 -1.98209 0
      vertex 1.98209 -1.44007 0
    endloop
  endfacet
  facet normal 0 0 -1
    outer loop
      vertex 3 -5.19615 0
      vertex 0.757092 -2.33009 0
      vertex 1.44007 -1.98209 0
    endloop
  endfacet
  facet normal 0 0 -1
    outer loop
      vertex 3 -5.19615 0
      vertex 0 -2.45 0
      vertex 0.757092 -2.33009 0
    endloop
  endfacet
  facet normal 0 0 -1
    outer loop
      vertex -3 -5.19615 0
      vertex 0 -2.45 0
      vertex 3 -5.19615 0
    endloop
  endfacet
  facet normal -0 0 -1
    outer loop
      vertex 0 -2.45 0
      vertex -3 -5.19615 0
      vertex -0.757092 -2.33009 0
    endloop
  endfacet
  facet normal -0 0 -1
    outer loop
      vertex -0.757092 -2.33009 0
      vertex -3 -5.19615 0
      vertex -1.44007 -1.98209 0
    endloop
  endfacet
  facet normal 0 0 -1
    outer loop
      vertex -3 -5.19615 0
      vertex -1.98209 -1.44007 0
      vertex -1.44007 -1.98209 0
    endloop
  endfacet
  facet normal 0 0 -1
    outer loop
      vertex -6 0 0
      vertex -1.98209 -1.44007 0
      vertex -3 -5.19615 0
    endloop
  endfacet
  facet normal 0 0 -1
    outer loop
      vertex -1.98209 -1.44007 0
      vertex -6 0 0
      vertex -2.33009 -0.757092 0
    endloop
  endfacet
  facet normal 0 0 -1
    outer loop
      vertex -2.33009 -0.757092 0
      vertex -6 0 0
      vertex -2.45 0 0
    endloop
  endfacet
  facet normal 0 0 -1
    outer loop
      vertex -2.45 0 0
      vertex -6 0 0
      vertex -3 5.19615 0
    endloop
  endfacet
  facet normal 0 0 -1
    outer loop
      vertex 1.98209 1.44007 0
      vertex 6 0 0
      vertex 2.33009 0.757092 0
    endloop
  endfacet
  facet normal 0 0 -1
    outer loop
      vertex 6 0 0
      vertex 1.98209 1.44007 0
      vertex 3 5.19615 0
    endloop
  endfacet
  facet normal 0 0 -1
    outer loop
      vertex 1.44007 1.98209 0
      vertex 3 5.19615 0
      vertex 1.98209 1.44007 0
    endloop
  endfacet
  facet normal 0 0 -1
    outer loop
      vertex 0.757092 2.33009 0
      vertex 3 5.19615 0
      vertex 1.44007 1.98209 0
    endloop
  endfacet
  facet normal 0 0 -1
    outer loop
      vertex 0 2.45 0
      vertex 3 5.19615 0
      vertex 0.757092 2.33009 0
    endloop
  endfacet
  facet normal 0 0 -1
    outer loop
      vertex -3 5.19615 0
      vertex 0 2.45 0
      vertex -0.757092 2.33009 0
    endloop
  endfacet
  facet normal 0 0 -1
    outer loop
      vertex -3 5.19615 0
      vertex -0.757092 2.33009 0
      vertex -1.44007 1.98209 0
    endloop
  endfacet
  facet normal 0 0 -1
    outer loop
      vertex 0 2.45 0
      vertex -3 5.19615 0
      vertex 3 5.19615 0
    endloop
  endfacet
  facet normal 0 0 -1
    outer loop
      vertex -1.98209 1.44007 0
      vertex -3 5.19615 0
      vertex -1.44007 1.98209 0
    endloop
  endfacet
  facet normal 0 0 -1
    outer loop
      vertex -2.33009 0.757092 0
      vertex -3 5.19615 0
      vertex -1.98209 1.44007 0
    endloop
  endfacet
  facet normal 0 0 -1
    outer loop
      vertex -3 5.19615 0
      vertex -2.33009 0.757092 0
      vertex -2.45 0 0
    endloop
  endfacet
  facet normal 0 -1 0
    outer loop
      vertex -3 -5.19615 0
      vertex 3 -5.19615 7
      vertex -3 -5.19615 7
    endloop
  endfacet
  facet normal 0 -1 -0
    outer loop
      vertex 3 -5.19615 7
      vertex -3 -5.19615 0
      vertex 3 -5.19615 0
    endloop
  endfacet
  facet normal 0.866025 -0.5 0
    outer loop
      vertex 3 -5.19615 7
      vertex 6 0 0
      vertex 6 0 7
    endloop
  endfacet
  facet normal 0.866025 -0.5 0
    outer loop
      vertex 6 0 0
      vertex 3 -5.19615 7
      vertex 3 -5.19615 0
    endloop
  endfacet
  facet normal -0.987688 -0.156435 0
    outer loop
      vertex 2.45 0 0
      vertex 2.33009 0.757092 7
      vertex 2.33009 0.757092 0
    endloop
  endfacet
  facet normal -0.987688 -0.156435 0
    outer loop
      vertex 2.33009 0.757092 7
      vertex 2.45 0 0
      vertex 2.45 0 7
    endloop
  endfacet
  facet normal 0.987688 -0.156435 0
    outer loop
      vertex -2.45 0 7
      vertex -2.33009 0.757092 0
      vertex -2.33009 0.757092 7
    endloop
  endfacet
  facet normal 0.987688 -0.156435 0
    outer loop
      vertex -2.33009 0.757092 0
      vertex -2.45 0 7
      vertex -2.45 0 0
    endloop
  endfacet
  facet normal -0.156435 -0.987688 0
    outer loop
      vertex 0 2.45 0
      vertex 0.757092 2.33009 7
      vertex 0 2.45 7
    endloop
  endfacet
  facet normal -0.156435 -0.987688 -0
    outer loop
      vertex 0.757092 2.33009 7
      vertex 0 2.45 0
      vertex 0.757092 2.33009 0
    endloop
  endfacet
  facet normal 0.156435 0.987688 -0
    outer loop
      vertex 0 -2.45 0
      vertex -0.757092 -2.33009 7
      vertex 0 -2.45 7
    endloop
  endfacet
  facet normal 0.156435 0.987688 0
    outer loop
      vertex -0.757092 -2.33009 7
      vertex 0 -2.45 0
      vertex -0.757092 -2.33009 0
    endloop
  endfacet
  facet normal -0.707107 -0.707107 0
    outer loop
      vertex 1.98209 1.44007 0
      vertex 1.44007 1.98209 7
      vertex 1.44007 1.98209 0
    endloop
  endfacet
  facet normal -0.707107 -0.707107 0
    outer loop
      vertex 1.44007 1.98209 7
      vertex 1.98209 1.44007 0
      vertex 1.98209 1.44007 7
    endloop
  endfacet
  facet normal -0.891006 -0.453991 0
    outer loop
      vertex 2.33009 0.757092 0
      vertex 1.98209 1.44007 7
      vertex 1.98209 1.44007 0
    endloop
  endfacet
  facet normal -0.891006 -0.453991 0
    outer loop
      vertex 1.98209 1.44007 7
      vertex 2.33009 0.757092 0
      vertex 2.33009 0.757092 7
    endloop
  endfacet
  facet normal -0.453991 -0.891006 0
    outer loop
      vertex 0.757092 2.33009 0
      vertex 1.44007 1.98209 7
      vertex 0.757092 2.33009 7
    endloop
  endfacet
  facet normal -0.453991 -0.891006 -0
    outer loop
      vertex 1.44007 1.98209 7
      vertex 0.757092 2.33009 0
      vertex 1.44007 1.98209 0
    endloop
  endfacet
  facet normal 0.453991 -0.891006 0
    outer loop
      vertex -1.44007 1.98209 0
      vertex -0.757092 2.33009 7
      vertex -1.44007 1.98209 7
    endloop
  endfacet
  facet normal 0.453991 -0.891006 0
    outer loop
      vertex -0.757092 2.33009 7
      vertex -1.44007 1.98209 0
      vertex -0.757092 2.33009 0
    endloop
  endfacet
  facet normal 0.707107 -0.707107 0
    outer loop
      vertex -1.98209 1.44007 7
      vertex -1.44007 1.98209 0
      vertex -1.44007 1.98209 7
    endloop
  endfacet
  facet normal 0.707107 -0.707107 0
    outer loop
      vertex -1.44007 1.98209 0
      vertex -1.98209 1.44007 7
      vertex -1.98209 1.44007 0
    endloop
  endfacet
  facet normal 0.156435 -0.987688 0
    outer loop
      vertex -0.757092 2.33009 0
      vertex 0 2.45 7
      vertex -0.757092 2.33009 7
    endloop
  endfacet
  facet normal 0.156435 -0.987688 0
    outer loop
      vertex 0 2.45 7
      vertex -0.757092 2.33009 0
      vertex 0 2.45 0
    endloop
  endfacet
  facet normal -0.891006 0.453991 0
    outer loop
      vertex 1.98209 -1.44007 0
      vertex 2.33009 -0.757092 7
      vertex 2.33009 -0.757092 0
    endloop
  endfacet
  facet normal -0.891006 0.453991 0
    outer loop
      vertex 2.33009 -0.757092 7
      vertex 1.98209 -1.44007 0
      vertex 1.98209 -1.44007 7
    endloop
  endfacet
  facet normal 0.707107 0.707107 0
    outer loop
      vertex -1.44007 -1.98209 7
      vertex -1.98209 -1.44007 0
      vertex -1.98209 -1.44007 7
    endloop
  endfacet
  facet normal 0.707107 0.707107 0
    outer loop
      vertex -1.98209 -1.44007 0
      vertex -1.44007 -1.98209 7
      vertex -1.44007 -1.98209 0
    endloop
  endfacet
  facet normal 0.987688 0.156435 0
    outer loop
      vertex -2.33009 -0.757092 7
      vertex -2.45 0 0
      vertex -2.45 0 7
    endloop
  endfacet
  facet normal 0.987688 0.156435 0
    outer loop
      vertex -2.45 0 0
      vertex -2.33009 -0.757092 7
      vertex -2.33009 -0.757092 0
    endloop
  endfacet
  facet normal 0.891006 -0.453991 0
    outer loop
      vertex -2.33009 0.757092 7
      vertex -1.98209 1.44007 0
      vertex -1.98209 1.44007 7
    endloop
  endfacet
  facet normal 0.891006 -0.453991 0
    outer loop
      vertex -1.98209 1.44007 0
      vertex -2.33009 0.757092 7
      vertex -2.33009 0.757092 0
    endloop
  endfacet
  facet normal -0.156435 0.987688 0
    outer loop
      vertex 0.757092 -2.33009 0
      vertex 0 -2.45 7
      vertex 0.757092 -2.33009 7
    endloop
  endfacet
  facet normal -0.156435 0.987688 0
    outer loop
      vertex 0 -2.45 7
      vertex 0.757092 -2.33009 0
      vertex 0 -2.45 0
    endloop
  endfacet
  facet normal -0.707107 0.707107 0
    outer loop
      vertex 1.44007 -1.98209 0
      vertex 1.98209 -1.44007 7
      vertex 1.98209 -1.44007 0
    endloop
  endfacet
  facet normal -0.707107 0.707107 0
    outer loop
      vertex 1.98209 -1.44007 7
      vertex 1.44007 -1.98209 0
      vertex 1.44007 -1.98209 7
    endloop
  endfacet
  facet normal 0.453991 0.891006 -0
    outer loop
      vertex -0.757092 -2.33009 0
      vertex -1.44007 -1.98209 7
      vertex -0.757092 -2.33009 7
    endloop
  endfacet
  facet normal 0.453991 0.891006 0
    outer loop
      vertex -1.44007 -1.98209 7
      vertex -0.757092 -2.33009 0
      vertex -1.44007 -1.98209 0
    endloop
  endfacet
  facet normal 0.891006 0.453991 0
    outer loop
      vertex -1.98209 -1.44007 7
      vertex -2.33009 -0.757092 0
      vertex -2.33009 -0.757092 7
    endloop
  endfacet
  facet normal 0.891006 0.453991 0
    outer loop
      vertex -2.33009 -0.757092 0
      vertex -1.98209 -1.44007 7
      vertex -1.98209 -1.44007 0
    endloop
  endfacet
  facet normal -0.987688 0.156435 0
    outer loop
      vertex 2.33009 -0.757092 0
      vertex 2.45 0 7
      vertex 2.45 0 0
    endloop
  endfacet
  facet normal -0.987688 0.156435 0
    outer loop
      vertex 2.45 0 7
      vertex 2.33009 -0.757092 0
      vertex 2.33009 -0.757092 7
    endloop
  endfacet
  facet normal -0.453991 0.891006 0
    outer loop
      vertex 1.44007 -1.98209 0
      vertex 0.757092 -2.33009 7
      vertex 1.44007 -1.98209 7
    endloop
  endfacet
  facet normal -0.453991 0.891006 0
    outer loop
      vertex 0.757092 -2.33009 7
      vertex 1.44007 -1.98209 0
      vertex 0.757092 -2.33009 0
    endloop
  endfacet
endsolid OpenSCAD_Model
