solid OpenSCAD_Model
  facet normal 0.951056 -0.309017 0
    outer loop
      vertex 11.8565 -4.55127 0
      vertex 12.2673 -3.287 -4
      vertex 12.2673 -3.287 0
    endloop
  endfacet
  facet normal 0.951056 -0.309017 0
    outer loop
      vertex 12.2673 -3.287 -4
      vertex 11.8565 -4.55127 0
      vertex 11.8565 -4.55127 -4
    endloop
  endfacet
  facet normal 0.978148 -0.207911 0
    outer loop
      vertex 12.2673 -3.287 0
      vertex 12.5436 -1.98672 -4
      vertex 12.5436 -1.98672 0
    endloop
  endfacet
  facet normal 0.978148 -0.207911 0
    outer loop
      vertex 12.5436 -1.98672 -4
      vertex 12.2673 -3.287 0
      vertex 12.2673 -3.287 -4
    endloop
  endfacet
  facet normal -0.951056 0.309017 0
    outer loop
      vertex -12.2673 3.287 -4
      vertex -11.8565 4.55127 0
      vertex -11.8565 4.55127 -4
    endloop
  endfacet
  facet normal -0.951056 0.309017 0
    outer loop
      vertex -11.8565 4.55127 0
      vertex -12.2673 3.287 -4
      vertex -12.2673 3.287 0
    endloop
  endfacet
  facet normal -1 0 0
    outer loop
      vertex -12.6826 -0.664666 -4
      vertex -12.6826 0.664666 0
      vertex -12.6826 0.664666 -4
    endloop
  endfacet
  facet normal -1 -0 0
    outer loop
      vertex -12.6826 0.664666 0
      vertex -12.6826 -0.664666 -4
      vertex -12.6826 -0.664666 0
    endloop
  endfacet
  facet normal -0.913545 -0.406737 0
    outer loop
      vertex -11.3158 -5.76568 -4
      vertex -11.8565 -4.55127 0
      vertex -11.8565 -4.55127 -4
    endloop
  endfacet
  facet normal -0.913545 -0.406737 0
    outer loop
      vertex -11.8565 -4.55127 0
      vertex -11.3158 -5.76568 -4
      vertex -11.3158 -5.76568 0
    endloop
  endfacet
  facet normal -0.66913 -0.743145 0
    outer loop
      vertex -8.98026 -8.98026 -4
      vertex -7.99237 -9.86975 0
      vertex -8.98026 -8.98026 0
    endloop
  endfacet
  facet normal -0.66913 -0.743145 -0
    outer loop
      vertex -7.99237 -9.86975 0
      vertex -8.98026 -8.98026 -4
      vertex -7.99237 -9.86975 -4
    endloop
  endfacet
  facet normal 0.406737 -0.913545 0
    outer loop
      vertex 4.55127 -11.8565 -4
      vertex 5.76568 -11.3158 0
      vertex 4.55127 -11.8565 0
    endloop
  endfacet
  facet normal 0.406737 -0.913545 0
    outer loop
      vertex 5.76568 -11.3158 0
      vertex 4.55127 -11.8565 -4
      vertex 5.76568 -11.3158 -4
    endloop
  endfacet
  facet normal -0.5 0.866025 0
    outer loop
      vertex -5.76568 11.3158 -4
      vertex -6.91691 10.6511 0
      vertex -5.76568 11.3158 0
    endloop
  endfacet
  facet normal -0.5 0.866025 0
    outer loop
      vertex -6.91691 10.6511 0
      vertex -5.76568 11.3158 -4
      vertex -6.91691 10.6511 -4
    endloop
  endfacet
  facet normal 0.913545 0.406737 0
    outer loop
      vertex 11.8565 4.55127 0
      vertex 11.3158 5.76568 -4
      vertex 11.3158 5.76568 0
    endloop
  endfacet
  facet normal 0.913545 0.406737 0
    outer loop
      vertex 11.3158 5.76568 -4
      vertex 11.8565 4.55127 0
      vertex 11.8565 4.55127 -4
    endloop
  endfacet
  facet normal 0.994522 -0.104528 0
    outer loop
      vertex 12.5436 -1.98672 0
      vertex 12.6826 -0.664666 -4
      vertex 12.6826 -0.664666 0
    endloop
  endfacet
  facet normal 0.994522 -0.104528 0
    outer loop
      vertex 12.6826 -0.664666 -4
      vertex 12.5436 -1.98672 0
      vertex 12.5436 -1.98672 -4
    endloop
  endfacet
  facet normal -0.994522 0.104528 0
    outer loop
      vertex -12.6826 0.664666 -4
      vertex -12.5436 1.98672 0
      vertex -12.5436 1.98672 -4
    endloop
  endfacet
  facet normal -0.994522 0.104528 0
    outer loop
      vertex -12.5436 1.98672 0
      vertex -12.6826 0.664666 -4
      vertex -12.6826 0.664666 0
    endloop
  endfacet
  facet normal -0.978148 0.207911 0
    outer loop
      vertex -12.5436 1.98672 -4
      vertex -12.2673 3.287 0
      vertex -12.2673 3.287 -4
    endloop
  endfacet
  facet normal -0.978148 0.207911 0
    outer loop
      vertex -12.2673 3.287 0
      vertex -12.5436 1.98672 -4
      vertex -12.5436 1.98672 0
    endloop
  endfacet
  facet normal 0 0 1
    outer loop
      vertex -5.44471 -5.44471 0
      vertex -5.76568 -11.3158 0
      vertex -4.55127 -11.8565 0
    endloop
  endfacet
  facet normal 0 0 1
    outer loop
      vertex -5.44471 -5.44471 0
      vertex -6.91691 -10.6511 0
      vertex -5.76568 -11.3158 0
    endloop
  endfacet
  facet normal 0 0 1
    outer loop
      vertex -5.44471 -5.44471 0
      vertex -7.99237 -9.86975 0
      vertex -6.91691 -10.6511 0
    endloop
  endfacet
  facet normal -0 0 1
    outer loop
      vertex -8.98025 -8.98026 0
      vertex -7.99237 -9.86975 0
      vertex -5.44471 -5.44471 0
    endloop
  endfacet
  facet normal 0 0 1
    outer loop
      vertex -8.98025 -8.98026 0
      vertex -8.98026 -8.98026 0
      vertex -7.99237 -9.86975 0
    endloop
  endfacet
  facet normal 0 0 1
    outer loop
      vertex -9.86974 -7.99236 0
      vertex -8.98026 -8.98026 0
      vertex -8.98025 -8.98026 0
    endloop
  endfacet
  facet normal 0 0 1
    outer loop
      vertex -9.86974 -7.99236 0
      vertex -9.86975 -7.99237 0
      vertex -8.98026 -8.98026 0
    endloop
  endfacet
  facet normal -0 0 1
    outer loop
      vertex -10.6511 -6.91691 0
      vertex -9.86974 -7.99236 0
      vertex -10.6511 -6.9169 0
    endloop
  endfacet
  facet normal 0 0 1
    outer loop
      vertex -9.86974 -7.99236 0
      vertex -10.6511 -6.91691 0
      vertex -9.86975 -7.99237 0
    endloop
  endfacet
  facet normal 0 0 1
    outer loop
      vertex -10.6511 -6.9169 0
      vertex -11.3158 -5.76568 0
      vertex -10.6511 -6.91691 0
    endloop
  endfacet
  facet normal 0 0 1
    outer loop
      vertex -11.8565 -4.55126 0
      vertex -11.8565 -4.55127 0
      vertex -11.3158 -5.76568 0
    endloop
  endfacet
  facet normal 0 0 1
    outer loop
      vertex -12.2056 -3.47685 0
      vertex -11.8565 -4.55127 0
      vertex -11.8565 -4.55126 0
    endloop
  endfacet
  facet normal 0 0 1
    outer loop
      vertex -12.2056 -3.47685 0
      vertex -12.2673 -3.287 0
      vertex -11.8565 -4.55127 0
    endloop
  endfacet
  facet normal 0 0 1
    outer loop
      vertex -12.2673 3.287 0
      vertex -12.5436 1.98672 0
      vertex -12.2056 -3.47685 0
    endloop
  endfacet
  facet normal -0 0 1
    outer loop
      vertex -12.5436 -1.98672 0
      vertex -12.2056 -3.47685 0
      vertex -12.5436 1.98672 0
    endloop
  endfacet
  facet normal 0 0 1
    outer loop
      vertex -12.2056 -3.47685 0
      vertex -12.5436 -1.98672 0
      vertex -12.2673 -3.287 0
    endloop
  endfacet
  facet normal -0 0 1
    outer loop
      vertex -12.6826 0.664666 0
      vertex -12.5436 -1.98672 0
      vertex -12.5436 1.98672 0
    endloop
  endfacet
  facet normal 0 0 1
    outer loop
      vertex -12.5436 -1.98672 0
      vertex -12.6826 0.664666 0
      vertex -12.6826 -0.664666 0
    endloop
  endfacet
  facet normal -0 0 1
    outer loop
      vertex -5.98401 4.84576 0
      vertex -5.44471 -5.44471 0
      vertex -5.52569 5.35477 0
    endloop
  endfacet
  facet normal 0 0 1
    outer loop
      vertex -5.98401 4.84576 0
      vertex -5.98401 -4.84575 0
      vertex -5.44471 -5.44471 0
    endloop
  endfacet
  facet normal -0 0 1
    outer loop
      vertex -6.45775 4.19371 0
      vertex -5.98401 -4.84575 0
      vertex -5.98401 4.84576 0
    endloop
  endfacet
  facet normal 0 0 1
    outer loop
      vertex -6.45775 4.19371 0
      vertex -6.45776 -4.19372 0
      vertex -5.98401 -4.84575 0
    endloop
  endfacet
  facet normal -0 0 1
    outer loop
      vertex -6.86074 3.49571 0
      vertex -6.45776 -4.19372 0
      vertex -6.45775 4.19371 0
    endloop
  endfacet
  facet normal 0 0 1
    outer loop
      vertex -6.86074 3.49571 0
      vertex -6.86075 -3.49572 0
      vertex -6.45776 -4.19372 0
    endloop
  endfacet
  facet normal 0 0 1
    outer loop
      vertex -6.86074 3.49571 0
      vertex -7.18855 -2.75943 0
      vertex -6.86075 -3.49572 0
    endloop
  endfacet
  facet normal -0 0 1
    outer loop
      vertex -7.18856 2.75942 0
      vertex -7.18855 -2.75943 0
      vertex -6.86074 3.49571 0
    endloop
  endfacet
  facet normal 0 0 1
    outer loop
      vertex -7.18856 2.75942 0
      vertex -7.40021 -2.108 0
      vertex -7.18855 -2.75943 0
    endloop
  endfacet
  facet normal -0 0 1
    outer loop
      vertex -7.43763 1.99291 0
      vertex -7.40021 -2.108 0
      vertex -7.18856 2.75942 0
    endloop
  endfacet
  facet normal 0 0 1
    outer loop
      vertex -7.43763 1.99291 0
      vertex -12.2056 -3.47685 0
      vertex -7.40021 -2.108 0
    endloop
  endfacet
  facet normal 0 -0 1
    outer loop
      vertex -12.2056 -3.47685 0
      vertex -7.43763 1.99291 0
      vertex -12.2673 3.287 0
    endloop
  endfacet
  facet normal 0 0 1
    outer loop
      vertex 3.28699 -12.2673 0
      vertex 1.98672 -12.5436 0
      vertex 3.287 -12.2673 0
    endloop
  endfacet
  facet normal -0 0 1
    outer loop
      vertex 1.98671 -12.5436 0
      vertex 1.98672 -12.5436 0
      vertex 3.28699 -12.2673 0
    endloop
  endfacet
  facet normal 0 0 1
    outer loop
      vertex 1.98671 -12.5436 0
      vertex 0.664666 -12.6826 0
      vertex 1.98672 -12.5436 0
    endloop
  endfacet
  facet normal 0 0 1
    outer loop
      vertex -0.664671 -12.6826 0
      vertex -0.664666 -12.6826 0
      vertex 0.664666 -12.6826 0
    endloop
  endfacet
  facet normal 0 0 1
    outer loop
      vertex -0.664671 -12.6826 0
      vertex -1.98672 -12.5436 0
      vertex -0.664666 -12.6826 0
    endloop
  endfacet
  facet normal 0 0 1
    outer loop
      vertex -1.98673 -12.5436 0
      vertex -1.98672 -12.5436 0
      vertex -0.664671 -12.6826 0
    endloop
  endfacet
  facet normal 0 0 1
    outer loop
      vertex -3.09175 -12.3088 0
      vertex -1.98672 -12.5436 0
      vertex -1.98673 -12.5436 0
    endloop
  endfacet
  facet normal 0 0 1
    outer loop
      vertex -3.28699 12.2673 0
      vertex -4.55127 11.8565 0
      vertex -1.9929 7.43761 0
    endloop
  endfacet
  facet normal 0 0 1
    outer loop
      vertex -3.09175 -12.3088 0
      vertex -3.287 -12.2673 0
      vertex -1.98672 -12.5436 0
    endloop
  endfacet
  facet normal 0 0 1
    outer loop
      vertex -1.9929 7.43761 0
      vertex -5.44471 -5.44471 0
      vertex -3.09175 -12.3088 0
    endloop
  endfacet
  facet normal -0 0 1
    outer loop
      vertex -5.76568 11.3158 0
      vertex -1.9929 7.43761 0
      vertex -4.55127 11.8565 0
    endloop
  endfacet
  facet normal 0 0 1
    outer loop
      vertex -1.9929 7.43761 0
      vertex -5.52569 5.35477 0
      vertex -5.44471 -5.44471 0
    endloop
  endfacet
  facet normal 0 0 1
    outer loop
      vertex -3.287 -12.2673 0
      vertex -5.44471 -5.44471 0
      vertex -4.55127 -11.8565 0
    endloop
  endfacet
  facet normal 0 0 1
    outer loop
      vertex -3.09175 -12.3088 0
      vertex -5.44471 -5.44471 0
      vertex -3.287 -12.2673 0
    endloop
  endfacet
  facet normal -0 0 1
    outer loop
      vertex -6.91691 10.6511 0
      vertex -1.9929 7.43761 0
      vertex -5.76568 11.3158 0
    endloop
  endfacet
  facet normal 0 0 1
    outer loop
      vertex -1.9929 7.43761 0
      vertex -6.91691 10.6511 0
      vertex -5.52569 5.35477 0
    endloop
  endfacet
  facet normal -0 0 1
    outer loop
      vertex -7.99237 9.86975 0
      vertex -5.52569 5.35477 0
      vertex -6.91691 10.6511 0
    endloop
  endfacet
  facet normal -0 0 1
    outer loop
      vertex -8.98026 8.98026 0
      vertex -5.52569 5.35477 0
      vertex -7.99237 9.86975 0
    endloop
  endfacet
  facet normal 0 0 1
    outer loop
      vertex -8.98026 8.98026 0
      vertex -9.11382 8.8319 0
      vertex -5.52569 5.35477 0
    endloop
  endfacet
  facet normal 0 0 1
    outer loop
      vertex -9.86975 7.99237 0
      vertex -9.11382 8.8319 0
      vertex -8.98026 8.98026 0
    endloop
  endfacet
  facet normal 0 0 1
    outer loop
      vertex -9.11382 8.8319 0
      vertex -9.86975 7.99237 0
      vertex -9.86975 7.99235 0
    endloop
  endfacet
  facet normal 0 0 1
    outer loop
      vertex -10.6511 6.91691 0
      vertex -9.86975 7.99235 0
      vertex -9.86975 7.99237 0
    endloop
  endfacet
  facet normal 0 0 1
    outer loop
      vertex -10.6511 6.91691 0
      vertex -11.3158 5.76568 0
      vertex -11.3158 5.76567 0
    endloop
  endfacet
  facet normal 0 0 1
    outer loop
      vertex -11.8565 4.55127 0
      vertex -11.3158 5.76567 0
      vertex -11.3158 5.76568 0
    endloop
  endfacet
  facet normal 0 0 1
    outer loop
      vertex -11.3158 5.76567 0
      vertex -11.8565 4.55127 0
      vertex -11.8565 4.55126 0
    endloop
  endfacet
  facet normal 0 0 1
    outer loop
      vertex -12.2673 3.287 0
      vertex -11.8565 4.55126 0
      vertex -11.8565 4.55127 0
    endloop
  endfacet
  facet normal 0 0 1
    outer loop
      vertex 4.55127 -11.8565 0
      vertex 1.9929 -7.43761 0
      vertex 3.28699 -12.2673 0
    endloop
  endfacet
  facet normal 0 0 1
    outer loop
      vertex 5.44471 5.44471 0
      vertex 1.87452 7.46279 0
      vertex 1.9929 -7.43761 0
    endloop
  endfacet
  facet normal 0 0 1
    outer loop
      vertex 1.20456 7.60518 0
      vertex 1.9929 -7.43761 0
      vertex 1.87452 7.46279 0
    endloop
  endfacet
  facet normal 0 0 1
    outer loop
      vertex 1.20456 7.60518 0
      vertex 1.20454 -7.60519 0
      vertex 1.9929 -7.43761 0
    endloop
  endfacet
  facet normal 0 0 1
    outer loop
      vertex 0.402996 7.68943 0
      vertex 1.20454 -7.60519 0
      vertex 1.20456 7.60518 0
    endloop
  endfacet
  facet normal 0 0 1
    outer loop
      vertex 0.402996 7.68943 0
      vertex 0.402985 -7.68943 0
      vertex 1.20454 -7.60519 0
    endloop
  endfacet
  facet normal 0 0 1
    outer loop
      vertex -0.402985 7.68943 0
      vertex 0.402985 -7.68943 0
      vertex 0.402996 7.68943 0
    endloop
  endfacet
  facet normal 0 0 1
    outer loop
      vertex -0.402985 7.68943 0
      vertex -0.402996 -7.68943 0
      vertex 0.402985 -7.68943 0
    endloop
  endfacet
  facet normal -0 0 1
    outer loop
      vertex -1.20454 7.60519 0
      vertex -0.402996 -7.68943 0
      vertex -0.402985 7.68943 0
    endloop
  endfacet
  facet normal 0 0 1
    outer loop
      vertex -1.20454 7.60519 0
      vertex -1.20456 -7.60518 0
      vertex -0.402996 -7.68943 0
    endloop
  endfacet
  facet normal 0 0 1
    outer loop
      vertex -1.20454 7.60519 0
      vertex -1.87452 -7.46279 0
      vertex -1.20456 -7.60518 0
    endloop
  endfacet
  facet normal -0 0 1
    outer loop
      vertex -1.9929 7.43761 0
      vertex -1.87452 -7.46279 0
      vertex -1.20454 7.60519 0
    endloop
  endfacet
  facet normal 0 0 1
    outer loop
      vertex -1.9929 7.43761 0
      vertex -3.09175 -12.3088 0
      vertex -1.87452 -7.46279 0
    endloop
  endfacet
  facet normal 0 0 1
    outer loop
      vertex -4.55127 11.8565 0
      vertex -3.28699 12.2673 0
      vertex -3.287 12.2673 0
    endloop
  endfacet
  facet normal 0 0 1
    outer loop
      vertex 7.40021 2.108 0
      vertex 12.6826 0.664666 0
      vertex 12.5436 1.98672 0
    endloop
  endfacet
  facet normal 0 -0 1
    outer loop
      vertex 7.43763 -1.99291 0
      vertex 12.6826 0.664666 0
      vertex 7.40021 2.108 0
    endloop
  endfacet
  facet normal -0 0 1
    outer loop
      vertex 7.40021 2.108 0
      vertex 12.5436 1.98672 0
      vertex 12.2673 3.287 0
    endloop
  endfacet
  facet normal 0 0 1
    outer loop
      vertex 12.6826 0.664666 0
      vertex 7.43763 -1.99291 0
      vertex 12.6826 -0.664666 0
    endloop
  endfacet
  facet normal 0 0 1
    outer loop
      vertex 7.40021 2.108 0
      vertex 12.2673 3.287 0
      vertex 12.2056 3.47685 0
    endloop
  endfacet
  facet normal 0 0 1
    outer loop
      vertex 11.8565 4.55127 0
      vertex 12.2056 3.47685 0
      vertex 12.2673 3.287 0
    endloop
  endfacet
  facet normal 0 0 1
    outer loop
      vertex 11.8565 4.55127 0
      vertex 11.8565 4.55126 0
      vertex 12.2056 3.47685 0
    endloop
  endfacet
  facet normal 0 0 1
    outer loop
      vertex 11.3158 5.76568 0
      vertex 11.8565 4.55126 0
      vertex 11.8565 4.55127 0
    endloop
  endfacet
  facet normal -0 0 1
    outer loop
      vertex 10.6511 6.9169 0
      vertex 11.3158 5.76568 0
      vertex 10.6511 6.91691 0
    endloop
  endfacet
  facet normal -0 0 1
    outer loop
      vertex 9.86974 7.99236 0
      vertex 10.6511 6.91691 0
      vertex 9.86975 7.99237 0
    endloop
  endfacet
  facet normal 0 0 1
    outer loop
      vertex 10.6511 6.91691 0
      vertex 9.86974 7.99236 0
      vertex 10.6511 6.9169 0
    endloop
  endfacet
  facet normal 0 0 1
    outer loop
      vertex 8.98026 8.98026 0
      vertex 9.86974 7.99236 0
      vertex 9.86975 7.99237 0
    endloop
  endfacet
  facet normal 0 0 1
    outer loop
      vertex 8.98026 8.98026 0
      vertex 8.98025 8.98026 0
      vertex 9.86974 7.99236 0
    endloop
  endfacet
  facet normal 0 0 1
    outer loop
      vertex 7.99237 9.86975 0
      vertex 8.98025 8.98026 0
      vertex 8.98026 8.98026 0
    endloop
  endfacet
  facet normal 0 0 1
    outer loop
      vertex 5.44471 5.44471 0
      vertex 7.99237 9.86975 0
      vertex 6.91691 10.6511 0
    endloop
  endfacet
  facet normal 0 0 1
    outer loop
      vertex 5.44471 5.44471 0
      vertex 6.91691 10.6511 0
      vertex 5.76568 11.3158 0
    endloop
  endfacet
  facet normal 0 0 1
    outer loop
      vertex 7.99237 9.86975 0
      vertex 5.44471 5.44471 0
      vertex 8.98025 8.98026 0
    endloop
  endfacet
  facet normal 0 0 1
    outer loop
      vertex 1.87452 7.46279 0
      vertex 5.76568 11.3158 0
      vertex 4.55127 11.8565 0
    endloop
  endfacet
  facet normal 0 0 1
    outer loop
      vertex 12.2673 -3.287 0
      vertex 11.8565 -4.55126 0
      vertex 11.8565 -4.55127 0
    endloop
  endfacet
  facet normal 0 0 1
    outer loop
      vertex 11.3158 -5.76567 0
      vertex 11.8565 -4.55127 0
      vertex 11.8565 -4.55126 0
    endloop
  endfacet
  facet normal 0 0 1
    outer loop
      vertex 11.8565 -4.55127 0
      vertex 11.3158 -5.76567 0
      vertex 11.3158 -5.76568 0
    endloop
  endfacet
  facet normal 0 0 1
    outer loop
      vertex 10.6511 -6.91691 0
      vertex 11.3158 -5.76568 0
      vertex 11.3158 -5.76567 0
    endloop
  endfacet
  facet normal 0 0 1
    outer loop
      vertex 10.6511 -6.91691 0
      vertex 9.86975 -7.99235 0
      vertex 9.86975 -7.99237 0
    endloop
  endfacet
  facet normal 0 0 1
    outer loop
      vertex 9.11382 -8.8319 0
      vertex 9.86975 -7.99237 0
      vertex 9.86975 -7.99235 0
    endloop
  endfacet
  facet normal -0 0 1
    outer loop
      vertex 9.11382 -8.8319 0
      vertex 8.98026 -8.98026 0
      vertex 9.86975 -7.99237 0
    endloop
  endfacet
  facet normal 0 0 1
    outer loop
      vertex 5.52569 -5.35477 0
      vertex 8.98026 -8.98026 0
      vertex 9.11382 -8.8319 0
    endloop
  endfacet
  facet normal 0 0 1
    outer loop
      vertex 8.98026 -8.98026 0
      vertex 5.52569 -5.35477 0
      vertex 7.99237 -9.86975 0
    endloop
  endfacet
  facet normal 0 0 1
    outer loop
      vertex 7.99237 -9.86975 0
      vertex 5.52569 -5.35477 0
      vertex 6.91691 -10.6511 0
    endloop
  endfacet
  facet normal -0 0 1
    outer loop
      vertex 1.9929 -7.43761 0
      vertex 6.91691 -10.6511 0
      vertex 5.52569 -5.35477 0
    endloop
  endfacet
  facet normal 0 0 1
    outer loop
      vertex 1.87452 7.46279 0
      vertex 4.55127 11.8565 0
      vertex 3.287 12.2673 0
    endloop
  endfacet
  facet normal 0 0 1
    outer loop
      vertex 5.76568 11.3158 0
      vertex 1.87452 7.46279 0
      vertex 5.44471 5.44471 0
    endloop
  endfacet
  facet normal 0 0 1
    outer loop
      vertex 6.91691 -10.6511 0
      vertex 1.9929 -7.43761 0
      vertex 5.76568 -11.3158 0
    endloop
  endfacet
  facet normal 0 0 1
    outer loop
      vertex 1.87452 7.46279 0
      vertex 3.287 12.2673 0
      vertex 3.09175 12.3088 0
    endloop
  endfacet
  facet normal 0 0 1
    outer loop
      vertex 5.44471 5.44471 0
      vertex 1.9929 -7.43761 0
      vertex 5.52569 -5.35477 0
    endloop
  endfacet
  facet normal 0 0 1
    outer loop
      vertex 4.55127 -11.8565 0
      vertex 3.28699 -12.2673 0
      vertex 3.287 -12.2673 0
    endloop
  endfacet
  facet normal 0 0 1
    outer loop
      vertex 5.76568 -11.3158 0
      vertex 1.9929 -7.43761 0
      vertex 4.55127 -11.8565 0
    endloop
  endfacet
  facet normal 0 0 1
    outer loop
      vertex 1.98672 12.5436 0
      vertex 3.09175 12.3088 0
      vertex 3.287 12.2673 0
    endloop
  endfacet
  facet normal 0 0 1
    outer loop
      vertex 3.09175 12.3088 0
      vertex 1.98672 12.5436 0
      vertex 1.98673 12.5436 0
    endloop
  endfacet
  facet normal 0 0 1
    outer loop
      vertex 1.98672 12.5436 0
      vertex 0.664671 12.6826 0
      vertex 1.98673 12.5436 0
    endloop
  endfacet
  facet normal 0 0 1
    outer loop
      vertex 0.664666 12.6826 0
      vertex 0.664671 12.6826 0
      vertex 1.98672 12.5436 0
    endloop
  endfacet
  facet normal 0 0 1
    outer loop
      vertex 0.664666 12.6826 0
      vertex -0.664666 12.6826 0
      vertex 0.664671 12.6826 0
    endloop
  endfacet
  facet normal -0 0 1
    outer loop
      vertex -1.98672 12.5436 0
      vertex -1.98671 12.5436 0
      vertex -0.664666 12.6826 0
    endloop
  endfacet
  facet normal 0 0 1
    outer loop
      vertex -1.98672 12.5436 0
      vertex -3.28699 12.2673 0
      vertex -1.98671 12.5436 0
    endloop
  endfacet
  facet normal 0 -0 1
    outer loop
      vertex -3.28699 12.2673 0
      vertex -1.98672 12.5436 0
      vertex -3.287 12.2673 0
    endloop
  endfacet
  facet normal 0 0 1
    outer loop
      vertex 12.5436 -1.98672 0
      vertex 7.43763 -1.99291 0
      vertex 12.2673 -3.287 0
    endloop
  endfacet
  facet normal 0 0 1
    outer loop
      vertex 12.6826 -0.664666 0
      vertex 7.43763 -1.99291 0
      vertex 12.5436 -1.98672 0
    endloop
  endfacet
  facet normal 0 0 1
    outer loop
      vertex 7.40021 2.108 0
      vertex 7.18856 -2.75942 0
      vertex 7.43763 -1.99291 0
    endloop
  endfacet
  facet normal 0 0 1
    outer loop
      vertex 7.18855 2.75943 0
      vertex 7.18856 -2.75942 0
      vertex 7.40021 2.108 0
    endloop
  endfacet
  facet normal 0 0 1
    outer loop
      vertex 6.86075 3.49572 0
      vertex 7.18856 -2.75942 0
      vertex 7.18855 2.75943 0
    endloop
  endfacet
  facet normal 0 0 1
    outer loop
      vertex 6.86075 3.49572 0
      vertex 6.86074 -3.49571 0
      vertex 7.18856 -2.75942 0
    endloop
  endfacet
  facet normal 0 0 1
    outer loop
      vertex 6.45776 4.19372 0
      vertex 6.86074 -3.49571 0
      vertex 6.86075 3.49572 0
    endloop
  endfacet
  facet normal 0 0 1
    outer loop
      vertex 6.45776 4.19372 0
      vertex 6.45775 -4.19371 0
      vertex 6.86074 -3.49571 0
    endloop
  endfacet
  facet normal 0 0 1
    outer loop
      vertex 5.98401 4.84575 0
      vertex 6.45775 -4.19371 0
      vertex 6.45776 4.19372 0
    endloop
  endfacet
  facet normal 0 0 1
    outer loop
      vertex 5.98401 4.84575 0
      vertex 5.98401 -4.84576 0
      vertex 6.45775 -4.19371 0
    endloop
  endfacet
  facet normal 0 0 1
    outer loop
      vertex 5.98401 4.84575 0
      vertex 5.52569 -5.35477 0
      vertex 5.98401 -4.84576 0
    endloop
  endfacet
  facet normal 0 -0 1
    outer loop
      vertex 5.52569 -5.35477 0
      vertex 5.98401 4.84575 0
      vertex 5.44471 5.44471 0
    endloop
  endfacet
  facet normal -0.994522 -0.104528 0
    outer loop
      vertex -12.5436 -1.98672 -4
      vertex -12.6826 -0.664666 0
      vertex -12.6826 -0.664666 -4
    endloop
  endfacet
  facet normal -0.994522 -0.104528 0
    outer loop
      vertex -12.6826 -0.664666 0
      vertex -12.5436 -1.98672 -4
      vertex -12.5436 -1.98672 0
    endloop
  endfacet
  facet normal -0.951056 -0.309017 0
    outer loop
      vertex -11.8565 -4.55127 -4
      vertex -12.2673 -3.287 0
      vertex -12.2673 -3.287 -4
    endloop
  endfacet
  facet normal -0.951056 -0.309017 0
    outer loop
      vertex -12.2673 -3.287 0
      vertex -11.8565 -4.55127 -4
      vertex -11.8565 -4.55127 0
    endloop
  endfacet
  facet normal 0 0 -1
    outer loop
      vertex 12.5436 -1.98672 -4
      vertex 12.6826 0.664666 -4
      vertex 12.6826 -0.664666 -4
    endloop
  endfacet
  facet normal 0 0 -1
    outer loop
      vertex 12.5436 -1.98672 -4
      vertex 12.5436 1.98672 -4
      vertex 12.6826 0.664666 -4
    endloop
  endfacet
  facet normal 0 0 -1
    outer loop
      vertex 12.2673 -3.287 -4
      vertex 12.5436 1.98672 -4
      vertex 12.5436 -1.98672 -4
    endloop
  endfacet
  facet normal 0 0 -1
    outer loop
      vertex 12.2673 -3.287 -4
      vertex 12.2673 3.287 -4
      vertex 12.5436 1.98672 -4
    endloop
  endfacet
  facet normal 0 0 -1
    outer loop
      vertex 11.8565 -4.55127 -4
      vertex 12.2673 3.287 -4
      vertex 12.2673 -3.287 -4
    endloop
  endfacet
  facet normal 0 0 -1
    outer loop
      vertex 11.8565 -4.55127 -4
      vertex 11.8565 4.55127 -4
      vertex 12.2673 3.287 -4
    endloop
  endfacet
  facet normal 0 0 -1
    outer loop
      vertex 11.3158 -5.76568 -4
      vertex 11.8565 4.55127 -4
      vertex 11.8565 -4.55127 -4
    endloop
  endfacet
  facet normal 0 0 -1
    outer loop
      vertex 11.3158 -5.76568 -4
      vertex 11.3158 5.76568 -4
      vertex 11.8565 4.55127 -4
    endloop
  endfacet
  facet normal 0 0 -1
    outer loop
      vertex 10.6511 -6.91691 -4
      vertex 11.3158 5.76568 -4
      vertex 11.3158 -5.76568 -4
    endloop
  endfacet
  facet normal 0 0 -1
    outer loop
      vertex 10.6511 -6.91691 -4
      vertex 10.6511 6.91691 -4
      vertex 11.3158 5.76568 -4
    endloop
  endfacet
  facet normal 0 0 -1
    outer loop
      vertex 9.86975 -7.99237 -4
      vertex 10.6511 6.91691 -4
      vertex 10.6511 -6.91691 -4
    endloop
  endfacet
  facet normal 0 0 -1
    outer loop
      vertex 9.86975 -7.99237 -4
      vertex 9.86975 7.99237 -4
      vertex 10.6511 6.91691 -4
    endloop
  endfacet
  facet normal 0 0 -1
    outer loop
      vertex 8.98026 -8.98026 -4
      vertex 9.86975 7.99237 -4
      vertex 9.86975 -7.99237 -4
    endloop
  endfacet
  facet normal 0 0 -1
    outer loop
      vertex 8.98026 -8.98026 -4
      vertex 8.98026 8.98026 -4
      vertex 9.86975 7.99237 -4
    endloop
  endfacet
  facet normal 0 0 -1
    outer loop
      vertex 7.99237 -9.86975 -4
      vertex 8.98026 8.98026 -4
      vertex 8.98026 -8.98026 -4
    endloop
  endfacet
  facet normal 0 0 -1
    outer loop
      vertex 7.99237 -9.86975 -4
      vertex 7.99237 9.86975 -4
      vertex 8.98026 8.98026 -4
    endloop
  endfacet
  facet normal 0 0 -1
    outer loop
      vertex 6.91691 -10.6511 -4
      vertex 7.99237 9.86975 -4
      vertex 7.99237 -9.86975 -4
    endloop
  endfacet
  facet normal 0 0 -1
    outer loop
      vertex 6.91691 -10.6511 -4
      vertex 6.91691 10.6511 -4
      vertex 7.99237 9.86975 -4
    endloop
  endfacet
  facet normal 0 0 -1
    outer loop
      vertex 5.76568 -11.3158 -4
      vertex 6.91691 10.6511 -4
      vertex 6.91691 -10.6511 -4
    endloop
  endfacet
  facet normal 0 0 -1
    outer loop
      vertex 5.76568 -11.3158 -4
      vertex 5.76568 11.3158 -4
      vertex 6.91691 10.6511 -4
    endloop
  endfacet
  facet normal 0 0 -1
    outer loop
      vertex 4.55127 -11.8565 -4
      vertex 5.76568 11.3158 -4
      vertex 5.76568 -11.3158 -4
    endloop
  endfacet
  facet normal 0 0 -1
    outer loop
      vertex 4.55127 -11.8565 -4
      vertex 4.55127 11.8565 -4
      vertex 5.76568 11.3158 -4
    endloop
  endfacet
  facet normal 0 0 -1
    outer loop
      vertex 3.287 -12.2673 -4
      vertex 4.55127 11.8565 -4
      vertex 4.55127 -11.8565 -4
    endloop
  endfacet
  facet normal 0 0 -1
    outer loop
      vertex 3.287 -12.2673 -4
      vertex 3.287 12.2673 -4
      vertex 4.55127 11.8565 -4
    endloop
  endfacet
  facet normal 0 0 -1
    outer loop
      vertex 1.98672 -12.5436 -4
      vertex 3.287 12.2673 -4
      vertex 3.287 -12.2673 -4
    endloop
  endfacet
  facet normal 0 0 -1
    outer loop
      vertex 1.98672 -12.5436 -4
      vertex 1.98672 12.5436 -4
      vertex 3.287 12.2673 -4
    endloop
  endfacet
  facet normal 0 0 -1
    outer loop
      vertex 0.664666 -12.6826 -4
      vertex 1.98672 12.5436 -4
      vertex 1.98672 -12.5436 -4
    endloop
  endfacet
  facet normal 0 0 -1
    outer loop
      vertex 0.664666 -12.6826 -4
      vertex 0.664666 12.6826 -4
      vertex 1.98672 12.5436 -4
    endloop
  endfacet
  facet normal 0 0 -1
    outer loop
      vertex -0.664666 -12.6826 -4
      vertex 0.664666 12.6826 -4
      vertex 0.664666 -12.6826 -4
    endloop
  endfacet
  facet normal 0 0 -1
    outer loop
      vertex -0.664666 -12.6826 -4
      vertex -0.664666 12.6826 -4
      vertex 0.664666 12.6826 -4
    endloop
  endfacet
  facet normal 0 0 -1
    outer loop
      vertex -1.98672 -12.5436 -4
      vertex -0.664666 12.6826 -4
      vertex -0.664666 -12.6826 -4
    endloop
  endfacet
  facet normal 0 0 -1
    outer loop
      vertex -1.98672 -12.5436 -4
      vertex -1.98672 12.5436 -4
      vertex -0.664666 12.6826 -4
    endloop
  endfacet
  facet normal 0 0 -1
    outer loop
      vertex -3.287 -12.2673 -4
      vertex -1.98672 12.5436 -4
      vertex -1.98672 -12.5436 -4
    endloop
  endfacet
  facet normal 0 0 -1
    outer loop
      vertex -3.287 -12.2673 -4
      vertex -3.287 12.2673 -4
      vertex -1.98672 12.5436 -4
    endloop
  endfacet
  facet normal 0 0 -1
    outer loop
      vertex -4.55127 -11.8565 -4
      vertex -3.287 12.2673 -4
      vertex -3.287 -12.2673 -4
    endloop
  endfacet
  facet normal 0 0 -1
    outer loop
      vertex -4.55127 -11.8565 -4
      vertex -4.55127 11.8565 -4
      vertex -3.287 12.2673 -4
    endloop
  endfacet
  facet normal 0 0 -1
    outer loop
      vertex -5.76568 -11.3158 -4
      vertex -4.55127 11.8565 -4
      vertex -4.55127 -11.8565 -4
    endloop
  endfacet
  facet normal 0 0 -1
    outer loop
      vertex -5.76568 -11.3158 -4
      vertex -5.76568 11.3158 -4
      vertex -4.55127 11.8565 -4
    endloop
  endfacet
  facet normal 0 0 -1
    outer loop
      vertex -6.91691 -10.6511 -4
      vertex -5.76568 11.3158 -4
      vertex -5.76568 -11.3158 -4
    endloop
  endfacet
  facet normal 0 0 -1
    outer loop
      vertex -6.91691 -10.6511 -4
      vertex -6.91691 10.6511 -4
      vertex -5.76568 11.3158 -4
    endloop
  endfacet
  facet normal 0 0 -1
    outer loop
      vertex -7.99237 -9.86975 -4
      vertex -6.91691 10.6511 -4
      vertex -6.91691 -10.6511 -4
    endloop
  endfacet
  facet normal 0 0 -1
    outer loop
      vertex -7.99237 -9.86975 -4
      vertex -7.99237 9.86975 -4
      vertex -6.91691 10.6511 -4
    endloop
  endfacet
  facet normal 0 0 -1
    outer loop
      vertex -8.98026 -8.98026 -4
      vertex -7.99237 9.86975 -4
      vertex -7.99237 -9.86975 -4
    endloop
  endfacet
  facet normal 0 0 -1
    outer loop
      vertex -8.98026 -8.98026 -4
      vertex -8.98026 8.98026 -4
      vertex -7.99237 9.86975 -4
    endloop
  endfacet
  facet normal 0 0 -1
    outer loop
      vertex -9.86975 -7.99237 -4
      vertex -8.98026 8.98026 -4
      vertex -8.98026 -8.98026 -4
    endloop
  endfacet
  facet normal 0 0 -1
    outer loop
      vertex -9.86975 -7.99237 -4
      vertex -9.86975 7.99237 -4
      vertex -8.98026 8.98026 -4
    endloop
  endfacet
  facet normal 0 0 -1
    outer loop
      vertex -10.6511 -6.91691 -4
      vertex -9.86975 7.99237 -4
      vertex -9.86975 -7.99237 -4
    endloop
  endfacet
  facet normal 0 0 -1
    outer loop
      vertex -10.6511 -6.91691 -4
      vertex -10.6511 6.91691 -4
      vertex -9.86975 7.99237 -4
    endloop
  endfacet
  facet normal 0 0 -1
    outer loop
      vertex -11.3158 -5.76568 -4
      vertex -10.6511 6.91691 -4
      vertex -10.6511 -6.91691 -4
    endloop
  endfacet
  facet normal 0 0 -1
    outer loop
      vertex -11.3158 -5.76568 -4
      vertex -11.3158 5.76568 -4
      vertex -10.6511 6.91691 -4
    endloop
  endfacet
  facet normal 0 0 -1
    outer loop
      vertex -11.8565 -4.55127 -4
      vertex -11.3158 5.76568 -4
      vertex -11.3158 -5.76568 -4
    endloop
  endfacet
  facet normal 0 0 -1
    outer loop
      vertex -11.8565 -4.55127 -4
      vertex -11.8565 4.55127 -4
      vertex -11.3158 5.76568 -4
    endloop
  endfacet
  facet normal 0 0 -1
    outer loop
      vertex -12.2673 -3.287 -4
      vertex -11.8565 4.55127 -4
      vertex -11.8565 -4.55127 -4
    endloop
  endfacet
  facet normal 0 0 -1
    outer loop
      vertex -12.2673 -3.287 -4
      vertex -12.2673 3.287 -4
      vertex -11.8565 4.55127 -4
    endloop
  endfacet
  facet normal 0 0 -1
    outer loop
      vertex -12.5436 -1.98672 -4
      vertex -12.2673 3.287 -4
      vertex -12.2673 -3.287 -4
    endloop
  endfacet
  facet normal 0 0 -1
    outer loop
      vertex -12.5436 -1.98672 -4
      vertex -12.5436 1.98672 -4
      vertex -12.2673 3.287 -4
    endloop
  endfacet
  facet normal 0 0 -1
    outer loop
      vertex -12.6826 -0.664666 -4
      vertex -12.5436 1.98672 -4
      vertex -12.5436 -1.98672 -4
    endloop
  endfacet
  facet normal 0 0 -1
    outer loop
      vertex -12.5436 1.98672 -4
      vertex -12.6826 -0.664666 -4
      vertex -12.6826 0.664666 -4
    endloop
  endfacet
  facet normal -0.5 -0.866025 0
    outer loop
      vertex -6.91691 -10.6511 -4
      vertex -5.76568 -11.3158 0
      vertex -6.91691 -10.6511 0
    endloop
  endfacet
  facet normal -0.5 -0.866025 -0
    outer loop
      vertex -5.76568 -11.3158 0
      vertex -6.91691 -10.6511 -4
      vertex -5.76568 -11.3158 -4
    endloop
  endfacet
  facet normal -0.587785 -0.809017 0
    outer loop
      vertex -7.99237 -9.86975 -4
      vertex -6.91691 -10.6511 0
      vertex -7.99237 -9.86975 0
    endloop
  endfacet
  facet normal -0.587785 -0.809017 -0
    outer loop
      vertex -6.91691 -10.6511 0
      vertex -7.99237 -9.86975 -4
      vertex -6.91691 -10.6511 -4
    endloop
  endfacet
  facet normal -0.406737 -0.913545 0
    outer loop
      vertex -5.76568 -11.3158 -4
      vertex -4.55127 -11.8565 0
      vertex -5.76568 -11.3158 0
    endloop
  endfacet
  facet normal -0.406737 -0.913545 -0
    outer loop
      vertex -4.55127 -11.8565 0
      vertex -5.76568 -11.3158 -4
      vertex -4.55127 -11.8565 -4
    endloop
  endfacet
  facet normal -0.809017 -0.587785 0
    outer loop
      vertex -9.86975 -7.99237 -4
      vertex -10.6511 -6.91691 0
      vertex -10.6511 -6.91691 -4
    endloop
  endfacet
  facet normal -0.809017 -0.587785 0
    outer loop
      vertex -10.6511 -6.91691 0
      vertex -9.86975 -7.99237 -4
      vertex -9.86975 -7.99237 0
    endloop
  endfacet
  facet normal -0.743145 -0.66913 0
    outer loop
      vertex -8.98026 -8.98026 -4
      vertex -9.86975 -7.99237 0
      vertex -9.86975 -7.99237 -4
    endloop
  endfacet
  facet normal -0.743145 -0.66913 0
    outer loop
      vertex -9.86975 -7.99237 0
      vertex -8.98026 -8.98026 -4
      vertex -8.98026 -8.98026 0
    endloop
  endfacet
  facet normal -0.866025 -0.5 0
    outer loop
      vertex -10.6511 -6.91691 -4
      vertex -11.3158 -5.76568 0
      vertex -11.3158 -5.76568 -4
    endloop
  endfacet
  facet normal -0.866025 -0.5 0
    outer loop
      vertex -11.3158 -5.76568 0
      vertex -10.6511 -6.91691 -4
      vertex -10.6511 -6.91691 0
    endloop
  endfacet
  facet normal -0.207911 -0.978148 0
    outer loop
      vertex -3.287 -12.2673 -4
      vertex -1.98672 -12.5436 0
      vertex -3.287 -12.2673 0
    endloop
  endfacet
  facet normal -0.207911 -0.978148 -0
    outer loop
      vertex -1.98672 -12.5436 0
      vertex -3.287 -12.2673 -4
      vertex -1.98672 -12.5436 -4
    endloop
  endfacet
  facet normal 0 -1 0
    outer loop
      vertex -0.664666 -12.6826 -4
      vertex 0.664666 -12.6826 0
      vertex -0.664666 -12.6826 0
    endloop
  endfacet
  facet normal 0 -1 -0
    outer loop
      vertex 0.664666 -12.6826 0
      vertex -0.664666 -12.6826 -4
      vertex 0.664666 -12.6826 -4
    endloop
  endfacet
  facet normal 0.104528 -0.994522 0
    outer loop
      vertex 0.664666 -12.6826 -4
      vertex 1.98672 -12.5436 0
      vertex 0.664666 -12.6826 0
    endloop
  endfacet
  facet normal 0.104528 -0.994522 0
    outer loop
      vertex 1.98672 -12.5436 0
      vertex 0.664666 -12.6826 -4
      vertex 1.98672 -12.5436 -4
    endloop
  endfacet
  facet normal 0.309017 -0.951056 0
    outer loop
      vertex 3.287 -12.2673 -4
      vertex 4.55127 -11.8565 0
      vertex 3.287 -12.2673 0
    endloop
  endfacet
  facet normal 0.309017 -0.951056 0
    outer loop
      vertex 4.55127 -11.8565 0
      vertex 3.287 -12.2673 -4
      vertex 4.55127 -11.8565 -4
    endloop
  endfacet
  facet normal 0.207911 -0.978148 0
    outer loop
      vertex 1.98672 -12.5436 -4
      vertex 3.287 -12.2673 0
      vertex 1.98672 -12.5436 0
    endloop
  endfacet
  facet normal 0.207911 -0.978148 0
    outer loop
      vertex 3.287 -12.2673 0
      vertex 1.98672 -12.5436 -4
      vertex 3.287 -12.2673 -4
    endloop
  endfacet
  facet normal 0.66913 -0.743145 0
    outer loop
      vertex 7.99237 -9.86975 -4
      vertex 8.98026 -8.98026 0
      vertex 7.99237 -9.86975 0
    endloop
  endfacet
  facet normal 0.66913 -0.743145 0
    outer loop
      vertex 8.98026 -8.98026 0
      vertex 7.99237 -9.86975 -4
      vertex 8.98026 -8.98026 -4
    endloop
  endfacet
  facet normal 0.5 -0.866025 0
    outer loop
      vertex 5.76568 -11.3158 -4
      vertex 6.91691 -10.6511 0
      vertex 5.76568 -11.3158 0
    endloop
  endfacet
  facet normal 0.5 -0.866025 0
    outer loop
      vertex 6.91691 -10.6511 0
      vertex 5.76568 -11.3158 -4
      vertex 6.91691 -10.6511 -4
    endloop
  endfacet
  facet normal 0.587785 -0.809017 0
    outer loop
      vertex 6.91691 -10.6511 -4
      vertex 7.99237 -9.86975 0
      vertex 6.91691 -10.6511 0
    endloop
  endfacet
  facet normal 0.587785 -0.809017 0
    outer loop
      vertex 7.99237 -9.86975 0
      vertex 6.91691 -10.6511 -4
      vertex 7.99237 -9.86975 -4
    endloop
  endfacet
  facet normal 0.809017 -0.587785 0
    outer loop
      vertex 9.86975 -7.99237 0
      vertex 10.6511 -6.91691 -4
      vertex 10.6511 -6.91691 0
    endloop
  endfacet
  facet normal 0.809017 -0.587785 0
    outer loop
      vertex 10.6511 -6.91691 -4
      vertex 9.86975 -7.99237 0
      vertex 9.86975 -7.99237 -4
    endloop
  endfacet
  facet normal 0.743145 -0.66913 0
    outer loop
      vertex 8.98026 -8.98026 0
      vertex 9.86975 -7.99237 -4
      vertex 9.86975 -7.99237 0
    endloop
  endfacet
  facet normal 0.743145 -0.66913 0
    outer loop
      vertex 9.86975 -7.99237 -4
      vertex 8.98026 -8.98026 0
      vertex 8.98026 -8.98026 -4
    endloop
  endfacet
  facet normal 0.866025 -0.5 0
    outer loop
      vertex 10.6511 -6.91691 0
      vertex 11.3158 -5.76568 -4
      vertex 11.3158 -5.76568 0
    endloop
  endfacet
  facet normal 0.866025 -0.5 0
    outer loop
      vertex 11.3158 -5.76568 -4
      vertex 10.6511 -6.91691 0
      vertex 10.6511 -6.91691 -4
    endloop
  endfacet
  facet normal 0 1 -0
    outer loop
      vertex 0.664666 12.6826 -4
      vertex -0.664666 12.6826 0
      vertex 0.664666 12.6826 0
    endloop
  endfacet
  facet normal 0 1 0
    outer loop
      vertex -0.664666 12.6826 0
      vertex 0.664666 12.6826 -4
      vertex -0.664666 12.6826 -4
    endloop
  endfacet
  facet normal -0.866025 0.5 0
    outer loop
      vertex -11.3158 5.76568 -4
      vertex -10.6511 6.91691 0
      vertex -10.6511 6.91691 -4
    endloop
  endfacet
  facet normal -0.866025 0.5 0
    outer loop
      vertex -10.6511 6.91691 0
      vertex -11.3158 5.76568 -4
      vertex -11.3158 5.76568 0
    endloop
  endfacet
  facet normal -0.309017 0.951056 0
    outer loop
      vertex -3.287 12.2673 -4
      vertex -4.55127 11.8565 0
      vertex -3.287 12.2673 0
    endloop
  endfacet
  facet normal -0.309017 0.951056 0
    outer loop
      vertex -4.55127 11.8565 0
      vertex -3.287 12.2673 -4
      vertex -4.55127 11.8565 -4
    endloop
  endfacet
  facet normal -0.406737 0.913545 0
    outer loop
      vertex -4.55127 11.8565 -4
      vertex -5.76568 11.3158 0
      vertex -4.55127 11.8565 0
    endloop
  endfacet
  facet normal -0.406737 0.913545 0
    outer loop
      vertex -5.76568 11.3158 0
      vertex -4.55127 11.8565 -4
      vertex -5.76568 11.3158 -4
    endloop
  endfacet
  facet normal 0.866025 0.5 0
    outer loop
      vertex 11.3158 5.76568 0
      vertex 10.6511 6.91691 -4
      vertex 10.6511 6.91691 0
    endloop
  endfacet
  facet normal 0.866025 0.5 0
    outer loop
      vertex 10.6511 6.91691 -4
      vertex 11.3158 5.76568 0
      vertex 11.3158 5.76568 -4
    endloop
  endfacet
  facet normal -0.978148 -0.207911 0
    outer loop
      vertex -12.2673 -3.287 -4
      vertex -12.5436 -1.98672 0
      vertex -12.5436 -1.98672 -4
    endloop
  endfacet
  facet normal -0.978148 -0.207911 0
    outer loop
      vertex -12.5436 -1.98672 0
      vertex -12.2673 -3.287 -4
      vertex -12.2673 -3.287 0
    endloop
  endfacet
  facet normal -0.309017 -0.951056 0
    outer loop
      vertex -4.55127 -11.8565 -4
      vertex -3.287 -12.2673 0
      vertex -4.55127 -11.8565 0
    endloop
  endfacet
  facet normal -0.309017 -0.951056 -0
    outer loop
      vertex -3.287 -12.2673 0
      vertex -4.55127 -11.8565 -4
      vertex -3.287 -12.2673 -4
    endloop
  endfacet
  facet normal -0.104528 -0.994522 0
    outer loop
      vertex -1.98672 -12.5436 -4
      vertex -0.664666 -12.6826 0
      vertex -1.98672 -12.5436 0
    endloop
  endfacet
  facet normal -0.104528 -0.994522 -0
    outer loop
      vertex -0.664666 -12.6826 0
      vertex -1.98672 -12.5436 -4
      vertex -0.664666 -12.6826 -4
    endloop
  endfacet
  facet normal 0.913545 -0.406737 0
    outer loop
      vertex 11.3158 -5.76568 0
      vertex 11.8565 -4.55127 -4
      vertex 11.8565 -4.55127 0
    endloop
  endfacet
  facet normal 0.913545 -0.406737 0
    outer loop
      vertex 11.8565 -4.55127 -4
      vertex 11.3158 -5.76568 0
      vertex 11.3158 -5.76568 -4
    endloop
  endfacet
  facet normal -0.913545 0.406737 0
    outer loop
      vertex -11.8565 4.55127 -4
      vertex -11.3158 5.76568 0
      vertex -11.3158 5.76568 -4
    endloop
  endfacet
  facet normal -0.913545 0.406737 0
    outer loop
      vertex -11.3158 5.76568 0
      vertex -11.8565 4.55127 -4
      vertex -11.8565 4.55127 0
    endloop
  endfacet
  facet normal -0.809017 0.587785 0
    outer loop
      vertex -10.6511 6.91691 -4
      vertex -9.86975 7.99237 0
      vertex -9.86975 7.99237 -4
    endloop
  endfacet
  facet normal -0.809017 0.587785 0
    outer loop
      vertex -9.86975 7.99237 0
      vertex -10.6511 6.91691 -4
      vertex -10.6511 6.91691 0
    endloop
  endfacet
  facet normal -0.587785 0.809017 0
    outer loop
      vertex -6.91691 10.6511 -4
      vertex -7.99237 9.86975 0
      vertex -6.91691 10.6511 0
    endloop
  endfacet
  facet normal -0.587785 0.809017 0
    outer loop
      vertex -7.99237 9.86975 0
      vertex -6.91691 10.6511 -4
      vertex -7.99237 9.86975 -4
    endloop
  endfacet
  facet normal -0.743145 0.66913 0
    outer loop
      vertex -9.86975 7.99237 -4
      vertex -8.98026 8.98026 0
      vertex -8.98026 8.98026 -4
    endloop
  endfacet
  facet normal -0.743145 0.66913 0
    outer loop
      vertex -8.98026 8.98026 0
      vertex -9.86975 7.99237 -4
      vertex -9.86975 7.99237 0
    endloop
  endfacet
  facet normal -0.66913 0.743145 0
    outer loop
      vertex -7.99237 9.86975 -4
      vertex -8.98026 8.98026 0
      vertex -7.99237 9.86975 0
    endloop
  endfacet
  facet normal -0.66913 0.743145 0
    outer loop
      vertex -8.98026 8.98026 0
      vertex -7.99237 9.86975 -4
      vertex -8.98026 8.98026 -4
    endloop
  endfacet
  facet normal -0.207911 0.978148 0
    outer loop
      vertex -1.98672 12.5436 -4
      vertex -3.287 12.2673 0
      vertex -1.98672 12.5436 0
    endloop
  endfacet
  facet normal -0.207911 0.978148 0
    outer loop
      vertex -3.287 12.2673 0
      vertex -1.98672 12.5436 -4
      vertex -3.287 12.2673 -4
    endloop
  endfacet
  facet normal -0.104528 0.994522 0
    outer loop
      vertex -0.664666 12.6826 -4
      vertex -1.98672 12.5436 0
      vertex -0.664666 12.6826 0
    endloop
  endfacet
  facet normal -0.104528 0.994522 0
    outer loop
      vertex -1.98672 12.5436 0
      vertex -0.664666 12.6826 -4
      vertex -1.98672 12.5436 -4
    endloop
  endfacet
  facet normal 0.104528 0.994522 -0
    outer loop
      vertex 1.98672 12.5436 -4
      vertex 0.664666 12.6826 0
      vertex 1.98672 12.5436 0
    endloop
  endfacet
  facet normal 0.104528 0.994522 0
    outer loop
      vertex 0.664666 12.6826 0
      vertex 1.98672 12.5436 -4
      vertex 0.664666 12.6826 -4
    endloop
  endfacet
  facet normal 0.207911 0.978148 -0
    outer loop
      vertex 3.287 12.2673 -4
      vertex 1.98672 12.5436 0
      vertex 3.287 12.2673 0
    endloop
  endfacet
  facet normal 0.207911 0.978148 0
    outer loop
      vertex 1.98672 12.5436 0
      vertex 3.287 12.2673 -4
      vertex 1.98672 12.5436 -4
    endloop
  endfacet
  facet normal 0.5 0.866025 -0
    outer loop
      vertex 6.91691 10.6511 -4
      vertex 5.76568 11.3158 0
      vertex 6.91691 10.6511 0
    endloop
  endfacet
  facet normal 0.5 0.866025 0
    outer loop
      vertex 5.76568 11.3158 0
      vertex 6.91691 10.6511 -4
      vertex 5.76568 11.3158 -4
    endloop
  endfacet
  facet normal 0.406737 0.913545 -0
    outer loop
      vertex 5.76568 11.3158 -4
      vertex 4.55127 11.8565 0
      vertex 5.76568 11.3158 0
    endloop
  endfacet
  facet normal 0.406737 0.913545 0
    outer loop
      vertex 4.55127 11.8565 0
      vertex 5.76568 11.3158 -4
      vertex 4.55127 11.8565 -4
    endloop
  endfacet
  facet normal 0.587785 0.809017 -0
    outer loop
      vertex 7.99237 9.86975 -4
      vertex 6.91691 10.6511 0
      vertex 7.99237 9.86975 0
    endloop
  endfacet
  facet normal 0.587785 0.809017 0
    outer loop
      vertex 6.91691 10.6511 0
      vertex 7.99237 9.86975 -4
      vertex 6.91691 10.6511 -4
    endloop
  endfacet
  facet normal 0.309017 0.951056 -0
    outer loop
      vertex 4.55127 11.8565 -4
      vertex 3.287 12.2673 0
      vertex 4.55127 11.8565 0
    endloop
  endfacet
  facet normal 0.309017 0.951056 0
    outer loop
      vertex 3.287 12.2673 0
      vertex 4.55127 11.8565 -4
      vertex 3.287 12.2673 -4
    endloop
  endfacet
  facet normal 0.951056 0.309017 0
    outer loop
      vertex 12.2673 3.287 0
      vertex 11.8565 4.55127 -4
      vertex 11.8565 4.55127 0
    endloop
  endfacet
  facet normal 0.951056 0.309017 0
    outer loop
      vertex 11.8565 4.55127 -4
      vertex 12.2673 3.287 0
      vertex 12.2673 3.287 -4
    endloop
  endfacet
  facet normal 0.978148 0.207911 0
    outer loop
      vertex 12.5436 1.98672 0
      vertex 12.2673 3.287 -4
      vertex 12.2673 3.287 0
    endloop
  endfacet
  facet normal 0.978148 0.207911 0
    outer loop
      vertex 12.2673 3.287 -4
      vertex 12.5436 1.98672 0
      vertex 12.5436 1.98672 -4
    endloop
  endfacet
  facet normal 1 -0 0
    outer loop
      vertex 12.6826 -0.664666 0
      vertex 12.6826 0.664666 -4
      vertex 12.6826 0.664666 0
    endloop
  endfacet
  facet normal 1 0 0
    outer loop
      vertex 12.6826 0.664666 -4
      vertex 12.6826 -0.664666 0
      vertex 12.6826 -0.664666 -4
    endloop
  endfacet
  facet normal 0.66913 0.743145 -0
    outer loop
      vertex 8.98026 8.98026 -4
      vertex 7.99237 9.86975 0
      vertex 8.98026 8.98026 0
    endloop
  endfacet
  facet normal 0.66913 0.743145 0
    outer loop
      vertex 7.99237 9.86975 0
      vertex 8.98026 8.98026 -4
      vertex 7.99237 9.86975 -4
    endloop
  endfacet
  facet normal 0.994522 0.104528 0
    outer loop
      vertex 12.6826 0.664666 0
      vertex 12.5436 1.98672 -4
      vertex 12.5436 1.98672 0
    endloop
  endfacet
  facet normal 0.994522 0.104528 0
    outer loop
      vertex 12.5436 1.98672 -4
      vertex 12.6826 0.664666 0
      vertex 12.6826 0.664666 -4
    endloop
  endfacet
  facet normal 0.743145 0.66913 0
    outer loop
      vertex 9.86975 7.99237 0
      vertex 8.98026 8.98026 -4
      vertex 8.98026 8.98026 0
    endloop
  endfacet
  facet normal 0.743145 0.66913 0
    outer loop
      vertex 8.98026 8.98026 -4
      vertex 9.86975 7.99237 0
      vertex 9.86975 7.99237 -4
    endloop
  endfacet
  facet normal 0.809017 0.587785 0
    outer loop
      vertex 10.6511 6.91691 0
      vertex 9.86975 7.99237 -4
      vertex 9.86975 7.99237 0
    endloop
  endfacet
  facet normal 0.809017 0.587785 0
    outer loop
      vertex 9.86975 7.99237 -4
      vertex 10.6511 6.91691 0
      vertex 10.6511 6.91691 -4
    endloop
  endfacet
  facet normal 0 0 1
    outer loop
      vertex 1.20456 7.60518 4
      vertex 3.09175 12.3088 4
      vertex 1.98673 12.5436 4
    endloop
  endfacet
  facet normal 0 0 1
    outer loop
      vertex 3.09175 12.3088 4
      vertex 1.20456 7.60518 4
      vertex 1.87452 7.46279 4
    endloop
  endfacet
  facet normal 0 0 1
    outer loop
      vertex 0.664671 12.6826 4
      vertex 1.20456 7.60518 4
      vertex 1.98673 12.5436 4
    endloop
  endfacet
  facet normal 0 0 1
    outer loop
      vertex 0.664671 12.6826 4
      vertex 0.402996 7.68943 4
      vertex 1.20456 7.60518 4
    endloop
  endfacet
  facet normal 0 0 1
    outer loop
      vertex 0.664671 12.6826 4
      vertex -0.402985 7.68943 4
      vertex 0.402996 7.68943 4
    endloop
  endfacet
  facet normal 0 0 1
    outer loop
      vertex -0.664666 12.6826 4
      vertex -0.402985 7.68943 4
      vertex 0.664671 12.6826 4
    endloop
  endfacet
  facet normal 0 0 1
    outer loop
      vertex -0.664666 12.6826 4
      vertex -1.20454 7.60519 4
      vertex -0.402985 7.68943 4
    endloop
  endfacet
  facet normal -0 0 1
    outer loop
      vertex -1.98671 12.5436 4
      vertex -1.20454 7.60519 4
      vertex -0.664666 12.6826 4
    endloop
  endfacet
  facet normal 0 0 1
    outer loop
      vertex -1.98671 12.5436 4
      vertex -1.9929 7.43761 4
      vertex -1.20454 7.60519 4
    endloop
  endfacet
  facet normal 0 -0 1
    outer loop
      vertex -1.9929 7.43761 4
      vertex -1.98671 12.5436 4
      vertex -3.28699 12.2673 4
    endloop
  endfacet
  facet normal 0 0 1
    outer loop
      vertex 7.18855 2.75943 4
      vertex 11.8565 4.55126 4
      vertex 11.3158 5.76568 4
    endloop
  endfacet
  facet normal 0 0 1
    outer loop
      vertex 6.86075 3.49572 4
      vertex 11.3158 5.76568 4
      vertex 10.6511 6.9169 4
    endloop
  endfacet
  facet normal 0 0 1
    outer loop
      vertex 6.45776 4.19372 4
      vertex 10.6511 6.9169 4
      vertex 9.86974 7.99236 4
    endloop
  endfacet
  facet normal 0 0 1
    outer loop
      vertex 5.98401 4.84575 4
      vertex 9.86974 7.99236 4
      vertex 8.98025 8.98026 4
    endloop
  endfacet
  facet normal 0 0 1
    outer loop
      vertex 10.6511 6.9169 4
      vertex 6.45776 4.19372 4
      vertex 6.86075 3.49572 4
    endloop
  endfacet
  facet normal 0 0 1
    outer loop
      vertex 12.2056 3.47685 4
      vertex 7.18855 2.75943 4
      vertex 7.40021 2.108 4
    endloop
  endfacet
  facet normal 0 0 1
    outer loop
      vertex 11.8565 4.55126 4
      vertex 7.18855 2.75943 4
      vertex 12.2056 3.47685 4
    endloop
  endfacet
  facet normal 0 -0 1
    outer loop
      vertex 7.18855 2.75943 4
      vertex 11.3158 5.76568 4
      vertex 6.86075 3.49572 4
    endloop
  endfacet
  facet normal 0 0 1
    outer loop
      vertex 9.86974 7.99236 4
      vertex 5.98401 4.84575 4
      vertex 6.45776 4.19372 4
    endloop
  endfacet
  facet normal 0 -0 1
    outer loop
      vertex 5.98401 4.84575 4
      vertex 8.98025 8.98026 4
      vertex 5.44471 5.44471 4
    endloop
  endfacet
  facet normal 0 0 1
    outer loop
      vertex -9.11382 8.8319 4
      vertex -5.98401 4.84576 4
      vertex -5.52569 5.35477 4
    endloop
  endfacet
  facet normal -0 0 1
    outer loop
      vertex -9.86975 7.99235 4
      vertex -5.98401 4.84576 4
      vertex -9.11382 8.8319 4
    endloop
  endfacet
  facet normal 0 0 1
    outer loop
      vertex -5.98401 4.84576 4
      vertex -9.86975 7.99235 4
      vertex -6.45775 4.19371 4
    endloop
  endfacet
  facet normal -0 0 1
    outer loop
      vertex -10.6511 6.91691 4
      vertex -6.45775 4.19371 4
      vertex -9.86975 7.99235 4
    endloop
  endfacet
  facet normal 0 0 1
    outer loop
      vertex -6.45775 4.19371 4
      vertex -10.6511 6.91691 4
      vertex -6.86074 3.49571 4
    endloop
  endfacet
  facet normal -0 0 1
    outer loop
      vertex -11.3158 5.76567 4
      vertex -6.86074 3.49571 4
      vertex -10.6511 6.91691 4
    endloop
  endfacet
  facet normal 0 0 1
    outer loop
      vertex -6.86074 3.49571 4
      vertex -11.3158 5.76567 4
      vertex -7.18856 2.75942 4
    endloop
  endfacet
  facet normal -0 0 1
    outer loop
      vertex -11.8565 4.55126 4
      vertex -7.18856 2.75942 4
      vertex -11.3158 5.76567 4
    endloop
  endfacet
  facet normal 0 0 1
    outer loop
      vertex -7.18856 2.75942 4
      vertex -11.8565 4.55126 4
      vertex -7.43763 1.99291 4
    endloop
  endfacet
  facet normal 0 0 1
    outer loop
      vertex -7.43763 1.99291 4
      vertex -11.8565 4.55126 4
      vertex -12.2673 3.287 4
    endloop
  endfacet
  facet normal 0 0 1
    outer loop
      vertex 7.18856 -2.75942 4
      vertex 11.8565 -4.55126 4
      vertex 12.2673 -3.287 4
    endloop
  endfacet
  facet normal 0 0 1
    outer loop
      vertex 11.8565 -4.55126 4
      vertex 7.18856 -2.75942 4
      vertex 11.3158 -5.76567 4
    endloop
  endfacet
  facet normal 0 0 1
    outer loop
      vertex 11.3158 -5.76567 4
      vertex 6.86074 -3.49571 4
      vertex 10.6511 -6.91691 4
    endloop
  endfacet
  facet normal -0 0 1
    outer loop
      vertex 6.45775 -4.19371 4
      vertex 10.6511 -6.91691 4
      vertex 6.86074 -3.49571 4
    endloop
  endfacet
  facet normal -0 0 1
    outer loop
      vertex 7.18856 -2.75942 4
      vertex 12.2673 -3.287 4
      vertex 7.43763 -1.99291 4
    endloop
  endfacet
  facet normal 0 0 1
    outer loop
      vertex 11.3158 -5.76567 4
      vertex 7.18856 -2.75942 4
      vertex 6.86074 -3.49571 4
    endloop
  endfacet
  facet normal 0 0 1
    outer loop
      vertex 10.6511 -6.91691 4
      vertex 6.45775 -4.19371 4
      vertex 9.86975 -7.99235 4
    endloop
  endfacet
  facet normal -0 0 1
    outer loop
      vertex 5.98401 -4.84576 4
      vertex 9.86975 -7.99235 4
      vertex 6.45775 -4.19371 4
    endloop
  endfacet
  facet normal 0 0 1
    outer loop
      vertex 9.86975 -7.99235 4
      vertex 5.98401 -4.84576 4
      vertex 9.11382 -8.8319 4
    endloop
  endfacet
  facet normal 0 0 1
    outer loop
      vertex 9.11382 -8.8319 4
      vertex 5.98401 -4.84576 4
      vertex 5.52569 -5.35477 4
    endloop
  endfacet
  facet normal 0 0 1
    outer loop
      vertex -5.98401 -4.84575 4
      vertex -8.98025 -8.98026 4
      vertex -5.44471 -5.44471 4
    endloop
  endfacet
  facet normal 0 0 1
    outer loop
      vertex -9.86974 -7.99236 4
      vertex -5.98401 -4.84575 4
      vertex -6.45776 -4.19372 4
    endloop
  endfacet
  facet normal 0 0 1
    outer loop
      vertex -10.6511 -6.9169 4
      vertex -6.45776 -4.19372 4
      vertex -6.86075 -3.49572 4
    endloop
  endfacet
  facet normal 0 0 1
    outer loop
      vertex -11.3158 -5.76568 4
      vertex -6.86075 -3.49572 4
      vertex -7.18855 -2.75943 4
    endloop
  endfacet
  facet normal 0 0 1
    outer loop
      vertex -12.2056 -3.47685 4
      vertex -7.18855 -2.75943 4
      vertex -7.40021 -2.108 4
    endloop
  endfacet
  facet normal 0 0 1
    outer loop
      vertex -5.98401 -4.84575 4
      vertex -9.86974 -7.99236 4
      vertex -8.98025 -8.98026 4
    endloop
  endfacet
  facet normal 0 0 1
    outer loop
      vertex -6.45776 -4.19372 4
      vertex -10.6511 -6.9169 4
      vertex -9.86974 -7.99236 4
    endloop
  endfacet
  facet normal 0 0 1
    outer loop
      vertex -6.86075 -3.49572 4
      vertex -11.3158 -5.76568 4
      vertex -10.6511 -6.9169 4
    endloop
  endfacet
  facet normal 0 0 1
    outer loop
      vertex -7.18855 -2.75943 4
      vertex -11.8565 -4.55126 4
      vertex -11.3158 -5.76568 4
    endloop
  endfacet
  facet normal 0 0 1
    outer loop
      vertex -7.18855 -2.75943 4
      vertex -12.2056 -3.47685 4
      vertex -11.8565 -4.55126 4
    endloop
  endfacet
  facet normal 0 0 1
    outer loop
      vertex 1.9929 -7.43761 4
      vertex 1.98671 -12.5436 4
      vertex 3.28699 -12.2673 4
    endloop
  endfacet
  facet normal -0 0 1
    outer loop
      vertex 1.20454 -7.60519 4
      vertex 1.98671 -12.5436 4
      vertex 1.9929 -7.43761 4
    endloop
  endfacet
  facet normal 0 0 1
    outer loop
      vertex 1.20454 -7.60519 4
      vertex 0.664666 -12.6826 4
      vertex 1.98671 -12.5436 4
    endloop
  endfacet
  facet normal -0 0 1
    outer loop
      vertex 0.402985 -7.68943 4
      vertex 0.664666 -12.6826 4
      vertex 1.20454 -7.60519 4
    endloop
  endfacet
  facet normal 0 0 1
    outer loop
      vertex -0.402996 -7.68943 4
      vertex 0.664666 -12.6826 4
      vertex 0.402985 -7.68943 4
    endloop
  endfacet
  facet normal 0 0 1
    outer loop
      vertex -0.402996 -7.68943 4
      vertex -0.664671 -12.6826 4
      vertex 0.664666 -12.6826 4
    endloop
  endfacet
  facet normal 0 0 1
    outer loop
      vertex -1.20456 -7.60518 4
      vertex -0.664671 -12.6826 4
      vertex -0.402996 -7.68943 4
    endloop
  endfacet
  facet normal 0 0 1
    outer loop
      vertex -3.09175 -12.3088 4
      vertex -1.20456 -7.60518 4
      vertex -1.87452 -7.46279 4
    endloop
  endfacet
  facet normal 0 0 1
    outer loop
      vertex -1.20456 -7.60518 4
      vertex -1.98673 -12.5436 4
      vertex -0.664671 -12.6826 4
    endloop
  endfacet
  facet normal 0 0 1
    outer loop
      vertex -1.20456 -7.60518 4
      vertex -3.09175 -12.3088 4
      vertex -1.98673 -12.5436 4
    endloop
  endfacet
  facet normal 0.104527 -0.994522 0
    outer loop
      vertex -1.20454 7.60519 0
      vertex -0.402985 7.68943 4
      vertex -1.20454 7.60519 4
    endloop
  endfacet
  facet normal 0.104527 -0.994522 0
    outer loop
      vertex -0.402985 7.68943 4
      vertex -1.20454 7.60519 0
      vertex -0.402985 7.68943 0
    endloop
  endfacet
  facet normal -1.18325e-06 -1 0
    outer loop
      vertex -0.402985 7.68943 0
      vertex 0.402996 7.68943 4
      vertex -0.402985 7.68943 4
    endloop
  endfacet
  facet normal -1.18325e-06 -1 -0
    outer loop
      vertex 0.402996 7.68943 4
      vertex -0.402985 7.68943 0
      vertex 0.402996 7.68943 0
    endloop
  endfacet
  facet normal -0.104526 -0.994522 0
    outer loop
      vertex 0.402996 7.68943 0
      vertex 1.20456 7.60518 4
      vertex 0.402996 7.68943 4
    endloop
  endfacet
  facet normal -0.104526 -0.994522 -0
    outer loop
      vertex 1.20456 7.60518 4
      vertex 0.402996 7.68943 0
      vertex 1.20456 7.60518 0
    endloop
  endfacet
  facet normal -0.207896 -0.978151 0
    outer loop
      vertex 1.20456 7.60518 0
      vertex 1.87452 7.46279 4
      vertex 1.20456 7.60518 4
    endloop
  endfacet
  facet normal -0.207896 -0.978151 -0
    outer loop
      vertex 1.87452 7.46279 4
      vertex 1.20456 7.60518 0
      vertex 1.87452 7.46279 0
    endloop
  endfacet
  facet normal 0.969872 -0.243616 0
    outer loop
      vertex 1.87452 7.46279 4
      vertex 3.09175 12.3088 0
      vertex 3.09175 12.3088 4
    endloop
  endfacet
  facet normal 0.969872 -0.243616 0
    outer loop
      vertex 3.09175 12.3088 0
      vertex 1.87452 7.46279 4
      vertex 1.87452 7.46279 0
    endloop
  endfacet
  facet normal 0.207908 0.978148 -0
    outer loop
      vertex 3.09175 12.3088 0
      vertex 1.98673 12.5436 4
      vertex 3.09175 12.3088 4
    endloop
  endfacet
  facet normal 0.207908 0.978148 0
    outer loop
      vertex 1.98673 12.5436 4
      vertex 3.09175 12.3088 0
      vertex 1.98673 12.5436 0
    endloop
  endfacet
  facet normal 0.104534 0.994521 -0
    outer loop
      vertex 1.98673 12.5436 0
      vertex 0.664671 12.6826 4
      vertex 1.98673 12.5436 4
    endloop
  endfacet
  facet normal 0.104534 0.994521 0
    outer loop
      vertex 0.664671 12.6826 4
      vertex 1.98673 12.5436 0
      vertex 0.664671 12.6826 0
    endloop
  endfacet
  facet normal 2.15222e-06 1 -0
    outer loop
      vertex 0.664671 12.6826 0
      vertex -0.664666 12.6826 4
      vertex 0.664671 12.6826 4
    endloop
  endfacet
  facet normal 2.15222e-06 1 0
    outer loop
      vertex -0.664666 12.6826 4
      vertex 0.664671 12.6826 0
      vertex -0.664666 12.6826 0
    endloop
  endfacet
  facet normal -0.104534 0.994521 0
    outer loop
      vertex -0.664666 12.6826 0
      vertex -1.98671 12.5436 4
      vertex -0.664666 12.6826 4
    endloop
  endfacet
  facet normal -0.104534 0.994521 0
    outer loop
      vertex -1.98671 12.5436 4
      vertex -0.664666 12.6826 0
      vertex -1.98671 12.5436 0
    endloop
  endfacet
  facet normal -0.207908 0.978148 0
    outer loop
      vertex -1.98671 12.5436 0
      vertex -3.28699 12.2673 4
      vertex -1.98671 12.5436 4
    endloop
  endfacet
  facet normal -0.207908 0.978148 0
    outer loop
      vertex -3.28699 12.2673 4
      vertex -1.98671 12.5436 0
      vertex -3.28699 12.2673 0
    endloop
  endfacet
  facet normal -0.965926 -0.258818 0
    outer loop
      vertex -1.9929 7.43761 0
      vertex -3.28699 12.2673 4
      vertex -3.28699 12.2673 0
    endloop
  endfacet
  facet normal -0.965926 -0.258818 0
    outer loop
      vertex -3.28699 12.2673 4
      vertex -1.9929 7.43761 0
      vertex -1.9929 7.43761 4
    endloop
  endfacet
  facet normal 0.207916 -0.978147 0
    outer loop
      vertex -1.9929 7.43761 0
      vertex -1.20454 7.60519 4
      vertex -1.9929 7.43761 4
    endloop
  endfacet
  facet normal 0.207916 -0.978147 0
    outer loop
      vertex -1.20454 7.60519 4
      vertex -1.9929 7.43761 0
      vertex -1.20454 7.60519 0
    endloop
  endfacet
  facet normal 0.951053 0.309027 0
    outer loop
      vertex 12.2056 3.47685 4
      vertex 11.8565 4.55126 0
      vertex 11.8565 4.55126 4
    endloop
  endfacet
  facet normal 0.951053 0.309027 0
    outer loop
      vertex 11.8565 4.55126 0
      vertex 12.2056 3.47685 4
      vertex 12.2056 3.47685 0
    endloop
  endfacet
  facet normal 0.913547 0.406733 0
    outer loop
      vertex 11.8565 4.55126 4
      vertex 11.3158 5.76568 0
      vertex 11.3158 5.76568 4
    endloop
  endfacet
  facet normal 0.913547 0.406733 0
    outer loop
      vertex 11.3158 5.76568 0
      vertex 11.8565 4.55126 4
      vertex 11.8565 4.55126 0
    endloop
  endfacet
  facet normal 0.866025 0.5 0
    outer loop
      vertex 11.3158 5.76568 4
      vertex 10.6511 6.9169 0
      vertex 10.6511 6.9169 4
    endloop
  endfacet
  facet normal 0.866025 0.5 0
    outer loop
      vertex 10.6511 6.9169 0
      vertex 11.3158 5.76568 4
      vertex 11.3158 5.76568 0
    endloop
  endfacet
  facet normal 0.809015 0.587788 0
    outer loop
      vertex 10.6511 6.9169 4
      vertex 9.86974 7.99236 0
      vertex 9.86974 7.99236 4
    endloop
  endfacet
  facet normal 0.809015 0.587788 0
    outer loop
      vertex 9.86974 7.99236 0
      vertex 10.6511 6.9169 4
      vertex 10.6511 6.9169 0
    endloop
  endfacet
  facet normal 0.743149 0.669126 0
    outer loop
      vertex 9.86974 7.99236 4
      vertex 8.98025 8.98026 0
      vertex 8.98025 8.98026 4
    endloop
  endfacet
  facet normal 0.743149 0.669126 0
    outer loop
      vertex 8.98025 8.98026 0
      vertex 9.86974 7.99236 4
      vertex 9.86974 7.99236 0
    endloop
  endfacet
  facet normal -0.707108 0.707106 0
    outer loop
      vertex 5.44471 5.44471 0
      vertex 8.98025 8.98026 4
      vertex 8.98025 8.98026 0
    endloop
  endfacet
  facet normal -0.707108 0.707106 0
    outer loop
      vertex 8.98025 8.98026 4
      vertex 5.44471 5.44471 0
      vertex 5.44471 5.44471 4
    endloop
  endfacet
  facet normal -0.743143 -0.669132 0
    outer loop
      vertex 5.98401 4.84575 0
      vertex 5.44471 5.44471 4
      vertex 5.44471 5.44471 0
    endloop
  endfacet
  facet normal -0.743143 -0.669132 0
    outer loop
      vertex 5.44471 5.44471 4
      vertex 5.98401 4.84575 0
      vertex 5.98401 4.84575 4
    endloop
  endfacet
  facet normal -0.80901 -0.587795 0
    outer loop
      vertex 6.45776 4.19372 0
      vertex 5.98401 4.84575 4
      vertex 5.98401 4.84575 0
    endloop
  endfacet
  facet normal -0.80901 -0.587795 0
    outer loop
      vertex 5.98401 4.84575 4
      vertex 6.45776 4.19372 0
      vertex 6.45776 4.19372 4
    endloop
  endfacet
  facet normal -0.866026 -0.5 0
    outer loop
      vertex 6.86075 3.49572 0
      vertex 6.45776 4.19372 4
      vertex 6.45776 4.19372 0
    endloop
  endfacet
  facet normal -0.866026 -0.5 0
    outer loop
      vertex 6.45776 4.19372 4
      vertex 6.86075 3.49572 0
      vertex 6.86075 3.49572 4
    endloop
  endfacet
  facet normal -0.91355 -0.406726 0
    outer loop
      vertex 7.18855 2.75943 0
      vertex 6.86075 3.49572 4
      vertex 6.86075 3.49572 0
    endloop
  endfacet
  facet normal -0.91355 -0.406726 0
    outer loop
      vertex 6.86075 3.49572 4
      vertex 7.18855 2.75943 0
      vertex 7.18855 2.75943 4
    endloop
  endfacet
  facet normal -0.951058 -0.309012 0
    outer loop
      vertex 7.40021 2.108 0
      vertex 7.18855 2.75943 4
      vertex 7.18855 2.75943 0
    endloop
  endfacet
  facet normal -0.951058 -0.309012 0
    outer loop
      vertex 7.18855 2.75943 4
      vertex 7.40021 2.108 0
      vertex 7.40021 2.108 4
    endloop
  endfacet
  facet normal 0.273959 -0.961741 0
    outer loop
      vertex 7.40021 2.108 0
      vertex 12.2056 3.47685 4
      vertex 7.40021 2.108 4
    endloop
  endfacet
  facet normal 0.273959 -0.961741 0
    outer loop
      vertex 12.2056 3.47685 4
      vertex 7.40021 2.108 0
      vertex 12.2056 3.47685 0
    endloop
  endfacet
  facet normal 0.913545 -0.406738 0
    outer loop
      vertex -7.18856 2.75942 4
      vertex -6.86074 3.49571 0
      vertex -6.86074 3.49571 4
    endloop
  endfacet
  facet normal 0.913545 -0.406738 0
    outer loop
      vertex -6.86074 3.49571 0
      vertex -7.18856 2.75942 4
      vertex -7.18856 2.75942 0
    endloop
  endfacet
  facet normal 0.866026 -0.499999 0
    outer loop
      vertex -6.86074 3.49571 4
      vertex -6.45775 4.19371 0
      vertex -6.45775 4.19371 4
    endloop
  endfacet
  facet normal 0.866026 -0.499999 0
    outer loop
      vertex -6.45775 4.19371 0
      vertex -6.86074 3.49571 4
      vertex -6.86074 3.49571 0
    endloop
  endfacet
  facet normal 0.809018 -0.587784 0
    outer loop
      vertex -6.45775 4.19371 4
      vertex -5.98401 4.84576 0
      vertex -5.98401 4.84576 4
    endloop
  endfacet
  facet normal 0.809018 -0.587784 0
    outer loop
      vertex -5.98401 4.84576 0
      vertex -6.45775 4.19371 4
      vertex -6.45775 4.19371 0
    endloop
  endfacet
  facet normal 0.743145 -0.669131 0
    outer loop
      vertex -5.98401 4.84576 4
      vertex -5.52569 5.35477 0
      vertex -5.52569 5.35477 4
    endloop
  endfacet
  facet normal 0.743145 -0.669131 0
    outer loop
      vertex -5.52569 5.35477 0
      vertex -5.98401 4.84576 4
      vertex -5.98401 4.84576 0
    endloop
  endfacet
  facet normal 0.695912 0.718127 -0
    outer loop
      vertex -5.52569 5.35477 0
      vertex -9.11382 8.8319 4
      vertex -5.52569 5.35477 4
    endloop
  endfacet
  facet normal 0.695912 0.718127 0
    outer loop
      vertex -9.11382 8.8319 4
      vertex -5.52569 5.35477 0
      vertex -9.11382 8.8319 0
    endloop
  endfacet
  facet normal -0.743148 0.669128 0
    outer loop
      vertex -9.86975 7.99235 0
      vertex -9.11382 8.8319 4
      vertex -9.11382 8.8319 0
    endloop
  endfacet
  facet normal -0.743148 0.669128 0
    outer loop
      vertex -9.11382 8.8319 4
      vertex -9.86975 7.99235 0
      vertex -9.86975 7.99235 4
    endloop
  endfacet
  facet normal -0.809013 0.58779 0
    outer loop
      vertex -10.6511 6.91691 0
      vertex -9.86975 7.99235 4
      vertex -9.86975 7.99235 0
    endloop
  endfacet
  facet normal -0.809013 0.58779 0
    outer loop
      vertex -9.86975 7.99235 4
      vertex -10.6511 6.91691 0
      vertex -10.6511 6.91691 4
    endloop
  endfacet
  facet normal -0.866027 0.499998 0
    outer loop
      vertex -11.3158 5.76567 0
      vertex -10.6511 6.91691 4
      vertex -10.6511 6.91691 0
    endloop
  endfacet
  facet normal -0.866027 0.499998 0
    outer loop
      vertex -10.6511 6.91691 4
      vertex -11.3158 5.76567 0
      vertex -11.3158 5.76567 4
    endloop
  endfacet
  facet normal -0.913548 0.406732 0
    outer loop
      vertex -11.8565 4.55126 0
      vertex -11.3158 5.76567 4
      vertex -11.3158 5.76567 0
    endloop
  endfacet
  facet normal -0.913548 0.406732 0
    outer loop
      vertex -11.3158 5.76567 4
      vertex -11.8565 4.55126 0
      vertex -11.8565 4.55126 4
    endloop
  endfacet
  facet normal -0.951054 0.309023 0
    outer loop
      vertex -12.2673 3.287 0
      vertex -11.8565 4.55126 4
      vertex -11.8565 4.55126 0
    endloop
  endfacet
  facet normal -0.951054 0.309023 0
    outer loop
      vertex -11.8565 4.55126 4
      vertex -12.2673 3.287 0
      vertex -12.2673 3.287 4
    endloop
  endfacet
  facet normal -0.258819 -0.965926 0
    outer loop
      vertex -12.2673 3.287 0
      vertex -7.43763 1.99291 4
      vertex -12.2673 3.287 4
    endloop
  endfacet
  facet normal -0.258819 -0.965926 -0
    outer loop
      vertex -7.43763 1.99291 4
      vertex -12.2673 3.287 0
      vertex -7.43763 1.99291 0
    endloop
  endfacet
  facet normal 0.951053 -0.309029 0
    outer loop
      vertex -7.43763 1.99291 4
      vertex -7.18856 2.75942 0
      vertex -7.18856 2.75942 4
    endloop
  endfacet
  facet normal 0.951053 -0.309029 0
    outer loop
      vertex -7.18856 2.75942 0
      vertex -7.43763 1.99291 4
      vertex -7.43763 1.99291 0
    endloop
  endfacet
  facet normal 0.809013 -0.58779 0
    outer loop
      vertex 9.86975 -7.99235 4
      vertex 10.6511 -6.91691 0
      vertex 10.6511 -6.91691 4
    endloop
  endfacet
  facet normal 0.809013 -0.58779 0
    outer loop
      vertex 10.6511 -6.91691 0
      vertex 9.86975 -7.99235 4
      vertex 9.86975 -7.99235 0
    endloop
  endfacet
  facet normal 0.866027 -0.499998 0
    outer loop
      vertex 10.6511 -6.91691 4
      vertex 11.3158 -5.76567 0
      vertex 11.3158 -5.76567 4
    endloop
  endfacet
  facet normal 0.866027 -0.499998 0
    outer loop
      vertex 11.3158 -5.76567 0
      vertex 10.6511 -6.91691 4
      vertex 10.6511 -6.91691 0
    endloop
  endfacet
  facet normal 0.913548 -0.406732 0
    outer loop
      vertex 11.3158 -5.76567 4
      vertex 11.8565 -4.55126 0
      vertex 11.8565 -4.55126 4
    endloop
  endfacet
  facet normal 0.913548 -0.406732 0
    outer loop
      vertex 11.8565 -4.55126 0
      vertex 11.3158 -5.76567 4
      vertex 11.3158 -5.76567 0
    endloop
  endfacet
  facet normal 0.951054 -0.309023 0
    outer loop
      vertex 11.8565 -4.55126 4
      vertex 12.2673 -3.287 0
      vertex 12.2673 -3.287 4
    endloop
  endfacet
  facet normal 0.951054 -0.309023 0
    outer loop
      vertex 12.2673 -3.287 0
      vertex 11.8565 -4.55126 4
      vertex 11.8565 -4.55126 0
    endloop
  endfacet
  facet normal 0.258819 0.965926 -0
    outer loop
      vertex 12.2673 -3.287 0
      vertex 7.43763 -1.99291 4
      vertex 12.2673 -3.287 4
    endloop
  endfacet
  facet normal 0.258819 0.965926 0
    outer loop
      vertex 7.43763 -1.99291 4
      vertex 12.2673 -3.287 0
      vertex 7.43763 -1.99291 0
    endloop
  endfacet
  facet normal -0.951053 0.309029 0
    outer loop
      vertex 7.18856 -2.75942 0
      vertex 7.43763 -1.99291 4
      vertex 7.43763 -1.99291 0
    endloop
  endfacet
  facet normal -0.951053 0.309029 0
    outer loop
      vertex 7.43763 -1.99291 4
      vertex 7.18856 -2.75942 0
      vertex 7.18856 -2.75942 4
    endloop
  endfacet
  facet normal -0.913545 0.406738 0
    outer loop
      vertex 6.86074 -3.49571 0
      vertex 7.18856 -2.75942 4
      vertex 7.18856 -2.75942 0
    endloop
  endfacet
  facet normal -0.913545 0.406738 0
    outer loop
      vertex 7.18856 -2.75942 4
      vertex 6.86074 -3.49571 0
      vertex 6.86074 -3.49571 4
    endloop
  endfacet
  facet normal -0.866026 0.499999 0
    outer loop
      vertex 6.45775 -4.19371 0
      vertex 6.86074 -3.49571 4
      vertex 6.86074 -3.49571 0
    endloop
  endfacet
  facet normal -0.866026 0.499999 0
    outer loop
      vertex 6.86074 -3.49571 4
      vertex 6.45775 -4.19371 0
      vertex 6.45775 -4.19371 4
    endloop
  endfacet
  facet normal -0.809018 0.587784 0
    outer loop
      vertex 5.98401 -4.84576 0
      vertex 6.45775 -4.19371 4
      vertex 6.45775 -4.19371 0
    endloop
  endfacet
  facet normal -0.809018 0.587784 0
    outer loop
      vertex 6.45775 -4.19371 4
      vertex 5.98401 -4.84576 0
      vertex 5.98401 -4.84576 4
    endloop
  endfacet
  facet normal -0.743145 0.669131 0
    outer loop
      vertex 5.52569 -5.35477 0
      vertex 5.98401 -4.84576 4
      vertex 5.98401 -4.84576 0
    endloop
  endfacet
  facet normal -0.743145 0.669131 0
    outer loop
      vertex 5.98401 -4.84576 4
      vertex 5.52569 -5.35477 0
      vertex 5.52569 -5.35477 4
    endloop
  endfacet
  facet normal -0.695912 -0.718127 0
    outer loop
      vertex 5.52569 -5.35477 0
      vertex 9.11382 -8.8319 4
      vertex 5.52569 -5.35477 4
    endloop
  endfacet
  facet normal -0.695912 -0.718127 -0
    outer loop
      vertex 9.11382 -8.8319 4
      vertex 5.52569 -5.35477 0
      vertex 9.11382 -8.8319 0
    endloop
  endfacet
  facet normal 0.743148 -0.669128 0
    outer loop
      vertex 9.11382 -8.8319 4
      vertex 9.86975 -7.99235 0
      vertex 9.86975 -7.99235 4
    endloop
  endfacet
  facet normal 0.743148 -0.669128 0
    outer loop
      vertex 9.86975 -7.99235 0
      vertex 9.11382 -8.8319 4
      vertex 9.11382 -8.8319 0
    endloop
  endfacet
  facet normal 0.743143 0.669132 0
    outer loop
      vertex -5.44471 -5.44471 4
      vertex -5.98401 -4.84575 0
      vertex -5.98401 -4.84575 4
    endloop
  endfacet
  facet normal 0.743143 0.669132 0
    outer loop
      vertex -5.98401 -4.84575 0
      vertex -5.44471 -5.44471 4
      vertex -5.44471 -5.44471 0
    endloop
  endfacet
  facet normal 0.80901 0.587795 0
    outer loop
      vertex -5.98401 -4.84575 4
      vertex -6.45776 -4.19372 0
      vertex -6.45776 -4.19372 4
    endloop
  endfacet
  facet normal 0.80901 0.587795 0
    outer loop
      vertex -6.45776 -4.19372 0
      vertex -5.98401 -4.84575 4
      vertex -5.98401 -4.84575 0
    endloop
  endfacet
  facet normal 0.866026 0.5 0
    outer loop
      vertex -6.45776 -4.19372 4
      vertex -6.86075 -3.49572 0
      vertex -6.86075 -3.49572 4
    endloop
  endfacet
  facet normal 0.866026 0.5 0
    outer loop
      vertex -6.86075 -3.49572 0
      vertex -6.45776 -4.19372 4
      vertex -6.45776 -4.19372 0
    endloop
  endfacet
  facet normal 0.91355 0.406726 0
    outer loop
      vertex -6.86075 -3.49572 4
      vertex -7.18855 -2.75943 0
      vertex -7.18855 -2.75943 4
    endloop
  endfacet
  facet normal 0.91355 0.406726 0
    outer loop
      vertex -7.18855 -2.75943 0
      vertex -6.86075 -3.49572 4
      vertex -6.86075 -3.49572 0
    endloop
  endfacet
  facet normal 0.951058 0.309012 0
    outer loop
      vertex -7.18855 -2.75943 4
      vertex -7.40021 -2.108 0
      vertex -7.40021 -2.108 4
    endloop
  endfacet
  facet normal 0.951058 0.309012 0
    outer loop
      vertex -7.40021 -2.108 0
      vertex -7.18855 -2.75943 4
      vertex -7.18855 -2.75943 0
    endloop
  endfacet
  facet normal -0.273959 0.961741 0
    outer loop
      vertex -7.40021 -2.108 0
      vertex -12.2056 -3.47685 4
      vertex -7.40021 -2.108 4
    endloop
  endfacet
  facet normal -0.273959 0.961741 0
    outer loop
      vertex -12.2056 -3.47685 4
      vertex -7.40021 -2.108 0
      vertex -12.2056 -3.47685 0
    endloop
  endfacet
  facet normal -0.951053 -0.309027 0
    outer loop
      vertex -11.8565 -4.55126 0
      vertex -12.2056 -3.47685 4
      vertex -12.2056 -3.47685 0
    endloop
  endfacet
  facet normal -0.951053 -0.309027 0
    outer loop
      vertex -12.2056 -3.47685 4
      vertex -11.8565 -4.55126 0
      vertex -11.8565 -4.55126 4
    endloop
  endfacet
  facet normal -0.913547 -0.406733 0
    outer loop
      vertex -11.3158 -5.76568 0
      vertex -11.8565 -4.55126 4
      vertex -11.8565 -4.55126 0
    endloop
  endfacet
  facet normal -0.913547 -0.406733 0
    outer loop
      vertex -11.8565 -4.55126 4
      vertex -11.3158 -5.76568 0
      vertex -11.3158 -5.76568 4
    endloop
  endfacet
  facet normal -0.866025 -0.5 0
    outer loop
      vertex -10.6511 -6.9169 0
      vertex -11.3158 -5.76568 4
      vertex -11.3158 -5.76568 0
    endloop
  endfacet
  facet normal -0.866025 -0.5 0
    outer loop
      vertex -11.3158 -5.76568 4
      vertex -10.6511 -6.9169 0
      vertex -10.6511 -6.9169 4
    endloop
  endfacet
  facet normal -0.809015 -0.587788 0
    outer loop
      vertex -9.86974 -7.99236 0
      vertex -10.6511 -6.9169 4
      vertex -10.6511 -6.9169 0
    endloop
  endfacet
  facet normal -0.809015 -0.587788 0
    outer loop
      vertex -10.6511 -6.9169 4
      vertex -9.86974 -7.99236 0
      vertex -9.86974 -7.99236 4
    endloop
  endfacet
  facet normal -0.743149 -0.669126 0
    outer loop
      vertex -8.98025 -8.98026 0
      vertex -9.86974 -7.99236 4
      vertex -9.86974 -7.99236 0
    endloop
  endfacet
  facet normal -0.743149 -0.669126 0
    outer loop
      vertex -9.86974 -7.99236 4
      vertex -8.98025 -8.98026 0
      vertex -8.98025 -8.98026 4
    endloop
  endfacet
  facet normal 0.707108 -0.707106 0
    outer loop
      vertex -8.98025 -8.98026 4
      vertex -5.44471 -5.44471 0
      vertex -5.44471 -5.44471 4
    endloop
  endfacet
  facet normal 0.707108 -0.707106 0
    outer loop
      vertex -5.44471 -5.44471 0
      vertex -8.98025 -8.98026 4
      vertex -8.98025 -8.98026 0
    endloop
  endfacet
  facet normal -0.104534 -0.994521 0
    outer loop
      vertex -1.98673 -12.5436 0
      vertex -0.664671 -12.6826 4
      vertex -1.98673 -12.5436 4
    endloop
  endfacet
  facet normal -0.104534 -0.994521 -0
    outer loop
      vertex -0.664671 -12.6826 4
      vertex -1.98673 -12.5436 0
      vertex -0.664671 -12.6826 0
    endloop
  endfacet
  facet normal -2.15222e-06 -1 0
    outer loop
      vertex -0.664671 -12.6826 0
      vertex 0.664666 -12.6826 4
      vertex -0.664671 -12.6826 4
    endloop
  endfacet
  facet normal -2.15222e-06 -1 -0
    outer loop
      vertex 0.664666 -12.6826 4
      vertex -0.664671 -12.6826 0
      vertex 0.664666 -12.6826 0
    endloop
  endfacet
  facet normal 0.104534 -0.994521 0
    outer loop
      vertex 0.664666 -12.6826 0
      vertex 1.98671 -12.5436 4
      vertex 0.664666 -12.6826 4
    endloop
  endfacet
  facet normal 0.104534 -0.994521 0
    outer loop
      vertex 1.98671 -12.5436 4
      vertex 0.664666 -12.6826 0
      vertex 1.98671 -12.5436 0
    endloop
  endfacet
  facet normal 0.207908 -0.978148 0
    outer loop
      vertex 1.98671 -12.5436 0
      vertex 3.28699 -12.2673 4
      vertex 1.98671 -12.5436 4
    endloop
  endfacet
  facet normal 0.207908 -0.978148 0
    outer loop
      vertex 3.28699 -12.2673 4
      vertex 1.98671 -12.5436 0
      vertex 3.28699 -12.2673 0
    endloop
  endfacet
  facet normal 0.965926 0.258818 0
    outer loop
      vertex 3.28699 -12.2673 4
      vertex 1.9929 -7.43761 0
      vertex 1.9929 -7.43761 4
    endloop
  endfacet
  facet normal 0.965926 0.258818 0
    outer loop
      vertex 1.9929 -7.43761 0
      vertex 3.28699 -12.2673 4
      vertex 3.28699 -12.2673 0
    endloop
  endfacet
  facet normal -0.207916 0.978147 0
    outer loop
      vertex 1.9929 -7.43761 0
      vertex 1.20454 -7.60519 4
      vertex 1.9929 -7.43761 4
    endloop
  endfacet
  facet normal -0.207916 0.978147 0
    outer loop
      vertex 1.20454 -7.60519 4
      vertex 1.9929 -7.43761 0
      vertex 1.20454 -7.60519 0
    endloop
  endfacet
  facet normal -0.104527 0.994522 0
    outer loop
      vertex 1.20454 -7.60519 0
      vertex 0.402985 -7.68943 4
      vertex 1.20454 -7.60519 4
    endloop
  endfacet
  facet normal -0.104527 0.994522 0
    outer loop
      vertex 0.402985 -7.68943 4
      vertex 1.20454 -7.60519 0
      vertex 0.402985 -7.68943 0
    endloop
  endfacet
  facet normal 1.18325e-06 1 -0
    outer loop
      vertex 0.402985 -7.68943 0
      vertex -0.402996 -7.68943 4
      vertex 0.402985 -7.68943 4
    endloop
  endfacet
  facet normal 1.18325e-06 1 0
    outer loop
      vertex -0.402996 -7.68943 4
      vertex 0.402985 -7.68943 0
      vertex -0.402996 -7.68943 0
    endloop
  endfacet
  facet normal 0.104526 0.994522 -0
    outer loop
      vertex -0.402996 -7.68943 0
      vertex -1.20456 -7.60518 4
      vertex -0.402996 -7.68943 4
    endloop
  endfacet
  facet normal 0.104526 0.994522 0
    outer loop
      vertex -1.20456 -7.60518 4
      vertex -0.402996 -7.68943 0
      vertex -1.20456 -7.60518 0
    endloop
  endfacet
  facet normal 0.207896 0.978151 -0
    outer loop
      vertex -1.20456 -7.60518 0
      vertex -1.87452 -7.46279 4
      vertex -1.20456 -7.60518 4
    endloop
  endfacet
  facet normal 0.207896 0.978151 0
    outer loop
      vertex -1.87452 -7.46279 4
      vertex -1.20456 -7.60518 0
      vertex -1.87452 -7.46279 0
    endloop
  endfacet
  facet normal -0.969872 0.243616 0
    outer loop
      vertex -3.09175 -12.3088 0
      vertex -1.87452 -7.46279 4
      vertex -1.87452 -7.46279 0
    endloop
  endfacet
  facet normal -0.969872 0.243616 0
    outer loop
      vertex -1.87452 -7.46279 4
      vertex -3.09175 -12.3088 0
      vertex -3.09175 -12.3088 4
    endloop
  endfacet
  facet normal -0.207908 -0.978148 0
    outer loop
      vertex -3.09175 -12.3088 0
      vertex -1.98673 -12.5436 4
      vertex -3.09175 -12.3088 4
    endloop
  endfacet
  facet normal -0.207908 -0.978148 -0
    outer loop
      vertex -1.98673 -12.5436 4
      vertex -3.09175 -12.3088 0
      vertex -1.98673 -12.5436 0
    endloop
  endfacet
endsolid OpenSCAD_Model
