solid OpenSCAD_Model
  facet normal -1 0 0
    outer loop
      vertex 0 20 0
      vertex 0 17.497 4.19699
      vertex 0 20 4
    endloop
  endfacet
  facet normal -1 0 0
    outer loop
      vertex 0 20 0
      vertex 0 15.0557 4.7831
      vertex 0 17.497 4.19699
    endloop
  endfacet
  facet normal -1 0 0
    outer loop
      vertex 0 5 0
      vertex 0 15.0557 4.7831
      vertex 0 20 0
    endloop
  endfacet
  facet normal -1 -0 0
    outer loop
      vertex 0 15.0557 4.7831
      vertex 0 5 0
      vertex 0 12.7362 5.7439
    endloop
  endfacet
  facet normal -1 -0 0
    outer loop
      vertex 0 12.7362 5.7439
      vertex 0 5 0
      vertex 0 10.5954 7.05573
    endloop
  endfacet
  facet normal -1 0 0
    outer loop
      vertex 0 5 0
      vertex 0 8.68629 8.68629
      vertex 0 10.5954 7.05573
    endloop
  endfacet
  facet normal -1 0 0
    outer loop
      vertex 0 5 0
      vertex 0 7.05573 10.5954
      vertex 0 8.68629 8.68629
    endloop
  endfacet
  facet normal -1 0 0
    outer loop
      vertex 0 5 0
      vertex 0 5.7439 12.7362
      vertex 0 7.05573 10.5954
    endloop
  endfacet
  facet normal -1 -0 0
    outer loop
      vertex 0 5.7439 12.7362
      vertex 0 5 0
      vertex 0 5 14.5321
    endloop
  endfacet
  facet normal -1 0 0
    outer loop
      vertex 0 17.497 35.803
      vertex 0 20 40
      vertex 0 20 36
    endloop
  endfacet
  facet normal -1 0 0
    outer loop
      vertex 0 15.0557 35.2169
      vertex 0 20 40
      vertex 0 17.497 35.803
    endloop
  endfacet
  facet normal -1 0 0
    outer loop
      vertex 0 5 40
      vertex 0 15.0557 35.2169
      vertex 0 12.7362 34.2561
    endloop
  endfacet
  facet normal -1 0 0
    outer loop
      vertex 0 5 40
      vertex 0 12.7362 34.2561
      vertex 0 10.5954 32.9443
    endloop
  endfacet
  facet normal -1 0 0
    outer loop
      vertex 0 15.0557 35.2169
      vertex 0 5 40
      vertex 0 20 40
    endloop
  endfacet
  facet normal -1 0 0
    outer loop
      vertex 0 8.68629 31.3137
      vertex 0 5 40
      vertex 0 10.5954 32.9443
    endloop
  endfacet
  facet normal -1 0 0
    outer loop
      vertex 0 7.05573 29.4046
      vertex 0 5 40
      vertex 0 8.68629 31.3137
    endloop
  endfacet
  facet normal -1 0 0
    outer loop
      vertex 0 5.7439 27.2638
      vertex 0 5 40
      vertex 0 7.05573 29.4046
    endloop
  endfacet
  facet normal -1 0 0
    outer loop
      vertex 0 5 40
      vertex 0 5.7439 27.2638
      vertex 0 5 25.4679
    endloop
  endfacet
  facet normal -0 0 1
    outer loop
      vertex 0 20 40
      vertex 4.5 5 40
      vertex 4.5 20 40
    endloop
  endfacet
  facet normal 0 0 1
    outer loop
      vertex 4.5 5 40
      vertex 0 20 40
      vertex 0 5 40
    endloop
  endfacet
  facet normal 0 0 -1
    outer loop
      vertex 60 5 0
      vertex 59.2934 6.51851 0
      vertex 60 6.51851 0
    endloop
  endfacet
  facet normal 0 0 -1
    outer loop
      vertex 60 5 0
      vertex 57.8881 6.66621 0
      vertex 59.2934 6.51851 0
    endloop
  endfacet
  facet normal 0 0 -1
    outer loop
      vertex 60 5 0
      vertex 56.5059 6.96 0
      vertex 57.8881 6.66621 0
    endloop
  endfacet
  facet normal 0 0 -1
    outer loop
      vertex 60 5 0
      vertex 56.4386 6.98187 0
      vertex 56.5059 6.96 0
    endloop
  endfacet
  facet normal 0 0 -1
    outer loop
      vertex 56.4386 6.98187 0
      vertex 50.4541 10.4541 0
      vertex 54.8028 14.8028 0
    endloop
  endfacet
  facet normal 0 0 -1
    outer loop
      vertex 50.4541 10.4541 0
      vertex 49.5459 10.4541 0
      vertex 50 10.9584 0
    endloop
  endfacet
  facet normal 0 0 -1
    outer loop
      vertex 49.4933 10.4067 0
      vertex 50.4541 10.4541 0
      vertex 56.4386 6.98187 0
    endloop
  endfacet
  facet normal 0 0 -1
    outer loop
      vertex 43.4941 6.96001 0
      vertex 56.4386 6.98187 0
      vertex 60 5 0
    endloop
  endfacet
  facet normal -0 0 -1
    outer loop
      vertex 50.4541 10.4541 0
      vertex 49.4933 10.4067 0
      vertex 49.5459 10.4541 0
    endloop
  endfacet
  facet normal -0 0 -1
    outer loop
      vertex 49.4933 10.4067 0
      vertex 43.4941 6.96001 0
      vertex 45.1686 14.777 0
    endloop
  endfacet
  facet normal -0 0 -1
    outer loop
      vertex 56.4386 6.98187 0
      vertex 43.4941 6.96001 0
      vertex 49.4933 10.4067 0
    endloop
  endfacet
  facet normal 0 0 -1
    outer loop
      vertex 60 5 0
      vertex 42.1119 6.66622 0
      vertex 43.4941 6.96001 0
    endloop
  endfacet
  facet normal 0 0 -1
    outer loop
      vertex 60 5 0
      vertex 40.7065 6.51852 0
      vertex 42.1119 6.66622 0
    endloop
  endfacet
  facet normal 0 0 -1
    outer loop
      vertex 60 5 0
      vertex 39.2934 6.51851 0
      vertex 40.7065 6.51852 0
    endloop
  endfacet
  facet normal 0 0 -1
    outer loop
      vertex 36.4386 6.98187 0
      vertex 30.4541 10.4541 0
      vertex 34.8028 14.8028 0
    endloop
  endfacet
  facet normal 0 0 -1
    outer loop
      vertex 30.4541 10.4541 0
      vertex 29.5459 10.4541 0
      vertex 30 10.9584 0
    endloop
  endfacet
  facet normal 0 0 -1
    outer loop
      vertex 29.4933 10.4067 0
      vertex 30.4541 10.4541 0
      vertex 36.4386 6.98187 0
    endloop
  endfacet
  facet normal -0 0 -1
    outer loop
      vertex 30.4541 10.4541 0
      vertex 29.4933 10.4067 0
      vertex 29.5459 10.4541 0
    endloop
  endfacet
  facet normal -0 0 -1
    outer loop
      vertex 29.4933 10.4067 0
      vertex 23.4941 6.96001 0
      vertex 25.1686 14.777 0
    endloop
  endfacet
  facet normal -0 0 -1
    outer loop
      vertex 36.4386 6.98187 0
      vertex 23.4941 6.96001 0
      vertex 29.4933 10.4067 0
    endloop
  endfacet
  facet normal 0 0 -1
    outer loop
      vertex 36.5059 6.96 0
      vertex 23.4941 6.96001 0
      vertex 36.4386 6.98187 0
    endloop
  endfacet
  facet normal 0 0 -1
    outer loop
      vertex 37.8881 6.66621 0
      vertex 23.4941 6.96001 0
      vertex 36.5059 6.96 0
    endloop
  endfacet
  facet normal 0 0 -1
    outer loop
      vertex 22.1119 6.66622 0
      vertex 37.8881 6.66621 0
      vertex 39.2934 6.51851 0
    endloop
  endfacet
  facet normal 0 0 -1
    outer loop
      vertex 20.7065 6.51852 0
      vertex 39.2934 6.51851 0
      vertex 60 5 0
    endloop
  endfacet
  facet normal 0 0 -1
    outer loop
      vertex 37.8881 6.66621 0
      vertex 22.1119 6.66622 0
      vertex 23.4941 6.96001 0
    endloop
  endfacet
  facet normal 0 0 -1
    outer loop
      vertex 39.2934 6.51851 0
      vertex 20.7065 6.51852 0
      vertex 22.1119 6.66622 0
    endloop
  endfacet
  facet normal 0 0 -1
    outer loop
      vertex 0 5 0
      vertex 20.7065 6.51852 0
      vertex 60 5 0
    endloop
  endfacet
  facet normal 0 0 -1
    outer loop
      vertex 16.4386 6.98187 0
      vertex 10.4541 10.4541 0
      vertex 14.8028 14.8028 0
    endloop
  endfacet
  facet normal 0 0 -1
    outer loop
      vertex 7.39667 15.162 0
      vertex 0 20 0
      vertex 6.96002 16.506 0
    endloop
  endfacet
  facet normal 0 0 -1
    outer loop
      vertex 0 20 0
      vertex 7.39667 15.162 0
      vertex 0 5 0
    endloop
  endfacet
  facet normal -0 0 -1
    outer loop
      vertex 7.97143 13.8711 0
      vertex 0 5 0
      vertex 7.39667 15.162 0
    endloop
  endfacet
  facet normal -0 0 -1
    outer loop
      vertex 8.67796 12.6474 0
      vertex 0 5 0
      vertex 7.97143 13.8711 0
    endloop
  endfacet
  facet normal -0 0 -1
    outer loop
      vertex 9.50854 11.5042 0
      vertex 0 5 0
      vertex 8.67796 12.6474 0
    endloop
  endfacet
  facet normal -0 0 -1
    outer loop
      vertex 10.4541 10.4541 0
      vertex 0 5 0
      vertex 9.50854 11.5042 0
    endloop
  endfacet
  facet normal -0 0 -1
    outer loop
      vertex 16.4386 6.98187 0
      vertex 0 5 0
      vertex 10.4541 10.4541 0
    endloop
  endfacet
  facet normal -0 0 -1
    outer loop
      vertex 16.5059 6.96 0
      vertex 0 5 0
      vertex 16.4386 6.98187 0
    endloop
  endfacet
  facet normal -0 0 -1
    outer loop
      vertex 17.8881 6.66621 0
      vertex 0 5 0
      vertex 16.5059 6.96 0
    endloop
  endfacet
  facet normal -0 0 -1
    outer loop
      vertex 19.2935 6.51851 0
      vertex 0 5 0
      vertex 17.8881 6.66621 0
    endloop
  endfacet
  facet normal 0 0 -1
    outer loop
      vertex 20.7065 6.51852 0
      vertex 0 5 0
      vertex 19.2935 6.51851 0
    endloop
  endfacet
  facet normal 0 0 -1
    outer loop
      vertex 59.6153 12.6601 0
      vertex 60 20 0
      vertex 60 12.6601 0
    endloop
  endfacet
  facet normal 0 0 -1
    outer loop
      vertex 58.8502 12.7405 0
      vertex 60 20 0
      vertex 59.6153 12.6601 0
    endloop
  endfacet
  facet normal 0 0 -1
    outer loop
      vertex 58.0977 12.9005 0
      vertex 60 20 0
      vertex 58.8502 12.7405 0
    endloop
  endfacet
  facet normal 0 0 -1
    outer loop
      vertex 58.061 12.9124 0
      vertex 60 20 0
      vertex 58.0977 12.9005 0
    endloop
  endfacet
  facet normal 0 0 -1
    outer loop
      vertex 54.8028 14.8028 0
      vertex 58.061 12.9124 0
      vertex 56.4386 6.98187 0
    endloop
  endfacet
  facet normal 0 0 -1
    outer loop
      vertex 58.061 12.9124 0
      vertex 54.8028 14.8028 0
      vertex 60 20 0
    endloop
  endfacet
  facet normal 0 0 -1
    outer loop
      vertex 54.288 15.3745 0
      vertex 60 20 0
      vertex 54.8028 14.8028 0
    endloop
  endfacet
  facet normal 0 0 -1
    outer loop
      vertex 53.8358 15.9969 0
      vertex 60 20 0
      vertex 54.288 15.3745 0
    endloop
  endfacet
  facet normal 0 0 -1
    outer loop
      vertex 53.4511 16.6632 0
      vertex 60 20 0
      vertex 53.8358 15.9969 0
    endloop
  endfacet
  facet normal 0 0 -1
    outer loop
      vertex 53.1382 17.366 0
      vertex 60 20 0
      vertex 53.4511 16.6632 0
    endloop
  endfacet
  facet normal 0 0 -1
    outer loop
      vertex 52.9005 18.0977 0
      vertex 60 20 0
      vertex 53.1382 17.366 0
    endloop
  endfacet
  facet normal 0 0 -1
    outer loop
      vertex 52.8924 18.1354 0
      vertex 60 20 0
      vertex 52.9005 18.0977 0
    endloop
  endfacet
  facet normal 0 0 -1
    outer loop
      vertex 47.0995 18.0977 0
      vertex 52.8924 18.1354 0
      vertex 49.8943 17.3488 0
    endloop
  endfacet
  facet normal -0 0 -1
    outer loop
      vertex 52.8924 18.1354 0
      vertex 47.0995 18.0977 0
      vertex 60 20 0
    endloop
  endfacet
  facet normal 0 0 -1
    outer loop
      vertex 46.5489 16.6632 0
      vertex 47.0995 18.0977 0
      vertex 46.8618 17.366 0
    endloop
  endfacet
  facet normal 0 0 -1
    outer loop
      vertex 46.1642 15.9969 0
      vertex 47.0995 18.0977 0
      vertex 46.5489 16.6632 0
    endloop
  endfacet
  facet normal 0 0 -1
    outer loop
      vertex 45.712 15.3745 0
      vertex 47.0995 18.0977 0
      vertex 46.1642 15.9969 0
    endloop
  endfacet
  facet normal 0 0 -1
    outer loop
      vertex 45.1686 14.777 0
      vertex 45.712 15.3745 0
      vertex 45.1972 14.8028 0
    endloop
  endfacet
  facet normal -0 0 -1
    outer loop
      vertex 45.712 15.3745 0
      vertex 45.1686 14.777 0
      vertex 47.0995 18.0977 0
    endloop
  endfacet
  facet normal 0 0 -1
    outer loop
      vertex 41.9023 12.9005 0
      vertex 45.1686 14.777 0
      vertex 43.4941 6.96001 0
    endloop
  endfacet
  facet normal 0 0 -1
    outer loop
      vertex 41.9023 12.9005 0
      vertex 47.0995 18.0977 0
      vertex 45.1686 14.777 0
    endloop
  endfacet
  facet normal 0 0 -1
    outer loop
      vertex 41.1498 12.7405 0
      vertex 47.0995 18.0977 0
      vertex 41.9023 12.9005 0
    endloop
  endfacet
  facet normal 0 0 -1
    outer loop
      vertex 40.3847 12.6601 0
      vertex 47.0995 18.0977 0
      vertex 41.1498 12.7405 0
    endloop
  endfacet
  facet normal 0 0 -1
    outer loop
      vertex 39.6153 12.6601 0
      vertex 47.0995 18.0977 0
      vertex 40.3847 12.6601 0
    endloop
  endfacet
  facet normal 0 0 -1
    outer loop
      vertex 38.8502 12.7405 0
      vertex 47.0995 18.0977 0
      vertex 39.6153 12.6601 0
    endloop
  endfacet
  facet normal 0 0 -1
    outer loop
      vertex 38.061 12.9124 0
      vertex 38.8502 12.7405 0
      vertex 38.0977 12.9005 0
    endloop
  endfacet
  facet normal 0 0 -1
    outer loop
      vertex 38.8502 12.7405 0
      vertex 38.061 12.9124 0
      vertex 47.0995 18.0977 0
    endloop
  endfacet
  facet normal 0 0 -1
    outer loop
      vertex 34.8028 14.8028 0
      vertex 38.061 12.9124 0
      vertex 36.4386 6.98187 0
    endloop
  endfacet
  facet normal 0 0 -1
    outer loop
      vertex 34.8028 14.8028 0
      vertex 47.0995 18.0977 0
      vertex 38.061 12.9124 0
    endloop
  endfacet
  facet normal 0 0 -1
    outer loop
      vertex 34.288 15.3745 0
      vertex 47.0995 18.0977 0
      vertex 34.8028 14.8028 0
    endloop
  endfacet
  facet normal 0 0 -1
    outer loop
      vertex 33.8358 15.9969 0
      vertex 47.0995 18.0977 0
      vertex 34.288 15.3745 0
    endloop
  endfacet
  facet normal 0 0 -1
    outer loop
      vertex 33.4511 16.6632 0
      vertex 47.0995 18.0977 0
      vertex 33.8358 15.9969 0
    endloop
  endfacet
  facet normal 0 0 -1
    outer loop
      vertex 32.8924 18.1354 0
      vertex 47.0995 18.0977 0
      vertex 33.4511 16.6632 0
    endloop
  endfacet
  facet normal 0 0 -1
    outer loop
      vertex 32.8924 18.1354 0
      vertex 33.4511 16.6632 0
      vertex 33.1382 17.366 0
    endloop
  endfacet
  facet normal 0 0 -1
    outer loop
      vertex 32.8924 18.1354 0
      vertex 33.1382 17.366 0
      vertex 32.9005 18.0977 0
    endloop
  endfacet
  facet normal 0 0 -1
    outer loop
      vertex 47.0995 18.0977 0
      vertex 32.8924 18.1354 0
      vertex 60 20 0
    endloop
  endfacet
  facet normal 0 0 -1
    outer loop
      vertex 27.0995 18.0977 0
      vertex 32.8924 18.1354 0
      vertex 29.8943 17.3488 0
    endloop
  endfacet
  facet normal 0 0 -1
    outer loop
      vertex 27.0995 18.0977 0
      vertex 60 20 0
      vertex 32.8924 18.1354 0
    endloop
  endfacet
  facet normal 0 0 -1
    outer loop
      vertex 26.5489 16.6632 0
      vertex 27.0995 18.0977 0
      vertex 26.8618 17.366 0
    endloop
  endfacet
  facet normal 0 0 -1
    outer loop
      vertex 26.1642 15.9969 0
      vertex 27.0995 18.0977 0
      vertex 26.5489 16.6632 0
    endloop
  endfacet
  facet normal 0 0 -1
    outer loop
      vertex 25.712 15.3745 0
      vertex 27.0995 18.0977 0
      vertex 26.1642 15.9969 0
    endloop
  endfacet
  facet normal 0 0 -1
    outer loop
      vertex 25.1686 14.777 0
      vertex 25.712 15.3745 0
      vertex 25.1972 14.8028 0
    endloop
  endfacet
  facet normal -0 0 -1
    outer loop
      vertex 25.712 15.3745 0
      vertex 25.1686 14.777 0
      vertex 27.0995 18.0977 0
    endloop
  endfacet
  facet normal 0 0 -1
    outer loop
      vertex 21.9023 12.9005 0
      vertex 25.1686 14.777 0
      vertex 23.4941 6.96001 0
    endloop
  endfacet
  facet normal 0 0 -1
    outer loop
      vertex 21.9023 12.9005 0
      vertex 27.0995 18.0977 0
      vertex 25.1686 14.777 0
    endloop
  endfacet
  facet normal 0 0 -1
    outer loop
      vertex 21.1498 12.7405 0
      vertex 27.0995 18.0977 0
      vertex 21.9023 12.9005 0
    endloop
  endfacet
  facet normal 0 0 -1
    outer loop
      vertex 20.3847 12.6601 0
      vertex 27.0995 18.0977 0
      vertex 21.1498 12.7405 0
    endloop
  endfacet
  facet normal 0 0 -1
    outer loop
      vertex 19.6153 12.6601 0
      vertex 27.0995 18.0977 0
      vertex 20.3847 12.6601 0
    endloop
  endfacet
  facet normal 0 0 -1
    outer loop
      vertex 18.8502 12.7405 0
      vertex 27.0995 18.0977 0
      vertex 19.6153 12.6601 0
    endloop
  endfacet
  facet normal 0 0 -1
    outer loop
      vertex 18.061 12.9124 0
      vertex 18.8502 12.7405 0
      vertex 18.0977 12.9005 0
    endloop
  endfacet
  facet normal 0 0 -1
    outer loop
      vertex 18.8502 12.7405 0
      vertex 18.061 12.9124 0
      vertex 27.0995 18.0977 0
    endloop
  endfacet
  facet normal 0 0 -1
    outer loop
      vertex 14.8028 14.8028 0
      vertex 18.061 12.9124 0
      vertex 16.4386 6.98187 0
    endloop
  endfacet
  facet normal 0 0 -1
    outer loop
      vertex 14.8028 14.8028 0
      vertex 27.0995 18.0977 0
      vertex 18.061 12.9124 0
    endloop
  endfacet
  facet normal 0 0 -1
    outer loop
      vertex 14.288 15.3745 0
      vertex 27.0995 18.0977 0
      vertex 14.8028 14.8028 0
    endloop
  endfacet
  facet normal 0 0 -1
    outer loop
      vertex 13.8358 15.9969 0
      vertex 27.0995 18.0977 0
      vertex 14.288 15.3745 0
    endloop
  endfacet
  facet normal 0 0 -1
    outer loop
      vertex 13.4511 16.6632 0
      vertex 27.0995 18.0977 0
      vertex 13.8358 15.9969 0
    endloop
  endfacet
  facet normal 0 0 -1
    outer loop
      vertex 13.1382 17.366 0
      vertex 27.0995 18.0977 0
      vertex 13.4511 16.6632 0
    endloop
  endfacet
  facet normal 0 0 -1
    outer loop
      vertex 12.8924 18.1354 0
      vertex 27.0995 18.0977 0
      vertex 13.1382 17.366 0
    endloop
  endfacet
  facet normal 0 0 -1
    outer loop
      vertex 12.8924 18.1354 0
      vertex 13.1382 17.366 0
      vertex 12.9005 18.0977 0
    endloop
  endfacet
  facet normal 0 0 -1
    outer loop
      vertex 0 20 0
      vertex 27.0995 18.0977 0
      vertex 12.8924 18.1354 0
    endloop
  endfacet
  facet normal 0 0 -1
    outer loop
      vertex 27.0995 18.0977 0
      vertex 0 20 0
      vertex 60 20 0
    endloop
  endfacet
  facet normal 0 0 -1
    outer loop
      vertex 6.94531 16.5752 0
      vertex 0 20 0
      vertex 12.8924 18.1354 0
    endloop
  endfacet
  facet normal 0 0 -1
    outer loop
      vertex 6.96002 16.506 0
      vertex 0 20 0
      vertex 6.94531 16.5752 0
    endloop
  endfacet
  facet normal 1 0 0
    outer loop
      vertex 4.5 20 40
      vertex 4.5 12 28
      vertex 4.5 20 28
    endloop
  endfacet
  facet normal 1 -0 0
    outer loop
      vertex 4.5 5 40
      vertex 4.5 12 28
      vertex 4.5 20 40
    endloop
  endfacet
  facet normal 1 0 0
    outer loop
      vertex 4.5 5 3
      vertex 4.5 12 28
      vertex 4.5 5 40
    endloop
  endfacet
  facet normal 1 0 0
    outer loop
      vertex 4.5 12 28
      vertex 4.5 5 3
      vertex 4.5 12 3
    endloop
  endfacet
  facet normal 0 0 1
    outer loop
      vertex 25 20 3
      vertex 8 20 3
      vertex 25 15 3
    endloop
  endfacet
  facet normal 0 0 1
    outer loop
      vertex 55 15 3
      vertex 60 20 3
      vertex 55 20 3
    endloop
  endfacet
  facet normal 0 0 1
    outer loop
      vertex 60 20 3
      vertex 55 15 3
      vertex 60 5 3
    endloop
  endfacet
  facet normal -0 0 1
    outer loop
      vertex 25 15 3
      vertex 60 5 3
      vertex 55 15 3
    endloop
  endfacet
  facet normal 0 0 1
    outer loop
      vertex 8 12 3
      vertex 25 15 3
      vertex 8 20 3
    endloop
  endfacet
  facet normal 0 0 1
    outer loop
      vertex 4.5 5 3
      vertex 25 15 3
      vertex 8 12 3
    endloop
  endfacet
  facet normal 0 0 1
    outer loop
      vertex 4.5 5 3
      vertex 8 12 3
      vertex 4.5 12 3
    endloop
  endfacet
  facet normal 0 0 1
    outer loop
      vertex 25 15 3
      vertex 4.5 5 3
      vertex 60 5 3
    endloop
  endfacet
  facet normal -1 0 0
    outer loop
      vertex 25 15 3
      vertex 25 20 13.75
      vertex 25 20 3
    endloop
  endfacet
  facet normal -1 -0 0
    outer loop
      vertex 25 20 13.75
      vertex 25 15 3
      vertex 25 15 13.75
    endloop
  endfacet
  facet normal -0 0 1
    outer loop
      vertex 30.1 20 16
      vertex 49.9 15 16
      vertex 49.9 20 16
    endloop
  endfacet
  facet normal 0 0 1
    outer loop
      vertex 49.9 15 16
      vertex 30.1 20 16
      vertex 30.1 15 16
    endloop
  endfacet
  facet normal 1 -0 0
    outer loop
      vertex 55 15 13.75
      vertex 55 20 3
      vertex 55 20 13.75
    endloop
  endfacet
  facet normal 1 0 0
    outer loop
      vertex 55 20 3
      vertex 55 15 13.75
      vertex 55 15 3
    endloop
  endfacet
  facet normal 0 -1 0
    outer loop
      vertex 25 15 3
      vertex 30.1 15 13.75
      vertex 25 15 13.75
    endloop
  endfacet
  facet normal 0 -1 -0
    outer loop
      vertex 30.1 15 13.75
      vertex 25 15 3
      vertex 49.9 15 13.75
    endloop
  endfacet
  facet normal 0 -1 0
    outer loop
      vertex 55 15 3
      vertex 49.9 15 13.75
      vertex 25 15 3
    endloop
  endfacet
  facet normal 0 -1 0
    outer loop
      vertex 49.9 15 13.75
      vertex 55 15 3
      vertex 55 15 13.75
    endloop
  endfacet
  facet normal 0 -1 0
    outer loop
      vertex 30.1 15 13.75
      vertex 49.9 15 16
      vertex 30.1 15 16
    endloop
  endfacet
  facet normal 0 -1 -0
    outer loop
      vertex 49.9 15 16
      vertex 30.1 15 13.75
      vertex 49.9 15 13.75
    endloop
  endfacet
  facet normal -0 0 1
    outer loop
      vertex 4.5 20 28
      vertex 8 12 28
      vertex 8 20 28
    endloop
  endfacet
  facet normal 0 0 1
    outer loop
      vertex 8 12 28
      vertex 4.5 20 28
      vertex 4.5 12 28
    endloop
  endfacet
  facet normal 1 0 0
    outer loop
      vertex 8 20 28
      vertex 8 13.75 26.25
      vertex 8 20 26.25
    endloop
  endfacet
  facet normal 1 0 0
    outer loop
      vertex 8 13.75 26.25
      vertex 8 12 28
      vertex 8 13.75 13.75
    endloop
  endfacet
  facet normal 1 -0 0
    outer loop
      vertex 8 12 28
      vertex 8 13.75 26.25
      vertex 8 20 28
    endloop
  endfacet
  facet normal 1 -0 0
    outer loop
      vertex 8 13.75 13.75
      vertex 8 20 3
      vertex 8 20 13.75
    endloop
  endfacet
  facet normal 1 0 0
    outer loop
      vertex 8 13.75 13.75
      vertex 8 12 3
      vertex 8 20 3
    endloop
  endfacet
  facet normal 1 0 0
    outer loop
      vertex 8 12 3
      vertex 8 13.75 13.75
      vertex 8 12 28
    endloop
  endfacet
  facet normal 0 -1 0
    outer loop
      vertex 4.5 12 3
      vertex 8 12 28
      vertex 4.5 12 28
    endloop
  endfacet
  facet normal 0 -1 -0
    outer loop
      vertex 8 12 28
      vertex 4.5 12 3
      vertex 8 12 3
    endloop
  endfacet
  facet normal 0 0 -1
    outer loop
      vertex 7.3 13.75 26.25
      vertex 8 20 26.25
      vertex 8 13.75 26.25
    endloop
  endfacet
  facet normal -0 0 -1
    outer loop
      vertex 8 20 26.25
      vertex 7.3 13.75 26.25
      vertex 7.3 20 26.25
    endloop
  endfacet
  facet normal -0 0 1
    outer loop
      vertex 7.3 20 13.75
      vertex 8 13.75 13.75
      vertex 8 20 13.75
    endloop
  endfacet
  facet normal 0 0 1
    outer loop
      vertex 8 13.75 13.75
      vertex 7.3 20 13.75
      vertex 7.3 13.75 13.75
    endloop
  endfacet
  facet normal -0 0 1
    outer loop
      vertex 25 20 13.75
      vertex 30.1 15 13.75
      vertex 30.1 20 13.75
    endloop
  endfacet
  facet normal 0 0 1
    outer loop
      vertex 30.1 15 13.75
      vertex 25 20 13.75
      vertex 25 15 13.75
    endloop
  endfacet
  facet normal -1 0 0
    outer loop
      vertex 30.1 15 13.75
      vertex 30.1 20 16
      vertex 30.1 20 13.75
    endloop
  endfacet
  facet normal -1 -0 0
    outer loop
      vertex 30.1 20 16
      vertex 30.1 15 13.75
      vertex 30.1 15 16
    endloop
  endfacet
  facet normal 1 -0 0
    outer loop
      vertex 7.3 13.75 26.25
      vertex 7.3 19.0223 26.1731
      vertex 7.3 20 26.25
    endloop
  endfacet
  facet normal 1 0 0
    outer loop
      vertex 7.3 13.75 26.25
      vertex 7.3 18.0686 25.9441
      vertex 7.3 19.0223 26.1731
    endloop
  endfacet
  facet normal 1 0 0
    outer loop
      vertex 7.3 13.75 26.25
      vertex 7.3 17.1626 25.5688
      vertex 7.3 18.0686 25.9441
    endloop
  endfacet
  facet normal 1 0 0
    outer loop
      vertex 7.3 13.75 26.25
      vertex 7.3 16.3263 25.0564
      vertex 7.3 17.1626 25.5688
    endloop
  endfacet
  facet normal 1 0 0
    outer loop
      vertex 7.3 13.75 26.25
      vertex 7.3 15.5806 24.4194
      vertex 7.3 16.3263 25.0564
    endloop
  endfacet
  facet normal 1 0 0
    outer loop
      vertex 7.3 13.75 26.25
      vertex 7.3 14.9436 23.6737
      vertex 7.3 15.5806 24.4194
    endloop
  endfacet
  facet normal 1 0 0
    outer loop
      vertex 7.3 13.75 26.25
      vertex 7.3 14.4312 22.8374
      vertex 7.3 14.9436 23.6737
    endloop
  endfacet
  facet normal 1 0 0
    outer loop
      vertex 7.3 13.75 26.25
      vertex 7.3 14.0559 21.9314
      vertex 7.3 14.4312 22.8374
    endloop
  endfacet
  facet normal 1 0 0
    outer loop
      vertex 7.3 13.75 26.25
      vertex 7.3 13.8269 20.9777
      vertex 7.3 14.0559 21.9314
    endloop
  endfacet
  facet normal 1 0 0
    outer loop
      vertex 7.3 13.8269 20.9777
      vertex 7.3 13.75 26.25
      vertex 7.3 13.75 20
    endloop
  endfacet
  facet normal 1 0 0
    outer loop
      vertex 7.3 19.0223 13.8269
      vertex 7.3 13.75 13.75
      vertex 7.3 20 13.75
    endloop
  endfacet
  facet normal 1 0 0
    outer loop
      vertex 7.3 18.0686 14.0559
      vertex 7.3 13.75 13.75
      vertex 7.3 19.0223 13.8269
    endloop
  endfacet
  facet normal 1 0 0
    outer loop
      vertex 7.3 17.1626 14.4312
      vertex 7.3 13.75 13.75
      vertex 7.3 18.0686 14.0559
    endloop
  endfacet
  facet normal 1 0 0
    outer loop
      vertex 7.3 16.3263 14.9436
      vertex 7.3 13.75 13.75
      vertex 7.3 17.1626 14.4312
    endloop
  endfacet
  facet normal 1 0 0
    outer loop
      vertex 7.3 15.5806 15.5806
      vertex 7.3 13.75 13.75
      vertex 7.3 16.3263 14.9436
    endloop
  endfacet
  facet normal 1 0 0
    outer loop
      vertex 7.3 14.9436 16.3263
      vertex 7.3 13.75 13.75
      vertex 7.3 15.5806 15.5806
    endloop
  endfacet
  facet normal 1 0 0
    outer loop
      vertex 7.3 14.4312 17.1626
      vertex 7.3 13.75 13.75
      vertex 7.3 14.9436 16.3263
    endloop
  endfacet
  facet normal 1 0 0
    outer loop
      vertex 7.3 14.0559 18.0686
      vertex 7.3 13.75 13.75
      vertex 7.3 14.4312 17.1626
    endloop
  endfacet
  facet normal 1 0 0
    outer loop
      vertex 7.3 13.8269 19.0223
      vertex 7.3 13.75 13.75
      vertex 7.3 14.0559 18.0686
    endloop
  endfacet
  facet normal 1 0 0
    outer loop
      vertex 7.3 13.75 13.75
      vertex 7.3 13.8269 19.0223
      vertex 7.3 13.75 20
    endloop
  endfacet
  facet normal 0 1 0
    outer loop
      vertex 8 13.75 26.25
      vertex 7.3 13.75 20
      vertex 7.3 13.75 26.25
    endloop
  endfacet
  facet normal 0 1 -0
    outer loop
      vertex 8 13.75 13.75
      vertex 7.3 13.75 20
      vertex 8 13.75 26.25
    endloop
  endfacet
  facet normal 0 1 0
    outer loop
      vertex 7.3 13.75 20
      vertex 8 13.75 13.75
      vertex 7.3 13.75 13.75
    endloop
  endfacet
  facet normal 0 0.996917 0.0784595
    outer loop
      vertex 7.3 13.8269 19.0223
      vertex 3.5 13.75 20
      vertex 7.3 13.75 20
    endloop
  endfacet
  facet normal 0 0.996917 0.0784595
    outer loop
      vertex 3.5 13.75 20
      vertex 7.3 13.8269 19.0223
      vertex 3.5 13.8269 19.0223
    endloop
  endfacet
  facet normal -0 0.522499 0.85264
    outer loop
      vertex 3.5 17.1626 14.4312
      vertex 7.3 16.3263 14.9436
      vertex 7.3 17.1626 14.4312
    endloop
  endfacet
  facet normal 0 0.522499 0.85264
    outer loop
      vertex 7.3 16.3263 14.9436
      vertex 3.5 17.1626 14.4312
      vertex 3.5 16.3263 14.9436
    endloop
  endfacet
  facet normal 0 0.522499 -0.85264
    outer loop
      vertex 3.5 16.3263 25.0564
      vertex 7.3 17.1626 25.5688
      vertex 7.3 16.3263 25.0564
    endloop
  endfacet
  facet normal 0 0.522499 -0.85264
    outer loop
      vertex 7.3 17.1626 25.5688
      vertex 3.5 16.3263 25.0564
      vertex 3.5 17.1626 25.5688
    endloop
  endfacet
  facet normal 5.00387e-07 0.0784575 -0.996917
    outer loop
      vertex 3.5 19.0223 26.1731
      vertex 7.3 20 26.25
      vertex 7.3 19.0223 26.1731
    endloop
  endfacet
  facet normal 0 0.0784595 -0.996917
    outer loop
      vertex 7.3 20 26.25
      vertex 3.5 19.0223 26.1731
      vertex 3.5 20 26.25
    endloop
  endfacet
  facet normal 0 0.85264 0.522499
    outer loop
      vertex 7.3 14.9436 16.3263
      vertex 3.5 14.4312 17.1626
      vertex 7.3 14.4312 17.1626
    endloop
  endfacet
  facet normal -2.6226e-07 0.85264 0.522499
    outer loop
      vertex 3.5 14.4312 17.1626
      vertex 7.3 14.9436 16.3263
      vertex 3.5 14.9436 16.3263
    endloop
  endfacet
  facet normal -0 0.649447 0.760407
    outer loop
      vertex 3.5 16.3263 14.9436
      vertex 7.3 15.5806 15.5806
      vertex 7.3 16.3263 14.9436
    endloop
  endfacet
  facet normal 0 0.649447 0.760407
    outer loop
      vertex 7.3 15.5806 15.5806
      vertex 3.5 16.3263 14.9436
      vertex 3.5 15.5806 15.5806
    endloop
  endfacet
  facet normal -0 0.0784595 0.996917
    outer loop
      vertex 3.5 20 13.75
      vertex 7.3 19.0223 13.8269
      vertex 7.3 20 13.75
    endloop
  endfacet
  facet normal 0 0.0784595 0.996917
    outer loop
      vertex 7.3 19.0223 13.8269
      vertex 3.5 20 13.75
      vertex 3.5 19.0223 13.8269
    endloop
  endfacet
  facet normal 0 0.233447 -0.97237
    outer loop
      vertex 3.5 18.0686 25.9441
      vertex 7.3 19.0223 26.1731
      vertex 7.3 18.0686 25.9441
    endloop
  endfacet
  facet normal 4.88065e-07 0.233445 -0.97237
    outer loop
      vertex 7.3 19.0223 26.1731
      vertex 3.5 18.0686 25.9441
      vertex 3.5 19.0223 26.1731
    endloop
  endfacet
  facet normal 0 0.97237 0.233446
    outer loop
      vertex 7.3 14.0559 18.0686
      vertex 3.5 13.8269 19.0223
      vertex 7.3 13.8269 19.0223
    endloop
  endfacet
  facet normal -1.17174e-07 0.97237 0.233446
    outer loop
      vertex 3.5 13.8269 19.0223
      vertex 7.3 14.0559 18.0686
      vertex 3.5 14.0559 18.0686
    endloop
  endfacet
  facet normal -0 0.382682 0.92388
    outer loop
      vertex 3.5 18.0686 14.0559
      vertex 7.3 17.1626 14.4312
      vertex 7.3 18.0686 14.0559
    endloop
  endfacet
  facet normal 0 0.382682 0.92388
    outer loop
      vertex 7.3 17.1626 14.4312
      vertex 3.5 18.0686 14.0559
      vertex 3.5 17.1626 14.4312
    endloop
  endfacet
  facet normal 0 0.760407 -0.649447
    outer loop
      vertex 7.3 14.9436 23.6737
      vertex 3.5 15.5806 24.4194
      vertex 7.3 15.5806 24.4194
    endloop
  endfacet
  facet normal 0 0.760407 -0.649447
    outer loop
      vertex 3.5 15.5806 24.4194
      vertex 7.3 14.9436 23.6737
      vertex 3.5 14.9436 23.6737
    endloop
  endfacet
  facet normal 0 0.382683 -0.92388
    outer loop
      vertex 3.5 17.1626 25.5688
      vertex 7.3 18.0686 25.9441
      vertex 7.3 17.1626 25.5688
    endloop
  endfacet
  facet normal 0 0.382683 -0.92388
    outer loop
      vertex 7.3 18.0686 25.9441
      vertex 3.5 17.1626 25.5688
      vertex 3.5 18.0686 25.9441
    endloop
  endfacet
  facet normal -1.92081e-07 0.92388 0.382682
    outer loop
      vertex 7.3 14.4312 17.1626
      vertex 3.5 14.0559 18.0686
      vertex 7.3 14.0559 18.0686
    endloop
  endfacet
  facet normal 0 0.92388 0.382683
    outer loop
      vertex 3.5 14.0559 18.0686
      vertex 7.3 14.4312 17.1626
      vertex 3.5 14.4312 17.1626
    endloop
  endfacet
  facet normal -3.25979e-07 0.760407 0.649447
    outer loop
      vertex 7.3 15.5806 15.5806
      vertex 3.5 14.9436 16.3263
      vertex 7.3 14.9436 16.3263
    endloop
  endfacet
  facet normal 0 0.760406 0.649448
    outer loop
      vertex 3.5 14.9436 16.3263
      vertex 7.3 15.5806 15.5806
      vertex 3.5 15.5806 15.5806
    endloop
  endfacet
  facet normal -0 0.233446 0.97237
    outer loop
      vertex 3.5 19.0223 13.8269
      vertex 7.3 18.0686 14.0559
      vertex 7.3 19.0223 13.8269
    endloop
  endfacet
  facet normal 0 0.233446 0.97237
    outer loop
      vertex 7.3 18.0686 14.0559
      vertex 3.5 19.0223 13.8269
      vertex 3.5 18.0686 14.0559
    endloop
  endfacet
  facet normal 0 0.85264 -0.522499
    outer loop
      vertex 7.3 14.4312 22.8374
      vertex 3.5 14.9436 23.6737
      vertex 7.3 14.9436 23.6737
    endloop
  endfacet
  facet normal 0 0.85264 -0.522499
    outer loop
      vertex 3.5 14.9436 23.6737
      vertex 7.3 14.4312 22.8374
      vertex 3.5 14.4312 22.8374
    endloop
  endfacet
  facet normal 0 0.996917 -0.0784595
    outer loop
      vertex 7.3 13.75 20
      vertex 3.5 13.8269 20.9777
      vertex 7.3 13.8269 20.9777
    endloop
  endfacet
  facet normal 0 0.996917 -0.0784595
    outer loop
      vertex 3.5 13.8269 20.9777
      vertex 7.3 13.75 20
      vertex 3.5 13.75 20
    endloop
  endfacet
  facet normal 0 0.649447 -0.760407
    outer loop
      vertex 3.5 15.5806 24.4194
      vertex 7.3 16.3263 25.0564
      vertex 7.3 15.5806 24.4194
    endloop
  endfacet
  facet normal 0 0.649447 -0.760407
    outer loop
      vertex 7.3 16.3263 25.0564
      vertex 3.5 15.5806 24.4194
      vertex 3.5 16.3263 25.0564
    endloop
  endfacet
  facet normal 0 0.92388 -0.382683
    outer loop
      vertex 7.3 14.0559 21.9314
      vertex 3.5 14.4312 22.8374
      vertex 7.3 14.4312 22.8374
    endloop
  endfacet
  facet normal 0 0.92388 -0.382683
    outer loop
      vertex 3.5 14.4312 22.8374
      vertex 7.3 14.0559 21.9314
      vertex 3.5 14.0559 21.9314
    endloop
  endfacet
  facet normal 0 0.97237 -0.233446
    outer loop
      vertex 7.3 13.8269 20.9777
      vertex 3.5 14.0559 21.9314
      vertex 7.3 14.0559 21.9314
    endloop
  endfacet
  facet normal 0 0.97237 -0.233446
    outer loop
      vertex 3.5 14.0559 21.9314
      vertex 7.3 13.8269 20.9777
      vertex 3.5 13.8269 20.9777
    endloop
  endfacet
  facet normal -0 0 1
    outer loop
      vertex 49.9 20 13.75
      vertex 55 15 13.75
      vertex 55 20 13.75
    endloop
  endfacet
  facet normal 0 0 1
    outer loop
      vertex 55 15 13.75
      vertex 49.9 20 13.75
      vertex 49.9 15 13.75
    endloop
  endfacet
  facet normal 1 -0 0
    outer loop
      vertex 49.9 15 16
      vertex 49.9 20 13.75
      vertex 49.9 20 16
    endloop
  endfacet
  facet normal 1 0 0
    outer loop
      vertex 49.9 20 13.75
      vertex 49.9 15 16
      vertex 49.9 15 13.75
    endloop
  endfacet
  facet normal 0 0 -1
    outer loop
      vertex 30 10.9584 2.5
      vertex 34.8028 14.8028 2.5
      vertex 30.4541 10.4541 2.5
    endloop
  endfacet
  facet normal -0 0 -1
    outer loop
      vertex 34.8028 14.8028 2.5
      vertex 30 10.9584 2.5
      vertex 34.288 15.3745 2.5
    endloop
  endfacet
  facet normal -0 0 -1
    outer loop
      vertex 34.288 15.3745 2.5
      vertex 30 10.9584 2.5
      vertex 33.8358 15.9969 2.5
    endloop
  endfacet
  facet normal 0 0 -1
    outer loop
      vertex 29.8943 17.3488 2.5
      vertex 33.8358 15.9969 2.5
      vertex 30 10.9584 2.5
    endloop
  endfacet
  facet normal 0 0 -1
    outer loop
      vertex 33.8358 15.9969 2.5
      vertex 29.8943 17.3488 2.5
      vertex 33.4511 16.6632 2.5
    endloop
  endfacet
  facet normal 0 0 -1
    outer loop
      vertex 33.4511 16.6632 2.5
      vertex 29.8943 17.3488 2.5
      vertex 33.1382 17.366 2.5
    endloop
  endfacet
  facet normal -0 0 -1
    outer loop
      vertex 33.1382 17.366 2.5
      vertex 29.8943 17.3488 2.5
      vertex 32.9005 18.0977 2.5
    endloop
  endfacet
  facet normal -0 0 -1
    outer loop
      vertex 32.9005 18.0977 2.5
      vertex 29.8943 17.3488 2.5
      vertex 32.8924 18.1354 2.5
    endloop
  endfacet
  facet normal 0 0 -1
    outer loop
      vertex 25.1972 14.8028 2.5
      vertex 30 10.9584 2.5
      vertex 29.5459 10.4541 2.5
    endloop
  endfacet
  facet normal 0 0 -1
    outer loop
      vertex 25.1972 14.8028 2.5
      vertex 29.5459 10.4541 2.5
      vertex 29.4933 10.4067 2.5
    endloop
  endfacet
  facet normal 0 0 -1
    outer loop
      vertex 30 10.9584 2.5
      vertex 26.1642 15.9969 2.5
      vertex 29.8943 17.3488 2.5
    endloop
  endfacet
  facet normal 0 0 -1
    outer loop
      vertex 29.8943 17.3488 2.5
      vertex 26.8618 17.366 2.5
      vertex 27.0995 18.0977 2.5
    endloop
  endfacet
  facet normal -0 0 -1
    outer loop
      vertex 29.8943 17.3488 2.5
      vertex 26.5489 16.6632 2.5
      vertex 26.8618 17.366 2.5
    endloop
  endfacet
  facet normal 0 0 -1
    outer loop
      vertex 29.8943 17.3488 2.5
      vertex 26.1642 15.9969 2.5
      vertex 26.5489 16.6632 2.5
    endloop
  endfacet
  facet normal 0 0 -1
    outer loop
      vertex 30 10.9584 2.5
      vertex 25.712 15.3745 2.5
      vertex 26.1642 15.9969 2.5
    endloop
  endfacet
  facet normal 0 0 -1
    outer loop
      vertex 30 10.9584 2.5
      vertex 25.1972 14.8028 2.5
      vertex 25.712 15.3745 2.5
    endloop
  endfacet
  facet normal 0 -0 -1
    outer loop
      vertex 25.1972 14.8028 2.5
      vertex 29.4933 10.4067 2.5
      vertex 25.1686 14.777 2.5
    endloop
  endfacet
  facet normal 0 0 -1
    outer loop
      vertex 10.4541 10.4541 2.5
      vertex 14.288 15.3745 2.5
      vertex 14.8028 14.8028 2.5
    endloop
  endfacet
  facet normal 0 0 -1
    outer loop
      vertex 9.50854 11.5042 2.5
      vertex 14.288 15.3745 2.5
      vertex 10.4541 10.4541 2.5
    endloop
  endfacet
  facet normal -0 0 -1
    outer loop
      vertex 14.288 15.3745 2.5
      vertex 9.50854 11.5042 2.5
      vertex 13.8358 15.9969 2.5
    endloop
  endfacet
  facet normal 0 0 -1
    outer loop
      vertex 8.67796 12.6474 2.5
      vertex 13.8358 15.9969 2.5
      vertex 9.50854 11.5042 2.5
    endloop
  endfacet
  facet normal -0 0 -1
    outer loop
      vertex 13.8358 15.9969 2.5
      vertex 8.67796 12.6474 2.5
      vertex 13.4511 16.6632 2.5
    endloop
  endfacet
  facet normal 0 0 -1
    outer loop
      vertex 7.97143 13.8711 2.5
      vertex 13.4511 16.6632 2.5
      vertex 8.67796 12.6474 2.5
    endloop
  endfacet
  facet normal -0 0 -1
    outer loop
      vertex 13.4511 16.6632 2.5
      vertex 7.97143 13.8711 2.5
      vertex 13.1382 17.366 2.5
    endloop
  endfacet
  facet normal 0 0 -1
    outer loop
      vertex 7.39667 15.162 2.5
      vertex 13.1382 17.366 2.5
      vertex 7.97143 13.8711 2.5
    endloop
  endfacet
  facet normal -0 0 -1
    outer loop
      vertex 13.1382 17.366 2.5
      vertex 7.39667 15.162 2.5
      vertex 12.9005 18.0977 2.5
    endloop
  endfacet
  facet normal 0 0 -1
    outer loop
      vertex 6.96002 16.506 2.5
      vertex 12.9005 18.0977 2.5
      vertex 7.39667 15.162 2.5
    endloop
  endfacet
  facet normal 0 0 -1
    outer loop
      vertex 6.94531 16.5752 2.5
      vertex 12.9005 18.0977 2.5
      vertex 6.96002 16.506 2.5
    endloop
  endfacet
  facet normal -0 0 -1
    outer loop
      vertex 12.9005 18.0977 2.5
      vertex 6.94531 16.5752 2.5
      vertex 12.8924 18.1354 2.5
    endloop
  endfacet
  facet normal 0 0 -1
    outer loop
      vertex 22.1119 6.66622 2.5
      vertex 21.9023 12.9005 2.5
      vertex 23.4941 6.96001 2.5
    endloop
  endfacet
  facet normal 0 0 -1
    outer loop
      vertex 22.1119 6.66622 2.5
      vertex 21.1498 12.7405 2.5
      vertex 21.9023 12.9005 2.5
    endloop
  endfacet
  facet normal 0 0 -1
    outer loop
      vertex 20.7065 6.51852 2.5
      vertex 21.1498 12.7405 2.5
      vertex 22.1119 6.66622 2.5
    endloop
  endfacet
  facet normal 0 0 -1
    outer loop
      vertex 20.7065 6.51852 2.5
      vertex 20.3847 12.6601 2.5
      vertex 21.1498 12.7405 2.5
    endloop
  endfacet
  facet normal 0 0 -1
    outer loop
      vertex 20.7065 6.51852 2.5
      vertex 19.6153 12.6601 2.5
      vertex 20.3847 12.6601 2.5
    endloop
  endfacet
  facet normal 0 0 -1
    outer loop
      vertex 19.2935 6.51851 2.5
      vertex 19.6153 12.6601 2.5
      vertex 20.7065 6.51852 2.5
    endloop
  endfacet
  facet normal 0 0 -1
    outer loop
      vertex 19.2935 6.51851 2.5
      vertex 18.8502 12.7405 2.5
      vertex 19.6153 12.6601 2.5
    endloop
  endfacet
  facet normal 0 0 -1
    outer loop
      vertex 17.8881 6.66621 2.5
      vertex 18.8502 12.7405 2.5
      vertex 19.2935 6.51851 2.5
    endloop
  endfacet
  facet normal -0 0 -1
    outer loop
      vertex 18.8502 12.7405 2.5
      vertex 17.8881 6.66621 2.5
      vertex 18.0977 12.9005 2.5
    endloop
  endfacet
  facet normal 0 0 -1
    outer loop
      vertex 16.5059 6.96 2.5
      vertex 18.0977 12.9005 2.5
      vertex 17.8881 6.66621 2.5
    endloop
  endfacet
  facet normal 0 0 -1
    outer loop
      vertex 16.4386 6.98187 2.5
      vertex 18.0977 12.9005 2.5
      vertex 16.5059 6.96 2.5
    endloop
  endfacet
  facet normal -0 0 -1
    outer loop
      vertex 18.0977 12.9005 2.5
      vertex 16.4386 6.98187 2.5
      vertex 18.061 12.9124 2.5
    endloop
  endfacet
  facet normal -0.743142 0.669133 0
    outer loop
      vertex 29.5459 10.4541 0
      vertex 30 10.9584 2.5
      vertex 30 10.9584 0
    endloop
  endfacet
  facet normal -0.743142 0.669133 0
    outer loop
      vertex 30 10.9584 2.5
      vertex 29.5459 10.4541 0
      vertex 29.5459 10.4541 2.5
    endloop
  endfacet
  facet normal -0.258819 -0.965926 0
    outer loop
      vertex 27.0995 18.0977 0
      vertex 29.8943 17.3488 2.5
      vertex 27.0995 18.0977 2.5
    endloop
  endfacet
  facet normal -0.258819 -0.965926 -0
    outer loop
      vertex 29.8943 17.3488 2.5
      vertex 27.0995 18.0977 0
      vertex 29.8943 17.3488 0
    endloop
  endfacet
  facet normal 0.951056 -0.309019 0
    outer loop
      vertex 26.8618 17.366 2.5
      vertex 27.0995 18.0977 0
      vertex 27.0995 18.0977 2.5
    endloop
  endfacet
  facet normal 0.951056 -0.309019 0
    outer loop
      vertex 27.0995 18.0977 0
      vertex 26.8618 17.366 2.5
      vertex 26.8618 17.366 0
    endloop
  endfacet
  facet normal 0.913546 -0.406735 0
    outer loop
      vertex 26.5489 16.6632 2.5
      vertex 26.8618 17.366 0
      vertex 26.8618 17.366 2.5
    endloop
  endfacet
  facet normal 0.913546 -0.406735 0
    outer loop
      vertex 26.8618 17.366 0
      vertex 26.5489 16.6632 2.5
      vertex 26.5489 16.6632 0
    endloop
  endfacet
  facet normal 0.866032 -0.499989 0
    outer loop
      vertex 26.1642 15.9969 2.5
      vertex 26.5489 16.6632 0
      vertex 26.5489 16.6632 2.5
    endloop
  endfacet
  facet normal 0.866032 -0.499989 0
    outer loop
      vertex 26.5489 16.6632 0
      vertex 26.1642 15.9969 2.5
      vertex 26.1642 15.9969 0
    endloop
  endfacet
  facet normal 0.809012 -0.587792 0
    outer loop
      vertex 25.712 15.3745 2.5
      vertex 26.1642 15.9969 0
      vertex 26.1642 15.9969 2.5
    endloop
  endfacet
  facet normal 0.809012 -0.587792 0
    outer loop
      vertex 26.1642 15.9969 0
      vertex 25.712 15.3745 2.5
      vertex 25.712 15.3745 0
    endloop
  endfacet
  facet normal 0.743144 -0.669132 0
    outer loop
      vertex 25.1972 14.8028 2.5
      vertex 25.712 15.3745 0
      vertex 25.712 15.3745 2.5
    endloop
  endfacet
  facet normal 0.743144 -0.669132 0
    outer loop
      vertex 25.712 15.3745 0
      vertex 25.1972 14.8028 2.5
      vertex 25.1972 14.8028 0
    endloop
  endfacet
  facet normal 0.669252 -0.743036 0
    outer loop
      vertex 25.1686 14.777 0
      vertex 25.1972 14.8028 2.5
      vertex 25.1686 14.777 2.5
    endloop
  endfacet
  facet normal 0.669252 -0.743036 0
    outer loop
      vertex 25.1972 14.8028 2.5
      vertex 25.1686 14.777 0
      vertex 25.1972 14.8028 0
    endloop
  endfacet
  facet normal 0.7108 0.703394 0
    outer loop
      vertex 29.4933 10.4067 2.5
      vertex 25.1686 14.777 0
      vertex 25.1686 14.777 2.5
    endloop
  endfacet
  facet normal 0.7108 0.703394 0
    outer loop
      vertex 25.1686 14.777 0
      vertex 29.4933 10.4067 2.5
      vertex 29.4933 10.4067 0
    endloop
  endfacet
  facet normal -0.669157 0.743121 0
    outer loop
      vertex 29.5459 10.4541 0
      vertex 29.4933 10.4067 2.5
      vertex 29.5459 10.4541 2.5
    endloop
  endfacet
  facet normal -0.669157 0.743121 0
    outer loop
      vertex 29.4933 10.4067 2.5
      vertex 29.5459 10.4541 0
      vertex 29.4933 10.4067 0
    endloop
  endfacet
  facet normal -0.743135 -0.669141 0
    outer loop
      vertex 14.8028 14.8028 0
      vertex 14.288 15.3745 2.5
      vertex 14.288 15.3745 0
    endloop
  endfacet
  facet normal -0.743135 -0.669141 0
    outer loop
      vertex 14.288 15.3745 2.5
      vertex 14.8028 14.8028 0
      vertex 14.8028 14.8028 2.5
    endloop
  endfacet
  facet normal -0.809019 -0.587782 0
    outer loop
      vertex 14.288 15.3745 0
      vertex 13.8358 15.9969 2.5
      vertex 13.8358 15.9969 0
    endloop
  endfacet
  facet normal -0.809019 -0.587782 0
    outer loop
      vertex 13.8358 15.9969 2.5
      vertex 14.288 15.3745 0
      vertex 14.288 15.3745 2.5
    endloop
  endfacet
  facet normal -0.866025 -0.5 0
    outer loop
      vertex 13.8358 15.9969 0
      vertex 13.4511 16.6632 2.5
      vertex 13.4511 16.6632 0
    endloop
  endfacet
  facet normal -0.866025 -0.5 0
    outer loop
      vertex 13.4511 16.6632 2.5
      vertex 13.8358 15.9969 0
      vertex 13.8358 15.9969 2.5
    endloop
  endfacet
  facet normal -0.913544 -0.40674 0
    outer loop
      vertex 13.4511 16.6632 0
      vertex 13.1382 17.366 2.5
      vertex 13.1382 17.366 0
    endloop
  endfacet
  facet normal -0.913544 -0.40674 0
    outer loop
      vertex 13.1382 17.366 2.5
      vertex 13.4511 16.6632 0
      vertex 13.4511 16.6632 2.5
    endloop
  endfacet
  facet normal -0.951061 -0.309003 0
    outer loop
      vertex 13.1382 17.366 0
      vertex 12.9005 18.0977 2.5
      vertex 12.9005 18.0977 0
    endloop
  endfacet
  facet normal -0.951061 -0.309003 0
    outer loop
      vertex 12.9005 18.0977 2.5
      vertex 13.1382 17.366 0
      vertex 13.1382 17.366 2.5
    endloop
  endfacet
  facet normal -0.978142 -0.207939 0
    outer loop
      vertex 12.9005 18.0977 0
      vertex 12.8924 18.1354 2.5
      vertex 12.8924 18.1354 0
    endloop
  endfacet
  facet normal -0.978142 -0.207939 0
    outer loop
      vertex 12.8924 18.1354 2.5
      vertex 12.9005 18.0977 0
      vertex 12.9005 18.0977 2.5
    endloop
  endfacet
  facet normal 0.253757 -0.967268 0
    outer loop
      vertex 6.94531 16.5752 0
      vertex 12.8924 18.1354 2.5
      vertex 6.94531 16.5752 2.5
    endloop
  endfacet
  facet normal 0.253757 -0.967268 0
    outer loop
      vertex 12.8924 18.1354 2.5
      vertex 6.94531 16.5752 0
      vertex 12.8924 18.1354 0
    endloop
  endfacet
  facet normal 0.978163 0.207841 0
    outer loop
      vertex 6.96002 16.506 2.5
      vertex 6.94531 16.5752 0
      vertex 6.94531 16.5752 2.5
    endloop
  endfacet
  facet normal 0.978163 0.207841 0
    outer loop
      vertex 6.94531 16.5752 0
      vertex 6.96002 16.506 2.5
      vertex 6.96002 16.506 0
    endloop
  endfacet
  facet normal 0.951058 0.309012 0
    outer loop
      vertex 7.39667 15.162 2.5
      vertex 6.96002 16.506 0
      vertex 6.96002 16.506 2.5
    endloop
  endfacet
  facet normal 0.951058 0.309012 0
    outer loop
      vertex 6.96002 16.506 0
      vertex 7.39667 15.162 2.5
      vertex 7.39667 15.162 0
    endloop
  endfacet
  facet normal 0.913543 0.406742 0
    outer loop
      vertex 7.97143 13.8711 2.5
      vertex 7.39667 15.162 0
      vertex 7.39667 15.162 2.5
    endloop
  endfacet
  facet normal 0.913543 0.406742 0
    outer loop
      vertex 7.39667 15.162 0
      vertex 7.97143 13.8711 2.5
      vertex 7.97143 13.8711 0
    endloop
  endfacet
  facet normal 0.866025 0.5 0
    outer loop
      vertex 8.67796 12.6474 2.5
      vertex 7.97143 13.8711 0
      vertex 7.97143 13.8711 2.5
    endloop
  endfacet
  facet normal 0.866025 0.5 0
    outer loop
      vertex 7.97143 13.8711 0
      vertex 8.67796 12.6474 2.5
      vertex 8.67796 12.6474 0
    endloop
  endfacet
  facet normal 0.80902 0.587781 0
    outer loop
      vertex 9.50854 11.5042 2.5
      vertex 8.67796 12.6474 0
      vertex 8.67796 12.6474 2.5
    endloop
  endfacet
  facet normal 0.80902 0.587781 0
    outer loop
      vertex 8.67796 12.6474 0
      vertex 9.50854 11.5042 2.5
      vertex 9.50854 11.5042 0
    endloop
  endfacet
  facet normal 0.743146 0.66913 0
    outer loop
      vertex 10.4541 10.4541 2.5
      vertex 9.50854 11.5042 0
      vertex 9.50854 11.5042 2.5
    endloop
  endfacet
  facet normal 0.743146 0.66913 0
    outer loop
      vertex 9.50854 11.5042 0
      vertex 10.4541 10.4541 2.5
      vertex 10.4541 10.4541 0
    endloop
  endfacet
  facet normal -0.707105 0.707108 0
    outer loop
      vertex 14.8028 14.8028 0
      vertex 10.4541 10.4541 2.5
      vertex 14.8028 14.8028 2.5
    endloop
  endfacet
  facet normal -0.707105 0.707108 0
    outer loop
      vertex 10.4541 10.4541 2.5
      vertex 14.8028 14.8028 0
      vertex 10.4541 10.4541 0
    endloop
  endfacet
  facet normal 0.104526 0.994522 -0
    outer loop
      vertex 19.2935 6.51851 0
      vertex 17.8881 6.66621 2.5
      vertex 19.2935 6.51851 2.5
    endloop
  endfacet
  facet normal 0.104526 0.994522 0
    outer loop
      vertex 17.8881 6.66621 2.5
      vertex 19.2935 6.51851 0
      vertex 17.8881 6.66621 0
    endloop
  endfacet
  facet normal -4.04934e-06 1 0
    outer loop
      vertex 20.7065 6.51852 0
      vertex 19.2935 6.51851 2.5
      vertex 20.7065 6.51852 2.5
    endloop
  endfacet
  facet normal -4.04934e-06 1 0
    outer loop
      vertex 19.2935 6.51851 2.5
      vertex 20.7065 6.51852 0
      vertex 19.2935 6.51851 0
    endloop
  endfacet
  facet normal -0.104525 0.994522 0
    outer loop
      vertex 22.1119 6.66622 0
      vertex 20.7065 6.51852 2.5
      vertex 22.1119 6.66622 2.5
    endloop
  endfacet
  facet normal -0.104525 0.994522 0
    outer loop
      vertex 20.7065 6.51852 2.5
      vertex 22.1119 6.66622 0
      vertex 20.7065 6.51852 0
    endloop
  endfacet
  facet normal -0.207912 0.978148 0
    outer loop
      vertex 23.4941 6.96001 0
      vertex 22.1119 6.66622 2.5
      vertex 23.4941 6.96001 2.5
    endloop
  endfacet
  facet normal -0.207912 0.978148 0
    outer loop
      vertex 22.1119 6.66622 2.5
      vertex 23.4941 6.96001 0
      vertex 22.1119 6.66622 0
    endloop
  endfacet
  facet normal -0.965925 -0.258821 0
    outer loop
      vertex 23.4941 6.96001 0
      vertex 21.9023 12.9005 2.5
      vertex 21.9023 12.9005 0
    endloop
  endfacet
  facet normal -0.965925 -0.258821 0
    outer loop
      vertex 21.9023 12.9005 2.5
      vertex 23.4941 6.96001 0
      vertex 23.4941 6.96001 2.5
    endloop
  endfacet
  facet normal 0.207913 -0.978147 0
    outer loop
      vertex 21.1498 12.7405 0
      vertex 21.9023 12.9005 2.5
      vertex 21.1498 12.7405 2.5
    endloop
  endfacet
  facet normal 0.207913 -0.978147 0
    outer loop
      vertex 21.9023 12.9005 2.5
      vertex 21.1498 12.7405 0
      vertex 21.9023 12.9005 0
    endloop
  endfacet
  facet normal 0.104538 -0.994521 0
    outer loop
      vertex 20.3847 12.6601 0
      vertex 21.1498 12.7405 2.5
      vertex 20.3847 12.6601 2.5
    endloop
  endfacet
  facet normal 0.104538 -0.994521 0
    outer loop
      vertex 21.1498 12.7405 2.5
      vertex 20.3847 12.6601 0
      vertex 21.1498 12.7405 0
    endloop
  endfacet
  facet normal -1.23959e-05 -1 0
    outer loop
      vertex 19.6153 12.6601 0
      vertex 20.3847 12.6601 2.5
      vertex 19.6153 12.6601 2.5
    endloop
  endfacet
  facet normal -1.23959e-05 -1 -0
    outer loop
      vertex 20.3847 12.6601 2.5
      vertex 19.6153 12.6601 0
      vertex 20.3847 12.6601 0
    endloop
  endfacet
  facet normal -0.104533 -0.994521 0
    outer loop
      vertex 18.8502 12.7405 0
      vertex 19.6153 12.6601 2.5
      vertex 18.8502 12.7405 2.5
    endloop
  endfacet
  facet normal -0.104533 -0.994521 -0
    outer loop
      vertex 19.6153 12.6601 2.5
      vertex 18.8502 12.7405 0
      vertex 19.6153 12.6601 0
    endloop
  endfacet
  facet normal -0.207907 -0.978149 0
    outer loop
      vertex 18.0977 12.9005 0
      vertex 18.8502 12.7405 2.5
      vertex 18.0977 12.9005 2.5
    endloop
  endfacet
  facet normal -0.207907 -0.978149 -0
    outer loop
      vertex 18.8502 12.7405 2.5
      vertex 18.0977 12.9005 0
      vertex 18.8502 12.7405 0
    endloop
  endfacet
  facet normal -0.30897 -0.951072 0
    outer loop
      vertex 18.061 12.9124 0
      vertex 18.0977 12.9005 2.5
      vertex 18.061 12.9124 2.5
    endloop
  endfacet
  facet normal -0.30897 -0.951072 -0
    outer loop
      vertex 18.0977 12.9005 2.5
      vertex 18.061 12.9124 0
      vertex 18.0977 12.9005 0
    endloop
  endfacet
  facet normal 0.964557 -0.263874 0
    outer loop
      vertex 16.4386 6.98187 2.5
      vertex 18.061 12.9124 0
      vertex 18.061 12.9124 2.5
    endloop
  endfacet
  facet normal 0.964557 -0.263874 0
    outer loop
      vertex 18.061 12.9124 0
      vertex 16.4386 6.98187 2.5
      vertex 16.4386 6.98187 0
    endloop
  endfacet
  facet normal 0.309074 0.951038 -0
    outer loop
      vertex 16.5059 6.96 0
      vertex 16.4386 6.98187 2.5
      vertex 16.5059 6.96 2.5
    endloop
  endfacet
  facet normal 0.309074 0.951038 0
    outer loop
      vertex 16.4386 6.98187 2.5
      vertex 16.5059 6.96 0
      vertex 16.4386 6.98187 0
    endloop
  endfacet
  facet normal 0.207908 0.978148 -0
    outer loop
      vertex 17.8881 6.66621 0
      vertex 16.5059 6.96 2.5
      vertex 17.8881 6.66621 2.5
    endloop
  endfacet
  facet normal 0.207908 0.978148 0
    outer loop
      vertex 16.5059 6.96 2.5
      vertex 17.8881 6.66621 0
      vertex 16.5059 6.96 0
    endloop
  endfacet
  facet normal 0 0 -1
    outer loop
      vertex 50 10.9584 2.5
      vertex 54.8028 14.8028 2.5
      vertex 50.4541 10.4541 2.5
    endloop
  endfacet
  facet normal -0 0 -1
    outer loop
      vertex 54.8028 14.8028 2.5
      vertex 50 10.9584 2.5
      vertex 54.288 15.3745 2.5
    endloop
  endfacet
  facet normal -0 0 -1
    outer loop
      vertex 54.288 15.3745 2.5
      vertex 50 10.9584 2.5
      vertex 53.8358 15.9969 2.5
    endloop
  endfacet
  facet normal 0 0 -1
    outer loop
      vertex 49.8943 17.3488 2.5
      vertex 53.8358 15.9969 2.5
      vertex 50 10.9584 2.5
    endloop
  endfacet
  facet normal 0 0 -1
    outer loop
      vertex 53.8358 15.9969 2.5
      vertex 49.8943 17.3488 2.5
      vertex 53.4511 16.6632 2.5
    endloop
  endfacet
  facet normal 0 0 -1
    outer loop
      vertex 53.4511 16.6632 2.5
      vertex 49.8943 17.3488 2.5
      vertex 53.1382 17.366 2.5
    endloop
  endfacet
  facet normal -0 0 -1
    outer loop
      vertex 53.1382 17.366 2.5
      vertex 49.8943 17.3488 2.5
      vertex 52.9005 18.0977 2.5
    endloop
  endfacet
  facet normal -0 0 -1
    outer loop
      vertex 52.9005 18.0977 2.5
      vertex 49.8943 17.3488 2.5
      vertex 52.8924 18.1354 2.5
    endloop
  endfacet
  facet normal 0 0 -1
    outer loop
      vertex 45.1972 14.8028 2.5
      vertex 50 10.9584 2.5
      vertex 49.5459 10.4541 2.5
    endloop
  endfacet
  facet normal 0 0 -1
    outer loop
      vertex 45.1972 14.8028 2.5
      vertex 49.5459 10.4541 2.5
      vertex 49.4933 10.4067 2.5
    endloop
  endfacet
  facet normal 0 0 -1
    outer loop
      vertex 50 10.9584 2.5
      vertex 46.1642 15.9969 2.5
      vertex 49.8943 17.3488 2.5
    endloop
  endfacet
  facet normal 0 0 -1
    outer loop
      vertex 49.8943 17.3488 2.5
      vertex 46.8618 17.366 2.5
      vertex 47.0995 18.0977 2.5
    endloop
  endfacet
  facet normal -0 0 -1
    outer loop
      vertex 49.8943 17.3488 2.5
      vertex 46.5489 16.6632 2.5
      vertex 46.8618 17.366 2.5
    endloop
  endfacet
  facet normal 0 0 -1
    outer loop
      vertex 49.8943 17.3488 2.5
      vertex 46.1642 15.9969 2.5
      vertex 46.5489 16.6632 2.5
    endloop
  endfacet
  facet normal 0 0 -1
    outer loop
      vertex 50 10.9584 2.5
      vertex 45.712 15.3745 2.5
      vertex 46.1642 15.9969 2.5
    endloop
  endfacet
  facet normal 0 0 -1
    outer loop
      vertex 50 10.9584 2.5
      vertex 45.1972 14.8028 2.5
      vertex 45.712 15.3745 2.5
    endloop
  endfacet
  facet normal 0 -0 -1
    outer loop
      vertex 45.1972 14.8028 2.5
      vertex 49.4933 10.4067 2.5
      vertex 45.1686 14.777 2.5
    endloop
  endfacet
  facet normal 0 0 -1
    outer loop
      vertex 42.1119 6.66622 2.5
      vertex 41.9023 12.9005 2.5
      vertex 43.4941 6.96001 2.5
    endloop
  endfacet
  facet normal 0 0 -1
    outer loop
      vertex 42.1119 6.66622 2.5
      vertex 41.1498 12.7405 2.5
      vertex 41.9023 12.9005 2.5
    endloop
  endfacet
  facet normal 0 0 -1
    outer loop
      vertex 40.7065 6.51852 2.5
      vertex 41.1498 12.7405 2.5
      vertex 42.1119 6.66622 2.5
    endloop
  endfacet
  facet normal 0 0 -1
    outer loop
      vertex 40.7065 6.51852 2.5
      vertex 40.3847 12.6601 2.5
      vertex 41.1498 12.7405 2.5
    endloop
  endfacet
  facet normal 0 0 -1
    outer loop
      vertex 40.7065 6.51852 2.5
      vertex 39.6153 12.6601 2.5
      vertex 40.3847 12.6601 2.5
    endloop
  endfacet
  facet normal 0 0 -1
    outer loop
      vertex 39.2934 6.51851 2.5
      vertex 39.6153 12.6601 2.5
      vertex 40.7065 6.51852 2.5
    endloop
  endfacet
  facet normal 0 0 -1
    outer loop
      vertex 39.2934 6.51851 2.5
      vertex 38.8502 12.7405 2.5
      vertex 39.6153 12.6601 2.5
    endloop
  endfacet
  facet normal 0 0 -1
    outer loop
      vertex 37.8881 6.66621 2.5
      vertex 38.8502 12.7405 2.5
      vertex 39.2934 6.51851 2.5
    endloop
  endfacet
  facet normal -0 0 -1
    outer loop
      vertex 38.8502 12.7405 2.5
      vertex 37.8881 6.66621 2.5
      vertex 38.0977 12.9005 2.5
    endloop
  endfacet
  facet normal 0 0 -1
    outer loop
      vertex 36.5059 6.96 2.5
      vertex 38.0977 12.9005 2.5
      vertex 37.8881 6.66621 2.5
    endloop
  endfacet
  facet normal 0 0 -1
    outer loop
      vertex 36.4386 6.98187 2.5
      vertex 38.0977 12.9005 2.5
      vertex 36.5059 6.96 2.5
    endloop
  endfacet
  facet normal -0 0 -1
    outer loop
      vertex 38.0977 12.9005 2.5
      vertex 36.4386 6.98187 2.5
      vertex 38.061 12.9124 2.5
    endloop
  endfacet
  facet normal -0.743142 0.669133 0
    outer loop
      vertex 49.5459 10.4541 0
      vertex 50 10.9584 2.5
      vertex 50 10.9584 0
    endloop
  endfacet
  facet normal -0.743142 0.669133 0
    outer loop
      vertex 50 10.9584 2.5
      vertex 49.5459 10.4541 0
      vertex 49.5459 10.4541 2.5
    endloop
  endfacet
  facet normal -0.258819 -0.965926 0
    outer loop
      vertex 47.0995 18.0977 0
      vertex 49.8943 17.3488 2.5
      vertex 47.0995 18.0977 2.5
    endloop
  endfacet
  facet normal -0.258819 -0.965926 -0
    outer loop
      vertex 49.8943 17.3488 2.5
      vertex 47.0995 18.0977 0
      vertex 49.8943 17.3488 0
    endloop
  endfacet
  facet normal 0.951056 -0.309019 0
    outer loop
      vertex 46.8618 17.366 2.5
      vertex 47.0995 18.0977 0
      vertex 47.0995 18.0977 2.5
    endloop
  endfacet
  facet normal 0.951056 -0.309019 0
    outer loop
      vertex 47.0995 18.0977 0
      vertex 46.8618 17.366 2.5
      vertex 46.8618 17.366 0
    endloop
  endfacet
  facet normal 0.913546 -0.406735 0
    outer loop
      vertex 46.5489 16.6632 2.5
      vertex 46.8618 17.366 0
      vertex 46.8618 17.366 2.5
    endloop
  endfacet
  facet normal 0.913546 -0.406735 0
    outer loop
      vertex 46.8618 17.366 0
      vertex 46.5489 16.6632 2.5
      vertex 46.5489 16.6632 0
    endloop
  endfacet
  facet normal 0.866033 -0.499987 0
    outer loop
      vertex 46.1642 15.9969 2.5
      vertex 46.5489 16.6632 0
      vertex 46.5489 16.6632 2.5
    endloop
  endfacet
  facet normal 0.866033 -0.499987 0
    outer loop
      vertex 46.5489 16.6632 0
      vertex 46.1642 15.9969 2.5
      vertex 46.1642 15.9969 0
    endloop
  endfacet
  facet normal 0.809011 -0.587794 0
    outer loop
      vertex 45.712 15.3745 2.5
      vertex 46.1642 15.9969 0
      vertex 46.1642 15.9969 2.5
    endloop
  endfacet
  facet normal 0.809011 -0.587794 0
    outer loop
      vertex 46.1642 15.9969 0
      vertex 45.712 15.3745 2.5
      vertex 45.712 15.3745 0
    endloop
  endfacet
  facet normal 0.743144 -0.669132 0
    outer loop
      vertex 45.1972 14.8028 2.5
      vertex 45.712 15.3745 0
      vertex 45.712 15.3745 2.5
    endloop
  endfacet
  facet normal 0.743144 -0.669132 0
    outer loop
      vertex 45.712 15.3745 0
      vertex 45.1972 14.8028 2.5
      vertex 45.1972 14.8028 0
    endloop
  endfacet
  facet normal 0.669252 -0.743036 0
    outer loop
      vertex 45.1686 14.777 0
      vertex 45.1972 14.8028 2.5
      vertex 45.1686 14.777 2.5
    endloop
  endfacet
  facet normal 0.669252 -0.743036 0
    outer loop
      vertex 45.1972 14.8028 2.5
      vertex 45.1686 14.777 0
      vertex 45.1972 14.8028 0
    endloop
  endfacet
  facet normal 0.7108 0.703394 0
    outer loop
      vertex 49.4933 10.4067 2.5
      vertex 45.1686 14.777 0
      vertex 45.1686 14.777 2.5
    endloop
  endfacet
  facet normal 0.7108 0.703394 0
    outer loop
      vertex 45.1686 14.777 0
      vertex 49.4933 10.4067 2.5
      vertex 49.4933 10.4067 0
    endloop
  endfacet
  facet normal -0.669157 0.743121 0
    outer loop
      vertex 49.5459 10.4541 0
      vertex 49.4933 10.4067 2.5
      vertex 49.5459 10.4541 2.5
    endloop
  endfacet
  facet normal -0.669157 0.743121 0
    outer loop
      vertex 49.4933 10.4067 2.5
      vertex 49.5459 10.4541 0
      vertex 49.4933 10.4067 0
    endloop
  endfacet
  facet normal -0.743135 -0.669141 0
    outer loop
      vertex 34.8028 14.8028 0
      vertex 34.288 15.3745 2.5
      vertex 34.288 15.3745 0
    endloop
  endfacet
  facet normal -0.743135 -0.669141 0
    outer loop
      vertex 34.288 15.3745 2.5
      vertex 34.8028 14.8028 0
      vertex 34.8028 14.8028 2.5
    endloop
  endfacet
  facet normal -0.809019 -0.587782 0
    outer loop
      vertex 34.288 15.3745 0
      vertex 33.8358 15.9969 2.5
      vertex 33.8358 15.9969 0
    endloop
  endfacet
  facet normal -0.809019 -0.587782 0
    outer loop
      vertex 33.8358 15.9969 2.5
      vertex 34.288 15.3745 0
      vertex 34.288 15.3745 2.5
    endloop
  endfacet
  facet normal -0.866024 -0.500003 0
    outer loop
      vertex 33.8358 15.9969 0
      vertex 33.4511 16.6632 2.5
      vertex 33.4511 16.6632 0
    endloop
  endfacet
  facet normal -0.866024 -0.500003 0
    outer loop
      vertex 33.4511 16.6632 2.5
      vertex 33.8358 15.9969 0
      vertex 33.8358 15.9969 2.5
    endloop
  endfacet
  facet normal -0.913544 -0.40674 0
    outer loop
      vertex 33.4511 16.6632 0
      vertex 33.1382 17.366 2.5
      vertex 33.1382 17.366 0
    endloop
  endfacet
  facet normal -0.913544 -0.40674 0
    outer loop
      vertex 33.1382 17.366 2.5
      vertex 33.4511 16.6632 0
      vertex 33.4511 16.6632 2.5
    endloop
  endfacet
  facet normal -0.951062 -0.309 0
    outer loop
      vertex 33.1382 17.366 0
      vertex 32.9005 18.0977 2.5
      vertex 32.9005 18.0977 0
    endloop
  endfacet
  facet normal -0.951062 -0.309 0
    outer loop
      vertex 32.9005 18.0977 2.5
      vertex 33.1382 17.366 0
      vertex 33.1382 17.366 2.5
    endloop
  endfacet
  facet normal -0.978132 -0.207987 0
    outer loop
      vertex 32.9005 18.0977 0
      vertex 32.8924 18.1354 2.5
      vertex 32.8924 18.1354 0
    endloop
  endfacet
  facet normal -0.978132 -0.207987 0
    outer loop
      vertex 32.8924 18.1354 2.5
      vertex 32.9005 18.0977 0
      vertex 32.9005 18.0977 2.5
    endloop
  endfacet
  facet normal 0.253758 -0.967268 0
    outer loop
      vertex 29.8943 17.3488 0
      vertex 32.8924 18.1354 2.5
      vertex 29.8943 17.3488 2.5
    endloop
  endfacet
  facet normal 0.253758 -0.967268 0
    outer loop
      vertex 32.8924 18.1354 2.5
      vertex 29.8943 17.3488 0
      vertex 32.8924 18.1354 0
    endloop
  endfacet
  facet normal 0.743145 0.669131 0
    outer loop
      vertex 30.4541 10.4541 2.5
      vertex 30 10.9584 0
      vertex 30 10.9584 2.5
    endloop
  endfacet
  facet normal 0.743145 0.669131 0
    outer loop
      vertex 30 10.9584 0
      vertex 30.4541 10.4541 2.5
      vertex 30.4541 10.4541 0
    endloop
  endfacet
  facet normal -0.707105 0.707108 0
    outer loop
      vertex 34.8028 14.8028 0
      vertex 30.4541 10.4541 2.5
      vertex 34.8028 14.8028 2.5
    endloop
  endfacet
  facet normal -0.707105 0.707108 0
    outer loop
      vertex 30.4541 10.4541 2.5
      vertex 34.8028 14.8028 0
      vertex 30.4541 10.4541 0
    endloop
  endfacet
  facet normal 0.104526 0.994522 -0
    outer loop
      vertex 39.2934 6.51851 0
      vertex 37.8881 6.66621 2.5
      vertex 39.2934 6.51851 2.5
    endloop
  endfacet
  facet normal 0.104526 0.994522 0
    outer loop
      vertex 37.8881 6.66621 2.5
      vertex 39.2934 6.51851 0
      vertex 37.8881 6.66621 0
    endloop
  endfacet
  facet normal -4.04934e-06 1 0
    outer loop
      vertex 40.7065 6.51852 0
      vertex 39.2934 6.51851 2.5
      vertex 40.7065 6.51852 2.5
    endloop
  endfacet
  facet normal -4.04934e-06 1 0
    outer loop
      vertex 39.2934 6.51851 2.5
      vertex 40.7065 6.51852 0
      vertex 39.2934 6.51851 0
    endloop
  endfacet
  facet normal -0.104525 0.994522 0
    outer loop
      vertex 42.1119 6.66622 0
      vertex 40.7065 6.51852 2.5
      vertex 42.1119 6.66622 2.5
    endloop
  endfacet
  facet normal -0.104525 0.994522 0
    outer loop
      vertex 40.7065 6.51852 2.5
      vertex 42.1119 6.66622 0
      vertex 40.7065 6.51852 0
    endloop
  endfacet
  facet normal -0.207912 0.978148 0
    outer loop
      vertex 43.4941 6.96001 0
      vertex 42.1119 6.66622 2.5
      vertex 43.4941 6.96001 2.5
    endloop
  endfacet
  facet normal -0.207912 0.978148 0
    outer loop
      vertex 42.1119 6.66622 2.5
      vertex 43.4941 6.96001 0
      vertex 42.1119 6.66622 0
    endloop
  endfacet
  facet normal -0.965925 -0.258821 0
    outer loop
      vertex 43.4941 6.96001 0
      vertex 41.9023 12.9005 2.5
      vertex 41.9023 12.9005 0
    endloop
  endfacet
  facet normal -0.965925 -0.258821 0
    outer loop
      vertex 41.9023 12.9005 2.5
      vertex 43.4941 6.96001 0
      vertex 43.4941 6.96001 2.5
    endloop
  endfacet
  facet normal 0.207913 -0.978147 0
    outer loop
      vertex 41.1498 12.7405 0
      vertex 41.9023 12.9005 2.5
      vertex 41.1498 12.7405 2.5
    endloop
  endfacet
  facet normal 0.207913 -0.978147 0
    outer loop
      vertex 41.9023 12.9005 2.5
      vertex 41.1498 12.7405 0
      vertex 41.9023 12.9005 0
    endloop
  endfacet
  facet normal 0.104538 -0.994521 0
    outer loop
      vertex 40.3847 12.6601 0
      vertex 41.1498 12.7405 2.5
      vertex 40.3847 12.6601 2.5
    endloop
  endfacet
  facet normal 0.104538 -0.994521 0
    outer loop
      vertex 41.1498 12.7405 2.5
      vertex 40.3847 12.6601 0
      vertex 41.1498 12.7405 0
    endloop
  endfacet
  facet normal -1.23959e-05 -1 0
    outer loop
      vertex 39.6153 12.6601 0
      vertex 40.3847 12.6601 2.5
      vertex 39.6153 12.6601 2.5
    endloop
  endfacet
  facet normal -1.23959e-05 -1 -0
    outer loop
      vertex 40.3847 12.6601 2.5
      vertex 39.6153 12.6601 0
      vertex 40.3847 12.6601 0
    endloop
  endfacet
  facet normal -0.104533 -0.994521 0
    outer loop
      vertex 38.8502 12.7405 0
      vertex 39.6153 12.6601 2.5
      vertex 38.8502 12.7405 2.5
    endloop
  endfacet
  facet normal -0.104533 -0.994521 -0
    outer loop
      vertex 39.6153 12.6601 2.5
      vertex 38.8502 12.7405 0
      vertex 39.6153 12.6601 0
    endloop
  endfacet
  facet normal -0.207907 -0.978149 0
    outer loop
      vertex 38.0977 12.9005 0
      vertex 38.8502 12.7405 2.5
      vertex 38.0977 12.9005 2.5
    endloop
  endfacet
  facet normal -0.207907 -0.978149 -0
    outer loop
      vertex 38.8502 12.7405 2.5
      vertex 38.0977 12.9005 0
      vertex 38.8502 12.7405 0
    endloop
  endfacet
  facet normal -0.30897 -0.951072 0
    outer loop
      vertex 38.061 12.9124 0
      vertex 38.0977 12.9005 2.5
      vertex 38.061 12.9124 2.5
    endloop
  endfacet
  facet normal -0.30897 -0.951072 -0
    outer loop
      vertex 38.0977 12.9005 2.5
      vertex 38.061 12.9124 0
      vertex 38.0977 12.9005 0
    endloop
  endfacet
  facet normal 0.964557 -0.263874 0
    outer loop
      vertex 36.4386 6.98187 2.5
      vertex 38.061 12.9124 0
      vertex 38.061 12.9124 2.5
    endloop
  endfacet
  facet normal 0.964557 -0.263874 0
    outer loop
      vertex 38.061 12.9124 0
      vertex 36.4386 6.98187 2.5
      vertex 36.4386 6.98187 0
    endloop
  endfacet
  facet normal 0.309067 0.95104 -0
    outer loop
      vertex 36.5059 6.96 0
      vertex 36.4386 6.98187 2.5
      vertex 36.5059 6.96 2.5
    endloop
  endfacet
  facet normal 0.309067 0.95104 0
    outer loop
      vertex 36.4386 6.98187 2.5
      vertex 36.5059 6.96 0
      vertex 36.4386 6.98187 0
    endloop
  endfacet
  facet normal 0.207908 0.978148 -0
    outer loop
      vertex 37.8881 6.66621 0
      vertex 36.5059 6.96 2.5
      vertex 37.8881 6.66621 2.5
    endloop
  endfacet
  facet normal 0.207908 0.978148 0
    outer loop
      vertex 36.5059 6.96 2.5
      vertex 37.8881 6.66621 0
      vertex 36.5059 6.96 0
    endloop
  endfacet
  facet normal 0 0 -1
    outer loop
      vertex 60 6.51851 2.5
      vertex 59.6153 12.6601 2.5
      vertex 60 12.6601 2.5
    endloop
  endfacet
  facet normal 0 0 -1
    outer loop
      vertex 59.2934 6.51851 2.5
      vertex 59.6153 12.6601 2.5
      vertex 60 6.51851 2.5
    endloop
  endfacet
  facet normal 0 0 -1
    outer loop
      vertex 59.2934 6.51851 2.5
      vertex 58.8502 12.7405 2.5
      vertex 59.6153 12.6601 2.5
    endloop
  endfacet
  facet normal 0 0 -1
    outer loop
      vertex 57.8881 6.66621 2.5
      vertex 58.8502 12.7405 2.5
      vertex 59.2934 6.51851 2.5
    endloop
  endfacet
  facet normal -0 0 -1
    outer loop
      vertex 58.8502 12.7405 2.5
      vertex 57.8881 6.66621 2.5
      vertex 58.0977 12.9005 2.5
    endloop
  endfacet
  facet normal 0 0 -1
    outer loop
      vertex 56.5059 6.96 2.5
      vertex 58.0977 12.9005 2.5
      vertex 57.8881 6.66621 2.5
    endloop
  endfacet
  facet normal 0 0 -1
    outer loop
      vertex 56.4386 6.98187 2.5
      vertex 58.0977 12.9005 2.5
      vertex 56.5059 6.96 2.5
    endloop
  endfacet
  facet normal -0 0 -1
    outer loop
      vertex 58.0977 12.9005 2.5
      vertex 56.4386 6.98187 2.5
      vertex 58.061 12.9124 2.5
    endloop
  endfacet
  facet normal -0.743135 -0.669141 0
    outer loop
      vertex 54.8028 14.8028 0
      vertex 54.288 15.3745 2.5
      vertex 54.288 15.3745 0
    endloop
  endfacet
  facet normal -0.743135 -0.669141 0
    outer loop
      vertex 54.288 15.3745 2.5
      vertex 54.8028 14.8028 0
      vertex 54.8028 14.8028 2.5
    endloop
  endfacet
  facet normal -0.809019 -0.587782 0
    outer loop
      vertex 54.288 15.3745 0
      vertex 53.8358 15.9969 2.5
      vertex 53.8358 15.9969 0
    endloop
  endfacet
  facet normal -0.809019 -0.587782 0
    outer loop
      vertex 53.8358 15.9969 2.5
      vertex 54.288 15.3745 0
      vertex 54.288 15.3745 2.5
    endloop
  endfacet
  facet normal -0.866024 -0.500003 0
    outer loop
      vertex 53.8358 15.9969 0
      vertex 53.4511 16.6632 2.5
      vertex 53.4511 16.6632 0
    endloop
  endfacet
  facet normal -0.866024 -0.500003 0
    outer loop
      vertex 53.4511 16.6632 2.5
      vertex 53.8358 15.9969 0
      vertex 53.8358 15.9969 2.5
    endloop
  endfacet
  facet normal -0.913544 -0.40674 0
    outer loop
      vertex 53.4511 16.6632 0
      vertex 53.1382 17.366 2.5
      vertex 53.1382 17.366 0
    endloop
  endfacet
  facet normal -0.913544 -0.40674 0
    outer loop
      vertex 53.1382 17.366 2.5
      vertex 53.4511 16.6632 0
      vertex 53.4511 16.6632 2.5
    endloop
  endfacet
  facet normal -0.951062 -0.309 0
    outer loop
      vertex 53.1382 17.366 0
      vertex 52.9005 18.0977 2.5
      vertex 52.9005 18.0977 0
    endloop
  endfacet
  facet normal -0.951062 -0.309 0
    outer loop
      vertex 52.9005 18.0977 2.5
      vertex 53.1382 17.366 0
      vertex 53.1382 17.366 2.5
    endloop
  endfacet
  facet normal -0.978132 -0.207987 0
    outer loop
      vertex 52.9005 18.0977 0
      vertex 52.8924 18.1354 2.5
      vertex 52.8924 18.1354 0
    endloop
  endfacet
  facet normal -0.978132 -0.207987 0
    outer loop
      vertex 52.8924 18.1354 2.5
      vertex 52.9005 18.0977 0
      vertex 52.9005 18.0977 2.5
    endloop
  endfacet
  facet normal 0.253757 -0.967268 0
    outer loop
      vertex 49.8943 17.3488 0
      vertex 52.8924 18.1354 2.5
      vertex 49.8943 17.3488 2.5
    endloop
  endfacet
  facet normal 0.253757 -0.967268 0
    outer loop
      vertex 52.8924 18.1354 2.5
      vertex 49.8943 17.3488 0
      vertex 52.8924 18.1354 0
    endloop
  endfacet
  facet normal 0.743143 0.669132 0
    outer loop
      vertex 50.4541 10.4541 2.5
      vertex 50 10.9584 0
      vertex 50 10.9584 2.5
    endloop
  endfacet
  facet normal 0.743143 0.669132 0
    outer loop
      vertex 50 10.9584 0
      vertex 50.4541 10.4541 2.5
      vertex 50.4541 10.4541 0
    endloop
  endfacet
  facet normal -0.707105 0.707108 0
    outer loop
      vertex 54.8028 14.8028 0
      vertex 50.4541 10.4541 2.5
      vertex 54.8028 14.8028 2.5
    endloop
  endfacet
  facet normal -0.707105 0.707108 0
    outer loop
      vertex 50.4541 10.4541 2.5
      vertex 54.8028 14.8028 0
      vertex 50.4541 10.4541 0
    endloop
  endfacet
  facet normal 0.104526 0.994522 -0
    outer loop
      vertex 59.2934 6.51851 0
      vertex 57.8881 6.66621 2.5
      vertex 59.2934 6.51851 2.5
    endloop
  endfacet
  facet normal 0.104526 0.994522 0
    outer loop
      vertex 57.8881 6.66621 2.5
      vertex 59.2934 6.51851 0
      vertex 57.8881 6.66621 0
    endloop
  endfacet
  facet normal -4.04928e-06 1 0
    outer loop
      vertex 60 6.51851 0
      vertex 59.2934 6.51851 2.5
      vertex 60 6.51851 2.5
    endloop
  endfacet
  facet normal -4.04928e-06 1 0
    outer loop
      vertex 59.2934 6.51851 2.5
      vertex 60 6.51851 0
      vertex 59.2934 6.51851 0
    endloop
  endfacet
  facet normal -1.23956e-05 -1 0
    outer loop
      vertex 59.6153 12.6601 0
      vertex 60 12.6601 2.5
      vertex 59.6153 12.6601 2.5
    endloop
  endfacet
  facet normal -1.23956e-05 -1 -0
    outer loop
      vertex 60 12.6601 2.5
      vertex 59.6153 12.6601 0
      vertex 60 12.6601 0
    endloop
  endfacet
  facet normal -0.104533 -0.994521 0
    outer loop
      vertex 58.8502 12.7405 0
      vertex 59.6153 12.6601 2.5
      vertex 58.8502 12.7405 2.5
    endloop
  endfacet
  facet normal -0.104533 -0.994521 -0
    outer loop
      vertex 59.6153 12.6601 2.5
      vertex 58.8502 12.7405 0
      vertex 59.6153 12.6601 0
    endloop
  endfacet
  facet normal -0.207907 -0.978149 0
    outer loop
      vertex 58.0977 12.9005 0
      vertex 58.8502 12.7405 2.5
      vertex 58.0977 12.9005 2.5
    endloop
  endfacet
  facet normal -0.207907 -0.978149 -0
    outer loop
      vertex 58.8502 12.7405 2.5
      vertex 58.0977 12.9005 0
      vertex 58.8502 12.7405 0
    endloop
  endfacet
  facet normal -0.30897 -0.951072 0
    outer loop
      vertex 58.061 12.9124 0
      vertex 58.0977 12.9005 2.5
      vertex 58.061 12.9124 2.5
    endloop
  endfacet
  facet normal -0.30897 -0.951072 -0
    outer loop
      vertex 58.0977 12.9005 2.5
      vertex 58.061 12.9124 0
      vertex 58.0977 12.9005 0
    endloop
  endfacet
  facet normal 0.964557 -0.263874 0
    outer loop
      vertex 56.4386 6.98187 2.5
      vertex 58.061 12.9124 0
      vertex 58.061 12.9124 2.5
    endloop
  endfacet
  facet normal 0.964557 -0.263874 0
    outer loop
      vertex 58.061 12.9124 0
      vertex 56.4386 6.98187 2.5
      vertex 56.4386 6.98187 0
    endloop
  endfacet
  facet normal 0.309067 0.95104 -0
    outer loop
      vertex 56.5059 6.96 0
      vertex 56.4386 6.98187 2.5
      vertex 56.5059 6.96 2.5
    endloop
  endfacet
  facet normal 0.309067 0.95104 0
    outer loop
      vertex 56.4386 6.98187 2.5
      vertex 56.5059 6.96 0
      vertex 56.4386 6.98187 0
    endloop
  endfacet
  facet normal 0.207908 0.978148 -0
    outer loop
      vertex 57.8881 6.66621 0
      vertex 56.5059 6.96 2.5
      vertex 57.8881 6.66621 2.5
    endloop
  endfacet
  facet normal 0.207908 0.978148 0
    outer loop
      vertex 56.5059 6.96 2.5
      vertex 57.8881 6.66621 0
      vertex 56.5059 6.96 0
    endloop
  endfacet
  facet normal -1 2.08289e-08 -8.67583e-08
    outer loop
      vertex 3.5 17.8099 33.8276
      vertex 3.5 6 20
      vertex 3.5 15.6738 33.3148
    endloop
  endfacet
  facet normal -0.494985 0.866223 -0.0681731
    outer loop
      vertex 3.5 6 20
      vertex 1.61115 5 21.0082
      vertex 3.5 6.17236 22.1901
    endloop
  endfacet
  facet normal -0.494985 0.866223 -0.0681732
    outer loop
      vertex 1.61115 5 21.0082
      vertex 3.5 6 20
      vertex 1.75 5 20
    endloop
  endfacet
  facet normal -0.494985 0.202842 -0.844893
    outer loop
      vertex 3.5 17.8099 33.8276
      vertex 3.5 15.6738 33.3148
      vertex 0 15.0557 35.2169
    endloop
  endfacet
  facet normal -0.494985 0.660718 -0.564306
    outer loop
      vertex 3.5 10.1005 29.8995
      vertex 3.5 8.67376 28.229
      vertex 0 8.68629 31.3137
    endloop
  endfacet
  facet normal -0.494985 0.660718 0.564307
    outer loop
      vertex 3.5 8.67376 11.771
      vertex 3.5 10.1005 10.1005
      vertex 0 8.68629 8.68629
    endloop
  endfacet
  facet normal -1 4.84233e-09 -6.15274e-08
    outer loop
      vertex 3.5 19.0223 26.1731
      vertex 3.5 20 34
      vertex 3.5 20 26.25
    endloop
  endfacet
  facet normal -1 1.50784e-08 -6.2806e-08
    outer loop
      vertex 3.5 18.0686 25.9441
      vertex 3.5 20 34
      vertex 3.5 19.0223 26.1731
    endloop
  endfacet
  facet normal -1 2.72209e-08 -6.57171e-08
    outer loop
      vertex 3.5 17.1626 25.5688
      vertex 3.5 20 34
      vertex 3.5 18.0686 25.9441
    endloop
  endfacet
  facet normal -1 -3.15531e-07 4.96326e-08
    outer loop
      vertex 3.5 16.3263 25.0564
      vertex 3.5 20 34
      vertex 3.5 17.1626 25.5688
    endloop
  endfacet
  facet normal -1 1.05215e-07 -1.23191e-07
    outer loop
      vertex 3.5 15.5806 24.4194
      vertex 3.5 20 34
      vertex 3.5 16.3263 25.0564
    endloop
  endfacet
  facet normal -1 -4.10638e-08 3.50718e-08
    outer loop
      vertex 3.5 6 20
      vertex 3.5 15.5806 24.4194
      vertex 3.5 14.9436 23.6737
    endloop
  endfacet
  facet normal -1 -3.56251e-08 2.18311e-08
    outer loop
      vertex 3.5 6 20
      vertex 3.5 14.9436 23.6737
      vertex 3.5 14.4312 22.8374
    endloop
  endfacet
  facet normal -1 1.21349e-08 -8.02545e-08
    outer loop
      vertex 3.5 15.5806 24.4194
      vertex 3.5 6 20
      vertex 3.5 20 34
    endloop
  endfacet
  facet normal -1 -3.28586e-08 1.36104e-08
    outer loop
      vertex 3.5 14.0559 21.9314
      vertex 3.5 6 20
      vertex 3.5 14.4312 22.8374
    endloop
  endfacet
  facet normal -1 3.21957e-08 -2.57738e-07
    outer loop
      vertex 3.5 13.8269 20.9777
      vertex 3.5 6 20
      vertex 3.5 14.0559 21.9314
    endloop
  endfacet
  facet normal -1 0 0
    outer loop
      vertex 3.5 6 20
      vertex 3.5 13.8269 20.9777
      vertex 3.5 13.75 20
    endloop
  endfacet
  facet normal -1 1.27321e-07 -1.49074e-07
    outer loop
      vertex 3.5 11.771 31.3262
      vertex 3.5 6 20
      vertex 3.5 10.1005 29.8995
    endloop
  endfacet
  facet normal -0.494985 0.202841 0.844894
    outer loop
      vertex 3.5 17.8099 6.17236
      vertex 0 17.497 4.19699
      vertex 0 15.0557 4.7831
    endloop
  endfacet
  facet normal -0.494985 0.866223 0.0681732
    outer loop
      vertex 1.61115 5 18.9918
      vertex 3.5 6.17236 17.8099
      vertex 1.42279 5 17.6242
    endloop
  endfacet
  facet normal -0.494985 0.844894 0.202841
    outer loop
      vertex 3.5 6.68521 15.6738
      vertex 0.546451 5 15.4857
      vertex 3.5 6.17236 17.8099
    endloop
  endfacet
  facet normal -0.494985 0.844894 0.202841
    outer loop
      vertex 0.546451 5 15.4857
      vertex 3.5 6.68521 15.6738
      vertex 0.399117 5 15.1262
    endloop
  endfacet
  facet normal -0.494985 0.844894 0.202841
    outer loop
      vertex 1.42279 5 17.6242
      vertex 3.5 6.17236 17.8099
      vertex 0.546451 5 15.4857
    endloop
  endfacet
  facet normal -0.494985 0.202841 0.844894
    outer loop
      vertex 3.5 15.6738 6.68521
      vertex 3.5 17.8099 6.17236
      vertex 0 15.0557 4.7831
    endloop
  endfacet
  facet normal -0.494985 0.454 0.740861
    outer loop
      vertex 3.5 11.771 8.67376
      vertex 3.5 13.6441 7.52591
      vertex 0 12.7362 5.7439
    endloop
  endfacet
  facet normal -0.494985 0.0681731 0.866223
    outer loop
      vertex 3.5 17.8099 6.17236
      vertex 0 20 4
      vertex 0 17.497 4.19699
    endloop
  endfacet
  facet normal -0.494985 0.0681729 0.866223
    outer loop
      vertex 3.5 17.8099 6.17236
      vertex 3.5 20 6
      vertex 0 20 4
    endloop
  endfacet
  facet normal -1 0 0
    outer loop
      vertex 3.5 20 6
      vertex 3.5 19.0223 13.8269
      vertex 3.5 20 13.75
    endloop
  endfacet
  facet normal -1 0 0
    outer loop
      vertex 3.5 17.8099 6.17236
      vertex 3.5 19.0223 13.8269
      vertex 3.5 20 6
    endloop
  endfacet
  facet normal -1 -0 0
    outer loop
      vertex 3.5 19.0223 13.8269
      vertex 3.5 17.8099 6.17236
      vertex 3.5 18.0686 14.0559
    endloop
  endfacet
  facet normal -1 0 0
    outer loop
      vertex 3.5 15.6738 6.68521
      vertex 3.5 18.0686 14.0559
      vertex 3.5 17.8099 6.17236
    endloop
  endfacet
  facet normal -1 -0 0
    outer loop
      vertex 3.5 18.0686 14.0559
      vertex 3.5 15.6738 6.68521
      vertex 3.5 17.1626 14.4312
    endloop
  endfacet
  facet normal -1 0 0
    outer loop
      vertex 3.5 13.6441 7.52591
      vertex 3.5 17.1626 14.4312
      vertex 3.5 15.6738 6.68521
    endloop
  endfacet
  facet normal -1 -0 0
    outer loop
      vertex 3.5 17.1626 14.4312
      vertex 3.5 13.6441 7.52591
      vertex 3.5 16.3263 14.9436
    endloop
  endfacet
  facet normal -1 0 0
    outer loop
      vertex 3.5 11.771 8.67376
      vertex 3.5 16.3263 14.9436
      vertex 3.5 13.6441 7.52591
    endloop
  endfacet
  facet normal -1 -0 0
    outer loop
      vertex 3.5 16.3263 14.9436
      vertex 3.5 11.771 8.67376
      vertex 3.5 15.5806 15.5806
    endloop
  endfacet
  facet normal -1 0 0
    outer loop
      vertex 3.5 10.1005 10.1005
      vertex 3.5 15.5806 15.5806
      vertex 3.5 11.771 8.67376
    endloop
  endfacet
  facet normal -1 -0 0
    outer loop
      vertex 3.5 15.5806 15.5806
      vertex 3.5 10.1005 10.1005
      vertex 3.5 14.9436 16.3263
    endloop
  endfacet
  facet normal -1 0 0
    outer loop
      vertex 3.5 8.67376 11.771
      vertex 3.5 14.9436 16.3263
      vertex 3.5 10.1005 10.1005
    endloop
  endfacet
  facet normal -1 -0 0
    outer loop
      vertex 3.5 14.9436 16.3263
      vertex 3.5 8.67376 11.771
      vertex 3.5 14.4312 17.1626
    endloop
  endfacet
  facet normal -1 0 0
    outer loop
      vertex 3.5 7.52591 13.6441
      vertex 3.5 14.4312 17.1626
      vertex 3.5 8.67376 11.771
    endloop
  endfacet
  facet normal -1 -0 0
    outer loop
      vertex 3.5 14.4312 17.1626
      vertex 3.5 7.52591 13.6441
      vertex 3.5 14.0559 18.0686
    endloop
  endfacet
  facet normal -1 0 0
    outer loop
      vertex 3.5 6.68521 15.6738
      vertex 3.5 14.0559 18.0686
      vertex 3.5 7.52591 13.6441
    endloop
  endfacet
  facet normal -1 -0 0
    outer loop
      vertex 3.5 14.0559 18.0686
      vertex 3.5 6.68521 15.6738
      vertex 3.5 13.8269 19.0223
    endloop
  endfacet
  facet normal -1 0 0
    outer loop
      vertex 3.5 6.17236 17.8099
      vertex 3.5 13.8269 19.0223
      vertex 3.5 6.68521 15.6738
    endloop
  endfacet
  facet normal -1 -0 0
    outer loop
      vertex 3.5 13.8269 19.0223
      vertex 3.5 6.17236 17.8099
      vertex 3.5 13.75 20
    endloop
  endfacet
  facet normal -1 -0 0
    outer loop
      vertex 3.5 13.75 20
      vertex 3.5 6.17236 17.8099
      vertex 3.5 6 20
    endloop
  endfacet
  facet normal -0.494985 0.844894 -0.202841
    outer loop
      vertex 3.5 6.68521 24.3262
      vertex 0.546451 5 24.5143
      vertex 0.399117 5 24.8738
    endloop
  endfacet
  facet normal -0.494985 0.844894 -0.202841
    outer loop
      vertex 0.546451 5 24.5143
      vertex 3.5 6.68521 24.3262
      vertex 3.5 6.17236 22.1901
    endloop
  endfacet
  facet normal -1 2.69833e-06 -6.47814e-07
    outer loop
      vertex 3.5 6.68521 24.3262
      vertex 3.5 6 20
      vertex 3.5 6.17236 22.1901
    endloop
  endfacet
  facet normal -1 4.02569e-07 -2.46695e-07
    outer loop
      vertex 3.5 8.67376 28.229
      vertex 3.5 6 20
      vertex 3.5 7.52591 26.3559
    endloop
  endfacet
  facet normal -0.494985 0.454 -0.74086
    outer loop
      vertex 0 12.7362 34.2561
      vertex 3.5 11.771 31.3262
      vertex 0 10.5954 32.9443
    endloop
  endfacet
  facet normal -0.494985 0.0681733 -0.866223
    outer loop
      vertex 3.5 20 34
      vertex 3.5 17.8099 33.8276
      vertex 0 20 36
    endloop
  endfacet
  facet normal -1 5.8191e-09 -7.39387e-08
    outer loop
      vertex 3.5 20 34
      vertex 3.5 6 20
      vertex 3.5 17.8099 33.8276
    endloop
  endfacet
  facet normal -0.494985 0.866223 0.0681728
    outer loop
      vertex 3.5 6 20
      vertex 1.61115 5 18.9918
      vertex 1.75 5 20
    endloop
  endfacet
  facet normal -0.494985 0.866223 0.0681729
    outer loop
      vertex 1.61115 5 18.9918
      vertex 3.5 6 20
      vertex 3.5 6.17236 17.8099
    endloop
  endfacet
  facet normal -0.494985 0.564306 0.660718
    outer loop
      vertex 3.5 11.771 8.67376
      vertex 0 10.5954 7.05573
      vertex 0 8.68629 8.68629
    endloop
  endfacet
  facet normal -0.494985 0.332514 0.802761
    outer loop
      vertex 3.5 15.6738 6.68521
      vertex 0 15.0557 4.7831
      vertex 0 12.7362 5.7439
    endloop
  endfacet
  facet normal -0.494985 0.844894 -0.202841
    outer loop
      vertex 3.5 6.17236 22.1901
      vertex 1.42279 5 22.3758
      vertex 0.546451 5 24.5143
    endloop
  endfacet
  facet normal -0.494985 0.866223 -0.0681731
    outer loop
      vertex 3.5 6.17236 22.1901
      vertex 1.61115 5 21.0082
      vertex 1.42279 5 22.3758
    endloop
  endfacet
  facet normal -0.494985 0.80276 -0.332514
    outer loop
      vertex 0 5.7439 27.2638
      vertex 0.399117 5 24.8738
      vertex 0 5 25.4679
    endloop
  endfacet
  facet normal -0.494985 0.80276 -0.332514
    outer loop
      vertex 0.399117 5 24.8738
      vertex 0 5.7439 27.2638
      vertex 3.5 6.68521 24.3262
    endloop
  endfacet
  facet normal -0.494985 0.660718 -0.564306
    outer loop
      vertex 0 8.68629 31.3137
      vertex 3.5 8.67376 28.229
      vertex 0 7.05573 29.4046
    endloop
  endfacet
  facet normal -0.494985 0.202841 -0.844894
    outer loop
      vertex 0 17.497 35.803
      vertex 3.5 17.8099 33.8276
      vertex 0 15.0557 35.2169
    endloop
  endfacet
  facet normal -0.494985 0.0681734 -0.866223
    outer loop
      vertex 0 20 36
      vertex 3.5 17.8099 33.8276
      vertex 0 17.497 35.803
    endloop
  endfacet
  facet normal -1 7.50232e-08 -1.22427e-07
    outer loop
      vertex 3.5 13.6441 32.4741
      vertex 3.5 6 20
      vertex 3.5 11.771 31.3262
    endloop
  endfacet
  facet normal -0.494985 0.740861 0.454
    outer loop
      vertex 3.5 8.67376 11.771
      vertex 0 7.05573 10.5954
      vertex 0 5.7439 12.7362
    endloop
  endfacet
  facet normal -0.494985 0.660718 0.564306
    outer loop
      vertex 3.5 8.67376 11.771
      vertex 0 8.68629 8.68629
      vertex 0 7.05573 10.5954
    endloop
  endfacet
  facet normal -0.494985 0.332514 0.80276
    outer loop
      vertex 3.5 13.6441 7.52591
      vertex 3.5 15.6738 6.68521
      vertex 0 12.7362 5.7439
    endloop
  endfacet
  facet normal -0.494985 0.564307 0.660718
    outer loop
      vertex 3.5 10.1005 10.1005
      vertex 3.5 11.771 8.67376
      vertex 0 8.68629 8.68629
    endloop
  endfacet
  facet normal -0.494985 0.454 0.740861
    outer loop
      vertex 3.5 11.771 8.67376
      vertex 0 12.7362 5.7439
      vertex 0 10.5954 7.05573
    endloop
  endfacet
  facet normal -0.494985 0.740861 -0.454
    outer loop
      vertex 3.5 8.67376 28.229
      vertex 3.5 7.52591 26.3559
      vertex 0 5.7439 27.2638
    endloop
  endfacet
  facet normal -1 2.19011e-07 -1.87053e-07
    outer loop
      vertex 3.5 10.1005 29.8995
      vertex 3.5 6 20
      vertex 3.5 8.67376 28.229
    endloop
  endfacet
  facet normal -0.494985 0.564306 -0.660718
    outer loop
      vertex 0 10.5954 32.9443
      vertex 3.5 11.771 31.3262
      vertex 0 8.68629 31.3137
    endloop
  endfacet
  facet normal -0.494985 0.564306 -0.660718
    outer loop
      vertex 3.5 11.771 31.3262
      vertex 3.5 10.1005 29.8995
      vertex 0 8.68629 31.3137
    endloop
  endfacet
  facet normal -0.494985 0.454 -0.74086
    outer loop
      vertex 3.5 13.6441 32.4741
      vertex 3.5 11.771 31.3262
      vertex 0 12.7362 34.2561
    endloop
  endfacet
  facet normal -1 4.24401e-08 -1.0246e-07
    outer loop
      vertex 3.5 15.6738 33.3148
      vertex 3.5 6 20
      vertex 3.5 13.6441 32.4741
    endloop
  endfacet
  facet normal -0.494985 0.332514 -0.802761
    outer loop
      vertex 3.5 15.6738 33.3148
      vertex 3.5 13.6441 32.4741
      vertex 0 12.7362 34.2561
    endloop
  endfacet
  facet normal -0.494985 0.332514 -0.80276
    outer loop
      vertex 0 15.0557 35.2169
      vertex 3.5 15.6738 33.3148
      vertex 0 12.7362 34.2561
    endloop
  endfacet
  facet normal -0.494985 0.80276 0.332514
    outer loop
      vertex 3.5 6.68521 15.6738
      vertex 3.5 7.52591 13.6441
      vertex 0 5.7439 12.7362
    endloop
  endfacet
  facet normal -0.494985 0.802761 0.332514
    outer loop
      vertex 0 5.7439 12.7362
      vertex 0.399117 5 15.1262
      vertex 3.5 6.68521 15.6738
    endloop
  endfacet
  facet normal -0.494985 0.802761 0.332514
    outer loop
      vertex 0.399117 5 15.1262
      vertex 0 5.7439 12.7362
      vertex 0 5 14.5321
    endloop
  endfacet
  facet normal -0.494985 0.740861 -0.454
    outer loop
      vertex 0 7.05573 29.4046
      vertex 3.5 8.67376 28.229
      vertex 0 5.7439 27.2638
    endloop
  endfacet
  facet normal -0.494985 0.740861 0.454
    outer loop
      vertex 3.5 7.52591 13.6441
      vertex 3.5 8.67376 11.771
      vertex 0 5.7439 12.7362
    endloop
  endfacet
  facet normal -0.494985 0.80276 -0.332514
    outer loop
      vertex 3.5 7.52591 26.3559
      vertex 3.5 6.68521 24.3262
      vertex 0 5.7439 27.2638
    endloop
  endfacet
  facet normal -1 8.61667e-07 -3.56914e-07
    outer loop
      vertex 3.5 7.52591 26.3559
      vertex 3.5 6 20
      vertex 3.5 6.68521 24.3262
    endloop
  endfacet
  facet normal 1 0 0
    outer loop
      vertex 60 20 3
      vertex 60 12.6601 2.5
      vertex 60 20 0
    endloop
  endfacet
  facet normal 1 -0 0
    outer loop
      vertex 60 5 3
      vertex 60 12.6601 2.5
      vertex 60 20 3
    endloop
  endfacet
  facet normal 1 0 0
    outer loop
      vertex 60 12.6601 2.5
      vertex 60 5 3
      vertex 60 6.51851 2.5
    endloop
  endfacet
  facet normal 1 0 0
    outer loop
      vertex 60 5 0
      vertex 60 6.51851 2.5
      vertex 60 5 3
    endloop
  endfacet
  facet normal 1 0 0
    outer loop
      vertex 60 6.51851 2.5
      vertex 60 5 0
      vertex 60 6.51851 0
    endloop
  endfacet
  facet normal 1 0 0
    outer loop
      vertex 60 20 0
      vertex 60 12.6601 2.5
      vertex 60 12.6601 0
    endloop
  endfacet
  facet normal 0 1 -0
    outer loop
      vertex 60 20 0
      vertex 55 20 3
      vertex 60 20 3
    endloop
  endfacet
  facet normal 0 1 0
    outer loop
      vertex 55 20 3
      vertex 60 20 0
      vertex 25 20 3
    endloop
  endfacet
  facet normal 0 1 0
    outer loop
      vertex 0 20 0
      vertex 25 20 3
      vertex 60 20 0
    endloop
  endfacet
  facet normal 0 1 -0
    outer loop
      vertex 55 20 3
      vertex 49.9 20 13.75
      vertex 55 20 13.75
    endloop
  endfacet
  facet normal 0 1 0
    outer loop
      vertex 49.9 20 13.75
      vertex 55 20 3
      vertex 30.1 20 13.75
    endloop
  endfacet
  facet normal 0 1 0
    outer loop
      vertex 25 20 3
      vertex 30.1 20 13.75
      vertex 55 20 3
    endloop
  endfacet
  facet normal 0 1 0
    outer loop
      vertex 30.1 20 13.75
      vertex 25 20 3
      vertex 25 20 13.75
    endloop
  endfacet
  facet normal 0 1 -0
    outer loop
      vertex 49.9 20 13.75
      vertex 30.1 20 16
      vertex 49.9 20 16
    endloop
  endfacet
  facet normal 0 1 0
    outer loop
      vertex 30.1 20 16
      vertex 49.9 20 13.75
      vertex 30.1 20 13.75
    endloop
  endfacet
  facet normal 0 1 0
    outer loop
      vertex 3.5 20 6
      vertex 7.3 20 13.75
      vertex 8 20 13.75
    endloop
  endfacet
  facet normal 0 1 0
    outer loop
      vertex 7.3 20 13.75
      vertex 3.5 20 6
      vertex 3.5 20 13.75
    endloop
  endfacet
  facet normal 0 1 -0
    outer loop
      vertex 8 20 3
      vertex 3.5 20 6
      vertex 8 20 13.75
    endloop
  endfacet
  facet normal 0 1 0
    outer loop
      vertex 0 20 0
      vertex 3.5 20 6
      vertex 8 20 3
    endloop
  endfacet
  facet normal 0 1 0
    outer loop
      vertex 3.5 20 6
      vertex 0 20 0
      vertex 0 20 4
    endloop
  endfacet
  facet normal 0 1 0
    outer loop
      vertex 25 20 3
      vertex 0 20 0
      vertex 8 20 3
    endloop
  endfacet
  facet normal 0 1 0
    outer loop
      vertex 7.3 20 26.25
      vertex 8 20 28
      vertex 8 20 26.25
    endloop
  endfacet
  facet normal 0 1 0
    outer loop
      vertex 4.5 20 40
      vertex 0 20 36
      vertex 0 20 40
    endloop
  endfacet
  facet normal 0 1 0
    outer loop
      vertex 4.5 20 40
      vertex 3.5 20 34
      vertex 0 20 36
    endloop
  endfacet
  facet normal 0 1 -0
    outer loop
      vertex 4.5 20 28
      vertex 3.5 20 34
      vertex 4.5 20 40
    endloop
  endfacet
  facet normal 0 1 0
    outer loop
      vertex 8 20 28
      vertex 7.3 20 26.25
      vertex 4.5 20 28
    endloop
  endfacet
  facet normal 0 1 0
    outer loop
      vertex 4.5 20 28
      vertex 3.5 20 26.25
      vertex 3.5 20 34
    endloop
  endfacet
  facet normal 0 1 0
    outer loop
      vertex 3.5 20 26.25
      vertex 4.5 20 28
      vertex 7.3 20 26.25
    endloop
  endfacet
  facet normal 0 -1 0
    outer loop
      vertex 0 5 25.4679
      vertex 4.5 5 40
      vertex 0 5 40
    endloop
  endfacet
  facet normal 0 -1 0
    outer loop
      vertex 0.399117 5 24.8738
      vertex 4.5 5 40
      vertex 0 5 25.4679
    endloop
  endfacet
  facet normal 0 -1 0
    outer loop
      vertex 0.546451 5 24.5143
      vertex 4.5 5 40
      vertex 0.399117 5 24.8738
    endloop
  endfacet
  facet normal 0 -1 0
    outer loop
      vertex 1.42279 5 22.3758
      vertex 4.5 5 40
      vertex 0.546451 5 24.5143
    endloop
  endfacet
  facet normal 0 -1 0
    outer loop
      vertex 1.61115 5 21.0082
      vertex 4.5 5 40
      vertex 1.42279 5 22.3758
    endloop
  endfacet
  facet normal 0 -1 0
    outer loop
      vertex 1.75 5 20
      vertex 4.5 5 40
      vertex 1.61115 5 21.0082
    endloop
  endfacet
  facet normal 0 -1 0
    outer loop
      vertex 1.75 5 20
      vertex 4.5 5 3
      vertex 4.5 5 40
    endloop
  endfacet
  facet normal 0 -1 0
    outer loop
      vertex 1.61115 5 18.9918
      vertex 4.5 5 3
      vertex 1.75 5 20
    endloop
  endfacet
  facet normal 0 -1 0
    outer loop
      vertex 1.42279 5 17.6242
      vertex 4.5 5 3
      vertex 1.61115 5 18.9918
    endloop
  endfacet
  facet normal 0 -1 0
    outer loop
      vertex 0.546451 5 15.4857
      vertex 4.5 5 3
      vertex 1.42279 5 17.6242
    endloop
  endfacet
  facet normal 0 -1 0
    outer loop
      vertex 0.399117 5 15.1262
      vertex 4.5 5 3
      vertex 0.546451 5 15.4857
    endloop
  endfacet
  facet normal 0 -1 0
    outer loop
      vertex 0 5 14.5321
      vertex 4.5 5 3
      vertex 0.399117 5 15.1262
    endloop
  endfacet
  facet normal 0 -1 0
    outer loop
      vertex 0 5 0
      vertex 4.5 5 3
      vertex 0 5 14.5321
    endloop
  endfacet
  facet normal 0 -1 0
    outer loop
      vertex 60 5 0
      vertex 4.5 5 3
      vertex 0 5 0
    endloop
  endfacet
  facet normal 0 -1 0
    outer loop
      vertex 4.5 5 3
      vertex 60 5 0
      vertex 60 5 3
    endloop
  endfacet
endsolid OpenSCAD_Model
